SplineFontDB: 3.2
FontName: Untitled25
FullName: Untitled25
FamilyName: Untitled25
Weight: Regular
Copyright: Copyright (c) 2024, mao
UComments: "2024-11-24: Created with FontForge (http://fontforge.org)"
Version: 001.000
ItalicAngle: 0
UnderlinePosition: -100
UnderlineWidth: 50
Ascent: 800
Descent: 200
InvalidEm: 0
LayerCount: 2
Layer: 0 0 "Back" 1
Layer: 1 0 "Fore" 0
XUID: [1021 954 1007455877 1992274]
OS2Version: 0
OS2_WeightWidthSlopeOnly: 0
OS2_UseTypoMetrics: 1
CreationTime: 1732469558
ModificationTime: 1732470227
OS2TypoAscent: 0
OS2TypoAOffset: 1
OS2TypoDescent: 0
OS2TypoDOffset: 1
OS2TypoLinegap: 0
OS2WinAscent: 0
OS2WinAOffset: 1
OS2WinDescent: 0
OS2WinDOffset: 1
HheadAscent: 0
HheadAOffset: 1
HheadDescent: 0
HheadDOffset: 1
OS2Vendor: 'PfEd'
DEI: 91125
Encoding: ISO8859-1
UnicodeInterp: none
NameList: AGL For New Fonts
DisplaySize: -48
AntiAlias: 1
FitToEm: 0
OnlyBitmaps: 1
BeginChars: 436 180

StartChar: c_xTuo_n1
Encoding: 256 -1 0
Width: 1013
VWidth: -29
Flags: HW
LayerCount: 2
Fore
SplineSet
71.478515625 713.162109375 m 2
 67.01171875 712.666015625 63.0400390625 712.41796875 59.5654296875 712.41796875 c 0
 56.0908203125 712.41796875 53.1123046875 712.41796875 50.630859375 712.41796875 c 0
 39.7099609375 712.41796875 31.2724609375 714.403320312 25.3154296875 718.374023438 c 0
 20.84765625 722.345703125 16.62890625 727.309570312 12.6572265625 733.265625 c 0
 9.1826171875 739.71875 6.205078125 745.923828125 3.72265625 751.879882812 c 0
 1.2412109375 758.333007812 0 762.80078125 0 765.282226562 c 0
 0 771.239257812 2.73046875 774.216796875 8.1904296875 774.216796875 c 0
 9.6796875 774.216796875 12.1611328125 773.720703125 15.6357421875 772.728515625 c 0
 24.07421875 770.24609375 33.009765625 769.004882812 42.4404296875 769.004882812 c 0
 44.9228515625 769.004882812 47.15625 769.004882812 49.1416015625 769.004882812 c 0
 51.6240234375 769.501953125 53.857421875 769.75 55.8427734375 769.75 c 2
 332.744140625 792.5546875 l 2
 337.2109375 793.05078125 341.926757812 793.794921875 346.889648438 794.788085938 c 0
 351.853515625 795.78125 357.06640625 797.26953125 362.526367188 799.255859375 c 0
 364.015625 799.751953125 366.000976562 800 368.483398438 800 c 0
 373.447265625 800 379.65234375 797.766601562 387.096679688 793.298828125 c 0
 394.54296875 788.831054688 401.244140625 783.123046875 407.201171875 776.173828125 c 0
 413.654296875 769.224609375 416.879882812 762.5234375 416.879882812 756.0703125 c 0
 416.879882812 750.610351562 414.646484375 746.390625 410.178710938 743.413085938 c 0
 406.208007812 740.930664062 401.244140625 739.44140625 395.288085938 738.9453125 c 2
 71.478515625 713.162109375 l 2
207.041015625 294.021484375 m 0
 210.018554688 283.596679688 216.471679688 274.91015625 226.400390625 267.9609375 c 0
 236.82421875 261.5078125 253.701171875 256.543945312 277.03125 253.0703125 c 0
 300.360351562 250.090820312 332.873046875 248.6015625 374.569335938 248.6015625 c 0
 400.380859375 248.6015625 464.44140625 249.346679688 490.749023438 250.8359375 c 0
 517.553710938 252.821289062 542.869140625 255.55078125 566.696289062 259.026367188 c 0
 583.573242188 262.00390625 596.23046875 264.983398438 604.668945312 267.9609375 c 0
 613.107421875 271.435546875 619.064453125 276.151367188 622.538085938 282.108398438 c 0
 626.508789062 288.560546875 628.5234375 291.999023438 633.0234375 302.999023438 c 0
 636.994140625 320.372070312 637.918945312 321.155273438 640.897460938 338.032226562 c 0
 643.875976562 354.909179688 646.109375 371.786132812 647.59765625 388.663085938 c 0
 650.577148438 414.474609375 656.533203125 427.380859375 665.467773438 427.380859375 c 0
 672.416992188 427.380859375 677.1328125 421.920898438 679.615234375 411 c 0
 682.096679688 400.576171875 683.833984375 388.911132812 684.827148438 376.004882812 c 0
 685.8203125 363.099609375 686.31640625 351.185546875 686.31640625 340.265625 c 0
 686.811523438 329.345703125 687.060546875 322.396484375 687.060546875 319.41796875 c 0
 687.060546875 286.657226562 687.987304688 283.357421875 683.0234375 263.999023438 c 0
 678.555664062 244.639648438 666.467773438 230.484375 651.577148438 221.052734375 c 0
 637.181640625 211.125 615.092773438 204.17578125 585.309570312 200.205078125 c 0
 557.015625 196.73046875 527.977539062 194 498.1953125 192.014648438 c 0
 468.412109375 190.029296875 401.622070312 189.036132812 373.825195312 189.036132812 c 0
 330.639648438 189.036132812 294.404296875 190.526367188 265.1171875 193.50390625 c 0
 235.831054688 196.482421875 212.004882812 202.686523438 193.638671875 212.118164062 c 0
 175.768554688 221.052734375 166.86328125 234.20703125 158.920898438 251.580078125 c 0
 150.978515625 269.450195312 147.0078125 292.780273438 147.0078125 321.5703125 c 2
 148.190429688 440.126953125 l 1
 82.40234375 429.296875 l 2
 76.619140625 428.333984375 71.3173828125 427.372070312 66.498046875 426.409179688 c 0
 62.16015625 425.927734375 58.0634765625 425.686523438 54.2080078125 425.686523438 c 0
 46.978515625 425.686523438 40.4716796875 428.09375 34.6884765625 432.907226562 c 0
 28.904296875 437.719726562 24.326171875 442.534179688 20.9521484375 447.346679688 c 0
 18.060546875 452.161132812 16.3740234375 455.048828125 15.8916015625 456.01171875 c 0
 13.9638671875 459.86328125 13 462.750976562 13 464.67578125 c 0
 13 470.452148438 16.3740234375 473.33984375 23.12109375 473.33984375 c 2
 35.4111328125 473.33984375 l 2
 45.5322265625 473.33984375 54.9306640625 474.061523438 63.6064453125 475.505859375 c 2
 148.913085938 489.224609375 l 1
 151.08203125 643.026367188 l 1
 138.791992188 638.694335938 l 2
 130.598632812 636.287109375 120.959960938 633.399414062 109.874023438 630.030273438 c 0
 99.271484375 627.141601562 88.9091796875 624.494140625 78.7880859375 622.087890625 c 0
 69.1484375 620.162109375 61.1962890625 619.200195312 54.9306640625 619.200195312 c 0
 43.845703125 619.200195312 38.302734375 622.569335938 38.302734375 629.307617188 c 0
 38.302734375 636.046875 45.05078125 642.064453125 58.5458984375 647.359375 c 0
 88.4267578125 658.911132812 118.549804688 672.62890625 148.913085938 688.513671875 c 0
 179.758789062 704.879882812 206.026367188 721.245117188 227.713867188 737.611328125 c 0
 236.872070312 744.350585938 242.896484375 752.291992188 245.788085938 761.4375 c 0
 248.198242188 767.6953125 252.53515625 770.82421875 258.80078125 770.82421875 c 0
 264.583984375 770.82421875 270.609375 767.6953125 276.874023438 761.4375 c 0
 283.622070312 755.662109375 289.1640625 749.1640625 293.501953125 741.943359375 c 0
 297.83984375 735.204101562 300.008789062 729.428710938 300.008789062 724.615234375 c 0
 300.008789062 720.282226562 294.224609375 714.265625 282.658203125 706.564453125 c 0
 271.573242188 699.34375 258.559570312 691.8828125 243.619140625 684.181640625 c 0
 229.16015625 676.48046875 215.90625 669.982421875 203.857421875 664.686523438 c 1
 203.133789062 497.888671875 l 1
 244.5078125 505.037109375 l 1
 244.5078125 505.037109375 258.17578125 508.533203125 262.99609375 510.940429688 c 0
 265.88671875 512.865234375 269.01953125 513.828125 272.393554688 513.828125 c 0
 276.25 513.828125 281.55078125 512.142578125 288.298828125 508.7734375 c 0
 295.045898438 505.884765625 301.552734375 501.793945312 307.818359375 496.499023438 c 0
 314.083984375 491.685546875 317.215820312 486.150390625 317.215820312 479.892578125 c 0
 317.215820312 471.227539062 310.951171875 465.693359375 298.419921875 463.286132812 c 2
 203.133789062 448.791992188 l 1
 203.318359375 334.971679688 l 2
 203.318359375 318.591796875 204.55859375 304.94140625 207.041015625 294.021484375 c 0
EndSplineSet
EndChar

StartChar: c_xTuo_n10
Encoding: 257 -1 1
Width: 1013
VWidth: -29
Flags: HW
LayerCount: 2
Fore
SplineSet
163.174804688 572.934570312 m 1
 66.3857421875 565.219726562 l 2
 63.1923828125 564.752929688 60.2265625 564.518554688 57.4892578125 564.518554688 c 0
 54.7509765625 564.518554688 52.013671875 564.518554688 49.2763671875 564.518554688 c 0
 42.888671875 564.518554688 36.95703125 564.987304688 31.4814453125 565.921875 c 0
 26.0068359375 566.857421875 21.671875 569.1953125 18.478515625 572.934570312 c 0
 9.8095703125 583.689453125 3.8779296875 594.91015625 0.6845703125 606.598632812 c 0
 0.6845703125 607.534179688 0.4560546875 608.236328125 0 608.703125 c 0
 0 609.637695312 0 610.57421875 0 611.508789062 c 0
 0 616.65234375 2.28125 619.22265625 6.84375 619.22265625 c 0
 8.212890625 619.22265625 10.0380859375 618.522460938 12.3193359375 617.119140625 c 0
 16.8818359375 615.716796875 20.98828125 614.547851562 24.6376953125 613.61328125 c 0
 28.744140625 613.14453125 33.306640625 612.911132812 38.326171875 612.911132812 c 2
 46.5390625 612.911132812 l 1
 163.174804688 622.029296875 l 1
 163.174804688 753.010742188 l 2
 163.174804688 757.685546875 162.71875 762.361328125 161.805664062 767.037109375 c 0
 160.893554688 771.712890625 158.83984375 776.154296875 155.647460938 780.362304688 c 0
 153.365234375 783.635742188 152.223632812 786.908203125 152.223632812 790.181640625 c 0
 152.223632812 796.727539062 156.787109375 800 165.912109375 800 c 0
 172.299804688 800 180.055664062 798.59765625 189.181640625 795.791992188 c 0
 200.131835938 792.051757812 207.431640625 788.544921875 211.08203125 785.271484375 c 0
 214.732421875 782.466796875 216.556640625 777.323242188 216.556640625 769.842773438 c 2
 216.556640625 624.833984375 l 1
 305.34765625 631.846679688 l 2
 309.911132812 632.315429688 314.702148438 632.783203125 319.720703125 633.25 c 0
 325.196289062 634.184570312 330.213867188 635.587890625 334.77734375 637.458007812 c 0
 336.146484375 637.92578125 337.514648438 638.159179688 338.883789062 638.159179688 c 0
 340.251953125 638.626953125 341.62109375 638.861328125 342.990234375 638.861328125 c 0
 346.18359375 638.861328125 350.74609375 636.5234375 356.677734375 631.846679688 c 0
 362.609375 627.171875 368.311523438 621.794921875 373.788085938 615.716796875 c 0
 379.262695312 609.637695312 382 604.028320312 382 598.884765625 c 0
 382 593.741210938 379.947265625 590.467773438 375.83984375 589.06640625 c 0
 371.734375 587.663085938 367.627929688 586.727539062 363.521484375 586.259765625 c 2
 216.556640625 575.740234375 l 1
 217.2421875 387.443359375 l 2
 217.2421875 372.481445312 211.309570312 365 199.447265625 365 c 0
 191.235351562 365 182.110351562 368.973632812 172.072265625 376.922851562 c 0
 162.490234375 384.404296875 157.69921875 393.287109375 157.69921875 403.57421875 c 0
 157.69921875 406.846679688 157.927734375 409.41796875 158.383789062 411.288085938 c 0
 159.752929688 418.301757812 160.893554688 425.315429688 161.805664062 432.329101562 c 0
 162.71875 439.341796875 163.174804688 446.12109375 163.174804688 476.215820312 c 2
 163.174804688 572.934570312 l 1
207.041015625 294.021484375 m 0
 210.018554688 283.596679688 216.471679688 274.91015625 226.400390625 267.9609375 c 0
 236.82421875 261.5078125 253.701171875 256.543945312 277.03125 253.0703125 c 0
 300.360351562 250.090820312 332.873046875 248.6015625 374.569335938 248.6015625 c 0
 400.380859375 248.6015625 464.44140625 249.346679688 490.749023438 250.8359375 c 0
 517.553710938 252.821289062 542.869140625 255.55078125 566.696289062 259.026367188 c 0
 583.573242188 262.00390625 596.23046875 264.983398438 604.668945312 267.9609375 c 0
 613.107421875 271.435546875 619.064453125 276.151367188 622.538085938 282.108398438 c 0
 626.508789062 288.560546875 628.5234375 291.999023438 633.0234375 302.999023438 c 0
 636.994140625 320.372070312 637.918945312 321.155273438 640.897460938 338.032226562 c 0
 643.875976562 354.909179688 646.109375 371.786132812 647.59765625 388.663085938 c 0
 650.577148438 414.474609375 656.533203125 427.380859375 665.467773438 427.380859375 c 0
 672.416992188 427.380859375 677.1328125 421.920898438 679.615234375 411 c 0
 682.096679688 400.576171875 683.833984375 388.911132812 684.827148438 376.004882812 c 0
 685.8203125 363.099609375 686.31640625 351.185546875 686.31640625 340.265625 c 0
 686.811523438 329.345703125 687.060546875 322.396484375 687.060546875 319.41796875 c 0
 687.060546875 286.657226562 687.987304688 283.357421875 683.0234375 263.999023438 c 0
 678.555664062 244.639648438 666.467773438 230.484375 651.577148438 221.052734375 c 0
 637.181640625 211.125 615.092773438 204.17578125 585.309570312 200.205078125 c 0
 557.015625 196.73046875 527.977539062 194 498.1953125 192.014648438 c 0
 468.412109375 190.029296875 401.622070312 189.036132812 373.825195312 189.036132812 c 0
 330.639648438 189.036132812 294.404296875 190.526367188 265.1171875 193.50390625 c 0
 235.831054688 196.482421875 212.004882812 202.686523438 193.638671875 212.118164062 c 0
 175.768554688 221.052734375 166.86328125 234.20703125 158.920898438 251.580078125 c 0
 150.978515625 269.450195312 147.0078125 292.780273438 147.0078125 321.5703125 c 2
 148.190429688 440.126953125 l 1
 82.40234375 429.296875 l 2
 76.619140625 428.333984375 71.3173828125 427.372070312 66.498046875 426.409179688 c 0
 62.16015625 425.927734375 58.0634765625 425.686523438 54.2080078125 425.686523438 c 0
 46.978515625 425.686523438 40.4716796875 428.09375 34.6884765625 432.907226562 c 0
 28.904296875 437.719726562 24.326171875 442.534179688 20.9521484375 447.346679688 c 0
 18.060546875 452.161132812 16.3740234375 455.048828125 15.8916015625 456.01171875 c 0
 13.9638671875 459.86328125 13 462.750976562 13 464.67578125 c 0
 13 470.452148438 16.3740234375 473.33984375 23.12109375 473.33984375 c 2
 35.4111328125 473.33984375 l 2
 45.5322265625 473.33984375 54.9306640625 474.061523438 63.6064453125 475.505859375 c 2
 148.913085938 489.224609375 l 1
 151.08203125 643.026367188 l 1
 138.791992188 638.694335938 l 2
 130.598632812 636.287109375 120.959960938 633.399414062 109.874023438 630.030273438 c 0
 99.271484375 627.141601562 88.9091796875 624.494140625 78.7880859375 622.087890625 c 0
 69.1484375 620.162109375 61.1962890625 619.200195312 54.9306640625 619.200195312 c 0
 43.845703125 619.200195312 38.302734375 622.569335938 38.302734375 629.307617188 c 0
 38.302734375 636.046875 45.05078125 642.064453125 58.5458984375 647.359375 c 0
 88.4267578125 658.911132812 118.549804688 672.62890625 148.913085938 688.513671875 c 0
 179.758789062 704.879882812 206.026367188 721.245117188 227.713867188 737.611328125 c 0
 236.872070312 744.350585938 242.896484375 752.291992188 245.788085938 761.4375 c 0
 248.198242188 767.6953125 252.53515625 770.82421875 258.80078125 770.82421875 c 0
 264.583984375 770.82421875 270.609375 767.6953125 276.874023438 761.4375 c 0
 283.622070312 755.662109375 289.1640625 749.1640625 293.501953125 741.943359375 c 0
 297.83984375 735.204101562 300.008789062 729.428710938 300.008789062 724.615234375 c 0
 300.008789062 720.282226562 294.224609375 714.265625 282.658203125 706.564453125 c 0
 271.573242188 699.34375 258.559570312 691.8828125 243.619140625 684.181640625 c 0
 229.16015625 676.48046875 215.90625 669.982421875 203.857421875 664.686523438 c 1
 203.133789062 497.888671875 l 1
 244.5078125 505.037109375 l 1
 244.5078125 505.037109375 258.17578125 508.533203125 262.99609375 510.940429688 c 0
 265.88671875 512.865234375 269.01953125 513.828125 272.393554688 513.828125 c 0
 276.25 513.828125 281.55078125 512.142578125 288.298828125 508.7734375 c 0
 295.045898438 505.884765625 301.552734375 501.793945312 307.818359375 496.499023438 c 0
 314.083984375 491.685546875 317.215820312 486.150390625 317.215820312 479.892578125 c 0
 317.215820312 471.227539062 310.951171875 465.693359375 298.419921875 463.286132812 c 2
 203.133789062 448.791992188 l 1
 203.318359375 334.971679688 l 2
 203.318359375 318.591796875 204.55859375 304.94140625 207.041015625 294.021484375 c 0
EndSplineSet
EndChar

StartChar: c_xTuo_n11
Encoding: 258 -1 2
Width: 1013
VWidth: -29
Flags: HW
LayerCount: 2
Fore
SplineSet
164.068359375 629.953125 m 1
 164.6953125 387.673828125 l 2
 164.6953125 373.890625 159.678710938 367 149.649414062 367 c 0
 143.796875 367 137.528320312 369.087890625 130.840820312 373.264648438 c 0
 123.318359375 377.44140625 117.466796875 381.618164062 113.287109375 385.793945312 c 0
 109.525390625 389.970703125 107.643554688 395.19140625 107.643554688 401.456054688 c 0
 107.643554688 402.291015625 107.643554688 403.543945312 107.643554688 405.21484375 c 0
 107.643554688 406.467773438 107.852539062 407.9296875 108.271484375 409.599609375 c 0
 109.525390625 415.865234375 110.5703125 421.920898438 111.40625 427.767578125 c 0
 112.2421875 433.615234375 112.66015625 439.670898438 112.66015625 445.935546875 c 2
 112.66015625 627.448242188 l 1
 60.1845703125 620.163085938 l 2
 56.8408203125 619.745117188 53.7060546875 619.536132812 50.7802734375 619.536132812 c 0
 47.85546875 619.536132812 45.34765625 619.536132812 43.2578125 619.536132812 c 0
 33.2265625 619.536132812 25.7041015625 621.20703125 20.6884765625 624.547851562 c 0
 13.1650390625 631.6484375 7.732421875 639.583007812 4.388671875 648.353515625 c 0
 1.462890625 657.541992188 0 662.762695312 0 664.015625 c 0
 0 669.028320312 2.5078125 671.534179688 7.5234375 671.534179688 c 0
 8.77734375 671.534179688 10.8662109375 671.116210938 13.7919921875 670.28125 c 0
 17.1357421875 669.028320312 20.8974609375 668.193359375 25.0771484375 667.775390625 c 0
 29.6748046875 667.357421875 34.0634765625 667.1484375 38.2421875 667.1484375 c 2
 45.765625 667.1484375 l 1
 112.66015625 675.059570312 l 1
 112.66015625 758.026367188 l 2
 112.66015625 762.620117188 112.2421875 766.796875 111.40625 770.555664062 c 0
 110.5703125 774.732421875 108.690429688 778.700195312 105.763671875 782.458984375 c 0
 103.255859375 786.217773438 102.001953125 789.349609375 102.001953125 791.85546875 c 0
 102.001953125 797.28515625 106.181640625 800 114.541015625 800 c 0
 120.391601562 800 128.541992188 798.538085938 138.991210938 795.614257812 c 0
 149.439453125 793.108398438 156.126953125 790.185546875 159.052734375 786.84375 c 0
 162.396484375 783.502929688 164.068359375 778.909179688 164.068359375 773.061523438 c 2
 164.068359375 677.56640625 l 1
 306.635742188 693.9765625 l 2
 315.831054688 694.39453125 323.981445312 695.857421875 331.0859375 698.362304688 c 0
 332.33984375 699.198242188 334.220703125 699.615234375 336.728515625 699.615234375 c 0
 342.162109375 699.615234375 348.012695312 697.52734375 354.283203125 693.350585938 c 0
 360.551757812 689.173828125 365.985351562 684.162109375 370.583007812 678.315429688 c 0
 375.59765625 672.885742188 378.106445312 667.874023438 378.106445312 663.280273438 c 0
 378.106445312 659.102539062 376.015625 655.76171875 371.836914062 653.255859375 c 0
 368.075195312 650.75 363.477539062 649.2890625 358.043945312 648.87109375 c 2
 164.068359375 629.953125 l 1
248.380859375 488.478515625 m 1
 235.841796875 488.478515625 l 2
 229.991210938 488.478515625 224.348632812 488.688476562 218.915039062 489.106445312 c 0
 213.900390625 489.94140625 209.928710938 492.030273438 207.00390625 495.37109375 c 0
 202.40625 500.3828125 198.2265625 506.23046875 194.46484375 512.912109375 c 0
 191.12109375 519.59375 189.450195312 525.44140625 189.450195312 530.453125 c 0
 189.450195312 535.046875 191.748046875 537.344726562 196.345703125 537.344726562 c 0
 198.017578125 537.344726562 199.48046875 537.135742188 200.734375 536.717773438 c 0
 208.674804688 533.793945312 216.825195312 532.333007812 225.18359375 532.333007812 c 2
 230.827148438 532.333007812 l 1
 324.784179688 541.318359375 l 2
 328.963867188 541.736328125 333.3515625 542.154296875 337.950195312 542.571289062 c 0
 342.96484375 543.407226562 347.561523438 544.659179688 351.7421875 546.330078125 c 0
 354.66796875 547.165039062 356.756835938 547.583007812 358.010742188 547.583007812 c 0
 363.86328125 547.583007812 369.713867188 545.077148438 375.565429688 540.065429688 c 0
 381.416992188 535.470703125 386.013671875 530.458984375 389.358398438 525.030273438 c 0
 393.119140625 519.599609375 395 515.423828125 395 512.5 c 0
 395 507.90625 393.119140625 504.565429688 389.358398438 502.4765625 c 0
 386.013671875 500.805664062 382.04296875 499.76171875 377.446289062 499.34375 c 2
 248.380859375 488.478515625 l 1
207.041015625 294.021484375 m 0
 210.018554688 283.596679688 216.471679688 274.91015625 226.400390625 267.9609375 c 0
 236.82421875 261.5078125 253.701171875 256.543945312 277.03125 253.0703125 c 0
 300.360351562 250.090820312 332.873046875 248.6015625 374.569335938 248.6015625 c 0
 400.380859375 248.6015625 464.44140625 249.346679688 490.749023438 250.8359375 c 0
 517.553710938 252.821289062 542.869140625 255.55078125 566.696289062 259.026367188 c 0
 583.573242188 262.00390625 596.23046875 264.983398438 604.668945312 267.9609375 c 0
 613.107421875 271.435546875 619.064453125 276.151367188 622.538085938 282.108398438 c 0
 626.508789062 288.560546875 628.5234375 291.999023438 633.0234375 302.999023438 c 0
 636.994140625 320.372070312 637.918945312 321.155273438 640.897460938 338.032226562 c 0
 643.875976562 354.909179688 646.109375 371.786132812 647.59765625 388.663085938 c 0
 650.577148438 414.474609375 656.533203125 427.380859375 665.467773438 427.380859375 c 0
 672.416992188 427.380859375 677.1328125 421.920898438 679.615234375 411 c 0
 682.096679688 400.576171875 683.833984375 388.911132812 684.827148438 376.004882812 c 0
 685.8203125 363.099609375 686.31640625 351.185546875 686.31640625 340.265625 c 0
 686.811523438 329.345703125 687.060546875 322.396484375 687.060546875 319.41796875 c 0
 687.060546875 286.657226562 687.987304688 283.357421875 683.0234375 263.999023438 c 0
 678.555664062 244.639648438 666.467773438 230.484375 651.577148438 221.052734375 c 0
 637.181640625 211.125 615.092773438 204.17578125 585.309570312 200.205078125 c 0
 557.015625 196.73046875 527.977539062 194 498.1953125 192.014648438 c 0
 468.412109375 190.029296875 401.622070312 189.036132812 373.825195312 189.036132812 c 0
 330.639648438 189.036132812 294.404296875 190.526367188 265.1171875 193.50390625 c 0
 235.831054688 196.482421875 212.004882812 202.686523438 193.638671875 212.118164062 c 0
 175.768554688 221.052734375 166.86328125 234.20703125 158.920898438 251.580078125 c 0
 150.978515625 269.450195312 147.0078125 292.780273438 147.0078125 321.5703125 c 2
 148.190429688 440.126953125 l 1
 82.40234375 429.296875 l 2
 76.619140625 428.333984375 71.3173828125 427.372070312 66.498046875 426.409179688 c 0
 62.16015625 425.927734375 58.0634765625 425.686523438 54.2080078125 425.686523438 c 0
 46.978515625 425.686523438 40.4716796875 428.09375 34.6884765625 432.907226562 c 0
 28.904296875 437.719726562 24.326171875 442.534179688 20.9521484375 447.346679688 c 0
 18.060546875 452.161132812 16.3740234375 455.048828125 15.8916015625 456.01171875 c 0
 13.9638671875 459.86328125 13 462.750976562 13 464.67578125 c 0
 13 470.452148438 16.3740234375 473.33984375 23.12109375 473.33984375 c 2
 35.4111328125 473.33984375 l 2
 45.5322265625 473.33984375 54.9306640625 474.061523438 63.6064453125 475.505859375 c 2
 148.913085938 489.224609375 l 1
 151.08203125 643.026367188 l 1
 138.791992188 638.694335938 l 2
 130.598632812 636.287109375 120.959960938 633.399414062 109.874023438 630.030273438 c 0
 99.271484375 627.141601562 88.9091796875 624.494140625 78.7880859375 622.087890625 c 0
 69.1484375 620.162109375 61.1962890625 619.200195312 54.9306640625 619.200195312 c 0
 43.845703125 619.200195312 38.302734375 622.569335938 38.302734375 629.307617188 c 0
 38.302734375 636.046875 45.05078125 642.064453125 58.5458984375 647.359375 c 0
 88.4267578125 658.911132812 118.549804688 672.62890625 148.913085938 688.513671875 c 0
 179.758789062 704.879882812 206.026367188 721.245117188 227.713867188 737.611328125 c 0
 236.872070312 744.350585938 242.896484375 752.291992188 245.788085938 761.4375 c 0
 248.198242188 767.6953125 252.53515625 770.82421875 258.80078125 770.82421875 c 0
 264.583984375 770.82421875 270.609375 767.6953125 276.874023438 761.4375 c 0
 283.622070312 755.662109375 289.1640625 749.1640625 293.501953125 741.943359375 c 0
 297.83984375 735.204101562 300.008789062 729.428710938 300.008789062 724.615234375 c 0
 300.008789062 720.282226562 294.224609375 714.265625 282.658203125 706.564453125 c 0
 271.573242188 699.34375 258.559570312 691.8828125 243.619140625 684.181640625 c 0
 229.16015625 676.48046875 215.90625 669.982421875 203.857421875 664.686523438 c 1
 203.133789062 497.888671875 l 1
 244.5078125 505.037109375 l 1
 244.5078125 505.037109375 258.17578125 508.533203125 262.99609375 510.940429688 c 0
 265.88671875 512.865234375 269.01953125 513.828125 272.393554688 513.828125 c 0
 276.25 513.828125 281.55078125 512.142578125 288.298828125 508.7734375 c 0
 295.045898438 505.884765625 301.552734375 501.793945312 307.818359375 496.499023438 c 0
 314.083984375 491.685546875 317.215820312 486.150390625 317.215820312 479.892578125 c 0
 317.215820312 471.227539062 310.951171875 465.693359375 298.419921875 463.286132812 c 2
 203.133789062 448.791992188 l 1
 203.318359375 334.971679688 l 2
 203.318359375 318.591796875 204.55859375 304.94140625 207.041015625 294.021484375 c 0
EndSplineSet
EndChar

StartChar: c_xTuo_n12
Encoding: 259 -1 3
Width: 1013
VWidth: -29
Flags: HW
LayerCount: 2
Fore
SplineSet
163.951171875 629.953125 m 1
 164.578125 387.673828125 l 2
 164.578125 373.890625 159.56640625 367 149.541992188 367 c 0
 143.6953125 367 137.430664062 369.087890625 130.748046875 373.264648438 c 0
 123.23046875 377.44140625 117.3828125 381.618164062 113.20703125 385.793945312 c 0
 109.448242188 389.970703125 107.568359375 395.19140625 107.568359375 401.456054688 c 0
 107.568359375 402.291015625 107.568359375 403.543945312 107.568359375 405.21484375 c 0
 107.568359375 406.467773438 107.77734375 407.9296875 108.1953125 409.599609375 c 0
 109.448242188 415.865234375 110.4921875 421.920898438 111.327148438 427.767578125 c 0
 112.162109375 433.615234375 112.580078125 439.670898438 112.580078125 445.935546875 c 2
 112.580078125 627.448242188 l 1
 60.142578125 620.163085938 l 2
 56.80078125 619.745117188 53.66796875 619.536132812 50.7451171875 619.536132812 c 0
 47.8212890625 619.536132812 45.3154296875 619.536132812 43.2265625 619.536132812 c 0
 33.203125 619.536132812 25.685546875 621.20703125 20.673828125 624.547851562 c 0
 13.15625 631.6484375 7.7265625 639.583007812 4.3857421875 648.353515625 c 0
 1.4619140625 657.541992188 0 662.762695312 0 664.015625 c 0
 0 669.028320312 2.505859375 671.534179688 7.517578125 671.534179688 c 0
 8.7705078125 671.534179688 10.8583984375 671.116210938 13.7822265625 670.28125 c 0
 17.123046875 669.028320312 20.8828125 668.193359375 25.0595703125 667.775390625 c 0
 29.6533203125 667.357421875 34.0390625 667.1484375 38.2158203125 667.1484375 c 2
 45.7333984375 667.1484375 l 1
 112.580078125 675.059570312 l 1
 112.580078125 758.026367188 l 2
 112.580078125 762.620117188 112.162109375 766.796875 111.327148438 770.555664062 c 0
 110.4921875 774.732421875 108.612304688 778.700195312 105.689453125 782.458984375 c 0
 103.182617188 786.217773438 101.9296875 789.349609375 101.9296875 791.85546875 c 0
 101.9296875 797.28515625 106.106445312 800 114.459960938 800 c 0
 120.306640625 800 128.451171875 798.538085938 138.891601562 795.614257812 c 0
 149.333007812 793.108398438 156.015625 790.185546875 158.940429688 786.84375 c 0
 162.28125 783.502929688 163.951171875 778.909179688 163.951171875 773.061523438 c 2
 163.951171875 677.56640625 l 1
 306.418945312 693.9765625 l 2
 315.607421875 694.39453125 323.750976562 695.857421875 330.850585938 698.362304688 c 0
 332.103515625 699.198242188 333.984375 699.615234375 336.490234375 699.615234375 c 0
 341.918945312 699.615234375 347.765625 697.52734375 354.03125 693.350585938 c 0
 360.295898438 689.173828125 365.725585938 684.162109375 370.3203125 678.315429688 c 0
 375.33203125 672.885742188 377.837890625 667.874023438 377.837890625 663.280273438 c 0
 377.837890625 659.102539062 375.75 655.76171875 371.573242188 653.255859375 c 0
 367.814453125 650.75 363.219726562 649.2890625 357.790039062 648.87109375 c 2
 163.951171875 629.953125 l 1
227.916015625 423 m 1
 221.706054688 423 l 2
 213.977539062 423 207.353515625 424.850585938 201.833984375 428.551757812 c 0
 196.58984375 432.252929688 192.450195312 441.875976562 189.4140625 457.420898438 c 0
 189.4140625 458.161132812 189.276367188 458.715820312 189 459.0859375 c 0
 189 459.456054688 189 460.01171875 189 460.751953125 c 0
 189 464.823242188 190.517578125 466.859375 193.553710938 466.859375 c 0
 194.658203125 466.859375 195.624023438 466.673828125 196.452148438 466.302734375 c 0
 199.48828125 464.823242188 202.385742188 463.712890625 205.146484375 462.971679688 c 0
 207.90625 462.232421875 210.666015625 461.862304688 213.42578125 461.862304688 c 2
 216.32421875 461.862304688 l 1
 349.631835938 469.079101562 l 2
 352.391601562 469.44921875 355.290039062 469.8203125 358.326171875 470.190429688 c 0
 361.637695312 470.9296875 364.673828125 472.040039062 367.43359375 473.521484375 c 0
 369.366210938 474.260742188 371.022460938 474.630859375 372.40234375 474.630859375 c 0
 375.713867188 474.630859375 379.026367188 472.780273438 382.337890625 469.079101562 c 0
 385.92578125 465.377929688 389.099609375 461.122070312 391.860351562 456.309570312 c 0
 394.620117188 451.499023438 396 447.243164062 396 443.541015625 c 0
 396 439.469726562 394.7578125 436.508789062 392.274414062 434.659179688 c 0
 390.06640625 433.177734375 387.444335938 432.252929688 384.408203125 431.8828125 c 2
 227.916015625 423 l 1
251.513671875 534.58984375 m 2
 250.133789062 534.219726562 248.616210938 534.034179688 246.959960938 534.034179688 c 0
 245.580078125 534.034179688 244.200195312 534.034179688 242.8203125 534.034179688 c 0
 235.368164062 534.034179688 229.158203125 536.0703125 224.190429688 540.140625 c 0
 219.221679688 544.583007812 215.358398438 553.8359375 212.59765625 567.900390625 c 0
 212.59765625 568.639648438 212.459960938 569.1953125 212.18359375 569.56640625 c 0
 212.18359375 569.935546875 212.18359375 570.491210938 212.18359375 571.231445312 c 0
 212.18359375 575.301757812 213.702148438 577.337890625 216.73828125 577.337890625 c 0
 217.841796875 577.337890625 218.807617188 577.153320312 219.635742188 576.783203125 c 0
 224.879882812 574.192382812 230.26171875 572.897460938 235.782226562 572.897460938 c 2
 239.5078125 572.897460938 l 1
 311.958007812 579.002929688 l 2
 314.717773438 579.374023438 317.616210938 579.744140625 320.65234375 580.114257812 c 0
 323.963867188 580.853515625 327 581.963867188 329.759765625 583.4453125 c 0
 330.864257812 583.815429688 332.244140625 584 333.900390625 584 c 0
 336.66015625 584 339.971679688 582.333984375 343.8359375 579.002929688 c 0
 347.700195312 575.671875 351.150390625 571.600585938 354.185546875 566.790039062 c 0
 357.221679688 561.977539062 358.740234375 557.721679688 358.740234375 554.021484375 c 0
 358.740234375 549.94921875 357.498046875 547.173828125 355.013671875 545.693359375 c 0
 352.530273438 544.212890625 349.908203125 543.287109375 347.1484375 542.916992188 c 2
 251.513671875 534.58984375 l 2
207.041015625 294.021484375 m 0
 210.018554688 283.596679688 216.471679688 274.91015625 226.400390625 267.9609375 c 0
 236.82421875 261.5078125 253.701171875 256.543945312 277.03125 253.0703125 c 0
 300.360351562 250.090820312 332.873046875 248.6015625 374.569335938 248.6015625 c 0
 400.380859375 248.6015625 464.44140625 249.346679688 490.749023438 250.8359375 c 0
 517.553710938 252.821289062 542.869140625 255.55078125 566.696289062 259.026367188 c 0
 583.573242188 262.00390625 596.23046875 264.983398438 604.668945312 267.9609375 c 0
 613.107421875 271.435546875 619.064453125 276.151367188 622.538085938 282.108398438 c 0
 626.508789062 288.560546875 628.5234375 291.999023438 633.0234375 302.999023438 c 0
 636.994140625 320.372070312 637.918945312 321.155273438 640.897460938 338.032226562 c 0
 643.875976562 354.909179688 646.109375 371.786132812 647.59765625 388.663085938 c 0
 650.577148438 414.474609375 656.533203125 427.380859375 665.467773438 427.380859375 c 0
 672.416992188 427.380859375 677.1328125 421.920898438 679.615234375 411 c 0
 682.096679688 400.576171875 683.833984375 388.911132812 684.827148438 376.004882812 c 0
 685.8203125 363.099609375 686.31640625 351.185546875 686.31640625 340.265625 c 0
 686.811523438 329.345703125 687.060546875 322.396484375 687.060546875 319.41796875 c 0
 687.060546875 286.657226562 687.987304688 283.357421875 683.0234375 263.999023438 c 0
 678.555664062 244.639648438 666.467773438 230.484375 651.577148438 221.052734375 c 0
 637.181640625 211.125 615.092773438 204.17578125 585.309570312 200.205078125 c 0
 557.015625 196.73046875 527.977539062 194 498.1953125 192.014648438 c 0
 468.412109375 190.029296875 401.622070312 189.036132812 373.825195312 189.036132812 c 0
 330.639648438 189.036132812 294.404296875 190.526367188 265.1171875 193.50390625 c 0
 235.831054688 196.482421875 212.004882812 202.686523438 193.638671875 212.118164062 c 0
 175.768554688 221.052734375 166.86328125 234.20703125 158.920898438 251.580078125 c 0
 150.978515625 269.450195312 147.0078125 292.780273438 147.0078125 321.5703125 c 2
 148.190429688 440.126953125 l 1
 82.40234375 429.296875 l 2
 76.619140625 428.333984375 71.3173828125 427.372070312 66.498046875 426.409179688 c 0
 62.16015625 425.927734375 58.0634765625 425.686523438 54.2080078125 425.686523438 c 0
 46.978515625 425.686523438 40.4716796875 428.09375 34.6884765625 432.907226562 c 0
 28.904296875 437.719726562 24.326171875 442.534179688 20.9521484375 447.346679688 c 0
 18.060546875 452.161132812 16.3740234375 455.048828125 15.8916015625 456.01171875 c 0
 13.9638671875 459.86328125 13 462.750976562 13 464.67578125 c 0
 13 470.452148438 16.3740234375 473.33984375 23.12109375 473.33984375 c 2
 35.4111328125 473.33984375 l 2
 45.5322265625 473.33984375 54.9306640625 474.061523438 63.6064453125 475.505859375 c 2
 148.913085938 489.224609375 l 1
 151.08203125 643.026367188 l 1
 138.791992188 638.694335938 l 2
 130.598632812 636.287109375 120.959960938 633.399414062 109.874023438 630.030273438 c 0
 99.271484375 627.141601562 88.9091796875 624.494140625 78.7880859375 622.087890625 c 0
 69.1484375 620.162109375 61.1962890625 619.200195312 54.9306640625 619.200195312 c 0
 43.845703125 619.200195312 38.302734375 622.569335938 38.302734375 629.307617188 c 0
 38.302734375 636.046875 45.05078125 642.064453125 58.5458984375 647.359375 c 0
 88.4267578125 658.911132812 118.549804688 672.62890625 148.913085938 688.513671875 c 0
 179.758789062 704.879882812 206.026367188 721.245117188 227.713867188 737.611328125 c 0
 236.872070312 744.350585938 242.896484375 752.291992188 245.788085938 761.4375 c 0
 248.198242188 767.6953125 252.53515625 770.82421875 258.80078125 770.82421875 c 0
 264.583984375 770.82421875 270.609375 767.6953125 276.874023438 761.4375 c 0
 283.622070312 755.662109375 289.1640625 749.1640625 293.501953125 741.943359375 c 0
 297.83984375 735.204101562 300.008789062 729.428710938 300.008789062 724.615234375 c 0
 300.008789062 720.282226562 294.224609375 714.265625 282.658203125 706.564453125 c 0
 271.573242188 699.34375 258.559570312 691.8828125 243.619140625 684.181640625 c 0
 229.16015625 676.48046875 215.90625 669.982421875 203.857421875 664.686523438 c 1
 203.133789062 497.888671875 l 1
 244.5078125 505.037109375 l 1
 244.5078125 505.037109375 258.17578125 508.533203125 262.99609375 510.940429688 c 0
 265.88671875 512.865234375 269.01953125 513.828125 272.393554688 513.828125 c 0
 276.25 513.828125 281.55078125 512.142578125 288.298828125 508.7734375 c 0
 295.045898438 505.884765625 301.552734375 501.793945312 307.818359375 496.499023438 c 0
 314.083984375 491.685546875 317.215820312 486.150390625 317.215820312 479.892578125 c 0
 317.215820312 471.227539062 310.951171875 465.693359375 298.419921875 463.286132812 c 2
 203.133789062 448.791992188 l 1
 203.318359375 334.971679688 l 2
 203.318359375 318.591796875 204.55859375 304.94140625 207.041015625 294.021484375 c 0
EndSplineSet
EndChar

StartChar: c_xTuo_n13
Encoding: 260 -1 4
Width: 1013
VWidth: -29
Flags: HW
LayerCount: 2
Fore
SplineSet
164.068359375 629.953125 m 1
 164.6953125 387.673828125 l 2
 164.6953125 373.890625 159.678710938 367 149.649414062 367 c 0
 143.796875 367 137.528320312 369.087890625 130.840820312 373.264648438 c 0
 123.318359375 377.44140625 117.466796875 381.618164062 113.287109375 385.793945312 c 0
 109.525390625 389.970703125 107.643554688 395.19140625 107.643554688 401.456054688 c 0
 107.643554688 402.291015625 107.643554688 403.543945312 107.643554688 405.21484375 c 0
 107.643554688 406.467773438 107.852539062 407.9296875 108.271484375 409.599609375 c 0
 109.525390625 415.865234375 110.5703125 421.920898438 111.40625 427.767578125 c 0
 112.2421875 433.615234375 112.66015625 439.670898438 112.66015625 445.935546875 c 2
 112.66015625 627.448242188 l 1
 60.1845703125 620.163085938 l 2
 56.8408203125 619.745117188 53.7060546875 619.536132812 50.7802734375 619.536132812 c 0
 47.85546875 619.536132812 45.34765625 619.536132812 43.2578125 619.536132812 c 0
 33.2265625 619.536132812 25.7041015625 621.20703125 20.6884765625 624.547851562 c 0
 13.1650390625 631.6484375 7.732421875 639.583007812 4.388671875 648.353515625 c 0
 1.462890625 657.541992188 0 662.762695312 0 664.015625 c 0
 0 669.028320312 2.5078125 671.534179688 7.5234375 671.534179688 c 0
 8.77734375 671.534179688 10.8662109375 671.116210938 13.7919921875 670.28125 c 0
 17.1357421875 669.028320312 20.8974609375 668.193359375 25.0771484375 667.775390625 c 0
 29.6748046875 667.357421875 34.0634765625 667.1484375 38.2421875 667.1484375 c 2
 45.765625 667.1484375 l 1
 112.66015625 675.059570312 l 1
 112.66015625 758.026367188 l 2
 112.66015625 762.620117188 112.2421875 766.796875 111.40625 770.555664062 c 0
 110.5703125 774.732421875 108.690429688 778.700195312 105.763671875 782.458984375 c 0
 103.255859375 786.217773438 102.001953125 789.349609375 102.001953125 791.85546875 c 0
 102.001953125 797.28515625 106.181640625 800 114.541015625 800 c 0
 120.391601562 800 128.541992188 798.538085938 138.991210938 795.614257812 c 0
 149.439453125 793.108398438 156.126953125 790.185546875 159.052734375 786.84375 c 0
 162.396484375 783.502929688 164.068359375 778.909179688 164.068359375 773.061523438 c 2
 164.068359375 677.56640625 l 1
 306.635742188 693.9765625 l 2
 315.831054688 694.39453125 323.981445312 695.857421875 331.0859375 698.362304688 c 0
 332.33984375 699.198242188 334.220703125 699.615234375 336.728515625 699.615234375 c 0
 342.162109375 699.615234375 348.012695312 697.52734375 354.283203125 693.350585938 c 0
 360.551757812 689.173828125 365.985351562 684.162109375 370.583007812 678.315429688 c 0
 375.59765625 672.885742188 378.106445312 667.874023438 378.106445312 663.280273438 c 0
 378.106445312 659.102539062 376.015625 655.76171875 371.836914062 653.255859375 c 0
 368.075195312 650.75 363.477539062 649.2890625 358.043945312 648.87109375 c 2
 164.068359375 629.953125 l 1
213.649414062 406.5078125 m 2
 211.666992188 406.5078125 209.684570312 406.338867188 207.703125 406 c 0
 205.720703125 406 203.879882812 406 202.180664062 406 c 0
 194.537109375 406 188.732421875 408.708007812 184.767578125 414.124023438 c 0
 181.087890625 419.541015625 178.3984375 424.788085938 176.69921875 429.865234375 c 2
 175 437.990234375 l 2
 175 442.389648438 176.69921875 444.590820312 180.095703125 444.590820312 c 0
 180.946289062 444.590820312 181.654296875 444.420898438 182.219726562 444.083007812 c 0
 183.069335938 444.083007812 183.918945312 443.9140625 184.767578125 443.575195312 c 0
 190.713867188 441.8828125 196.518554688 441.036132812 202.180664062 441.036132812 c 2
 206.00390625 441.036132812 l 1
 346.158203125 448.653320312 l 2
 349.555664062 448.991210938 352.670898438 449.330078125 355.501953125 449.66796875 c 0
 358.333007812 450.344726562 361.305664062 451.361328125 364.420898438 452.71484375 c 0
 365.552734375 453.053710938 366.96875 453.22265625 368.66796875 453.22265625 c 0
 371.499023438 453.22265625 374.897460938 451.700195312 378.861328125 448.653320312 c 0
 383.108398438 445.606445312 386.7890625 441.8828125 389.904296875 437.482421875 c 0
 393.30078125 433.081054688 395 429.188476562 395 425.802734375 c 0
 395 422.079101562 393.583984375 419.541015625 390.752929688 418.186523438 c 0
 387.920898438 416.83203125 384.94921875 415.986328125 381.833984375 415.6484375 c 2
 213.649414062 406.5078125 l 2
251.873046875 485.719726562 m 2
 249.890625 485.719726562 247.909179688 485.55078125 245.926757812 485.211914062 c 0
 243.9453125 485.211914062 242.103515625 485.211914062 240.405273438 485.211914062 c 0
 232.760742188 485.211914062 226.956054688 487.750976562 222.9921875 492.829101562 c 0
 219.310546875 497.907226562 216.762695312 502.984375 215.34765625 508.061523438 c 0
 213.931640625 513.477539062 213.223632812 516.525390625 213.223632812 517.202148438 c 0
 213.223632812 521.263671875 214.922851562 523.294921875 218.3203125 523.294921875 c 0
 219.169921875 523.294921875 219.877929688 523.125976562 220.444335938 522.788085938 c 0
 221.29296875 522.788085938 222.142578125 522.618164062 222.9921875 522.280273438 c 0
 225.541015625 521.602539062 228.23046875 520.92578125 231.061523438 520.249023438 c 0
 233.892578125 519.91015625 236.866210938 519.741210938 239.981445312 519.741210938 c 2
 243.802734375 519.741210938 l 1
 301.98828125 523.802734375 l 2
 305.668945312 524.141601562 308.924804688 524.48046875 311.756835938 524.819335938 c 0
 314.587890625 525.49609375 317.419921875 526.510742188 320.250976562 527.865234375 c 0
 321.383789062 528.204101562 322.798828125 528.373046875 324.498046875 528.373046875 c 0
 327.045898438 528.373046875 330.301757812 526.6796875 334.265625 523.294921875 c 0
 338.23046875 520.249023438 341.911132812 516.694335938 345.30859375 512.631835938 c 0
 348.990234375 508.5703125 350.830078125 504.676757812 350.830078125 500.953125 c 0
 350.830078125 496.890625 349.4140625 494.3515625 346.583007812 493.336914062 c 0
 343.751953125 492.66015625 340.63671875 492.15234375 337.239257812 491.813476562 c 2
 251.873046875 485.719726562 l 2
237.0078125 556.807617188 m 2
 234.743164062 556.469726562 232.619140625 556.30078125 230.63671875 556.30078125 c 0
 228.938476562 556.30078125 227.239257812 556.30078125 225.541015625 556.30078125 c 0
 219.310546875 556.30078125 215.064453125 557.485351562 212.798828125 559.85546875 c 0
 210.534179688 562.224609375 207.419921875 565.948242188 203.456054688 571.026367188 c 0
 199.775390625 576.103515625 197.93359375 581.858398438 197.93359375 588.290039062 c 0
 197.93359375 592.3515625 199.6328125 594.3828125 203.03125 594.3828125 c 0
 203.879882812 594.3828125 204.587890625 594.213867188 205.154296875 593.875976562 c 0
 206.00390625 593.875976562 206.852539062 593.706054688 207.703125 593.368164062 c 0
 210.250976562 592.69140625 212.94140625 592.013671875 215.772460938 591.336914062 c 0
 218.603515625 590.998046875 221.577148438 590.829101562 224.69140625 590.829101562 c 2
 228.512695312 590.829101562 l 1
 318.126953125 597.4296875 l 2
 321.807617188 597.768554688 325.064453125 598.107421875 327.896484375 598.446289062 c 0
 330.7265625 599.123046875 333.55859375 600.137695312 336.389648438 601.4921875 c 0
 337.5234375 601.831054688 338.938476562 602 340.63671875 602 c 0
 343.184570312 602 346.44140625 600.306640625 350.405273438 596.921875 c 0
 354.369140625 593.875976562 358.049804688 590.321289062 361.448242188 586.258789062 c 0
 365.12890625 582.197265625 366.96875 578.303710938 366.96875 574.580078125 c 0
 366.96875 570.517578125 365.552734375 567.978515625 362.721679688 566.963867188 c 0
 359.890625 566.287109375 356.776367188 565.779296875 353.377929688 565.440429688 c 2
 237.0078125 556.807617188 l 2
207.041015625 294.021484375 m 0
 210.018554688 283.596679688 216.471679688 274.91015625 226.400390625 267.9609375 c 0
 236.82421875 261.5078125 253.701171875 256.543945312 277.03125 253.0703125 c 0
 300.360351562 250.090820312 332.873046875 248.6015625 374.569335938 248.6015625 c 0
 400.380859375 248.6015625 464.44140625 249.346679688 490.749023438 250.8359375 c 0
 517.553710938 252.821289062 542.869140625 255.55078125 566.696289062 259.026367188 c 0
 583.573242188 262.00390625 596.23046875 264.983398438 604.668945312 267.9609375 c 0
 613.107421875 271.435546875 619.064453125 276.151367188 622.538085938 282.108398438 c 0
 626.508789062 288.560546875 628.5234375 291.999023438 633.0234375 302.999023438 c 0
 636.994140625 320.372070312 637.918945312 321.155273438 640.897460938 338.032226562 c 0
 643.875976562 354.909179688 646.109375 371.786132812 647.59765625 388.663085938 c 0
 650.577148438 414.474609375 656.533203125 427.380859375 665.467773438 427.380859375 c 0
 672.416992188 427.380859375 677.1328125 421.920898438 679.615234375 411 c 0
 682.096679688 400.576171875 683.833984375 388.911132812 684.827148438 376.004882812 c 0
 685.8203125 363.099609375 686.31640625 351.185546875 686.31640625 340.265625 c 0
 686.811523438 329.345703125 687.060546875 322.396484375 687.060546875 319.41796875 c 0
 687.060546875 286.657226562 687.987304688 283.357421875 683.0234375 263.999023438 c 0
 678.555664062 244.639648438 666.467773438 230.484375 651.577148438 221.052734375 c 0
 637.181640625 211.125 615.092773438 204.17578125 585.309570312 200.205078125 c 0
 557.015625 196.73046875 527.977539062 194 498.1953125 192.014648438 c 0
 468.412109375 190.029296875 401.622070312 189.036132812 373.825195312 189.036132812 c 0
 330.639648438 189.036132812 294.404296875 190.526367188 265.1171875 193.50390625 c 0
 235.831054688 196.482421875 212.004882812 202.686523438 193.638671875 212.118164062 c 0
 175.768554688 221.052734375 166.86328125 234.20703125 158.920898438 251.580078125 c 0
 150.978515625 269.450195312 147.0078125 292.780273438 147.0078125 321.5703125 c 2
 148.190429688 440.126953125 l 1
 82.40234375 429.296875 l 2
 76.619140625 428.333984375 71.3173828125 427.372070312 66.498046875 426.409179688 c 0
 62.16015625 425.927734375 58.0634765625 425.686523438 54.2080078125 425.686523438 c 0
 46.978515625 425.686523438 40.4716796875 428.09375 34.6884765625 432.907226562 c 0
 28.904296875 437.719726562 24.326171875 442.534179688 20.9521484375 447.346679688 c 0
 18.060546875 452.161132812 16.3740234375 455.048828125 15.8916015625 456.01171875 c 0
 13.9638671875 459.86328125 13 462.750976562 13 464.67578125 c 0
 13 470.452148438 16.3740234375 473.33984375 23.12109375 473.33984375 c 2
 35.4111328125 473.33984375 l 2
 45.5322265625 473.33984375 54.9306640625 474.061523438 63.6064453125 475.505859375 c 2
 148.913085938 489.224609375 l 1
 151.08203125 643.026367188 l 1
 138.791992188 638.694335938 l 2
 130.598632812 636.287109375 120.959960938 633.399414062 109.874023438 630.030273438 c 0
 99.271484375 627.141601562 88.9091796875 624.494140625 78.7880859375 622.087890625 c 0
 69.1484375 620.162109375 61.1962890625 619.200195312 54.9306640625 619.200195312 c 0
 43.845703125 619.200195312 38.302734375 622.569335938 38.302734375 629.307617188 c 0
 38.302734375 636.046875 45.05078125 642.064453125 58.5458984375 647.359375 c 0
 88.4267578125 658.911132812 118.549804688 672.62890625 148.913085938 688.513671875 c 0
 179.758789062 704.879882812 206.026367188 721.245117188 227.713867188 737.611328125 c 0
 236.872070312 744.350585938 242.896484375 752.291992188 245.788085938 761.4375 c 0
 248.198242188 767.6953125 252.53515625 770.82421875 258.80078125 770.82421875 c 0
 264.583984375 770.82421875 270.609375 767.6953125 276.874023438 761.4375 c 0
 283.622070312 755.662109375 289.1640625 749.1640625 293.501953125 741.943359375 c 0
 297.83984375 735.204101562 300.008789062 729.428710938 300.008789062 724.615234375 c 0
 300.008789062 720.282226562 294.224609375 714.265625 282.658203125 706.564453125 c 0
 271.573242188 699.34375 258.559570312 691.8828125 243.619140625 684.181640625 c 0
 229.16015625 676.48046875 215.90625 669.982421875 203.857421875 664.686523438 c 1
 203.133789062 497.888671875 l 1
 244.5078125 505.037109375 l 1
 244.5078125 505.037109375 258.17578125 508.533203125 262.99609375 510.940429688 c 0
 265.88671875 512.865234375 269.01953125 513.828125 272.393554688 513.828125 c 0
 276.25 513.828125 281.55078125 512.142578125 288.298828125 508.7734375 c 0
 295.045898438 505.884765625 301.552734375 501.793945312 307.818359375 496.499023438 c 0
 314.083984375 491.685546875 317.215820312 486.150390625 317.215820312 479.892578125 c 0
 317.215820312 471.227539062 310.951171875 465.693359375 298.419921875 463.286132812 c 2
 203.133789062 448.791992188 l 1
 203.318359375 334.971679688 l 2
 203.318359375 318.591796875 204.55859375 304.94140625 207.041015625 294.021484375 c 0
EndSplineSet
EndChar

StartChar: c_xTuo_n14
Encoding: 261 -1 5
Width: 1013
VWidth: -29
Flags: HW
LayerCount: 2
Fore
SplineSet
5.2119140625 389.030273438 m 0
 5.2119140625 393.994140625 5.9560546875 400.19921875 7.4453125 407.643554688 c 0
 9.4306640625 415.5859375 11.1689453125 571.665039062 12.6572265625 747.879882812 c 0
 12.6572265625 760.290039062 9.4306640625 770.713867188 2.978515625 779.15234375 c 0
 0.9921875 783.123046875 0 786.1015625 0 788.086914062 c 0
 0 796.029296875 4.71484375 800 14.146484375 800 c 0
 21.095703125 800 29.7822265625 797.766601562 40.2060546875 793.298828125 c 0
 51.126953125 788.831054688 58.076171875 784.860351562 61.0546875 781.385742188 c 0
 64.529296875 778.407226562 66.2666015625 773.69140625 66.2666015625 767.239257812 c 2
 65.5224609375 660.189453125 l 2
 65.5224609375 659.196289062 68.00390625 658.700195312 72.9677734375 658.700195312 c 0
 78.427734375 658.700195312 97.787109375 648.772460938 131.043945312 628.916992188 c 0
 207.983398438 583.747070312 246.453125 555.205078125 246.453125 543.291992188 c 0
 246.453125 536.341796875 243.225585938 528.897460938 236.7734375 520.954101562 c 0
 230.817382812 513.01171875 225.108398438 509.041015625 219.6484375 509.041015625 c 0
 214.188476562 509.041015625 207.983398438 511.5234375 201.034179688 516.487304688 c 0
 153.380859375 553.715820312 108.2109375 584.243164062 65.5224609375 608.069335938 c 1
 64.0322265625 383.073242188 l 2
 64.0322265625 368.181640625 58.572265625 360.736328125 47.65234375 360.736328125 c 0
 36.732421875 360.736328125 26.8046875 363.962890625 17.869140625 370.416015625 c 0
 9.4306640625 376.869140625 5.2119140625 383.073242188 5.2119140625 389.030273438 c 0
207.041015625 294.021484375 m 0
 210.018554688 283.596679688 216.471679688 274.91015625 226.400390625 267.9609375 c 0
 236.82421875 261.5078125 253.701171875 256.543945312 277.03125 253.0703125 c 0
 300.360351562 250.090820312 332.873046875 248.6015625 374.569335938 248.6015625 c 0
 400.380859375 248.6015625 464.44140625 249.346679688 490.749023438 250.8359375 c 0
 517.553710938 252.821289062 542.869140625 255.55078125 566.696289062 259.026367188 c 0
 583.573242188 262.00390625 596.23046875 264.983398438 604.668945312 267.9609375 c 0
 613.107421875 271.435546875 619.064453125 276.151367188 622.538085938 282.108398438 c 0
 626.508789062 288.560546875 628.5234375 291.999023438 633.0234375 302.999023438 c 0
 636.994140625 320.372070312 637.918945312 321.155273438 640.897460938 338.032226562 c 0
 643.875976562 354.909179688 646.109375 371.786132812 647.59765625 388.663085938 c 0
 650.577148438 414.474609375 656.533203125 427.380859375 665.467773438 427.380859375 c 0
 672.416992188 427.380859375 677.1328125 421.920898438 679.615234375 411 c 0
 682.096679688 400.576171875 683.833984375 388.911132812 684.827148438 376.004882812 c 0
 685.8203125 363.099609375 686.31640625 351.185546875 686.31640625 340.265625 c 0
 686.811523438 329.345703125 687.060546875 322.396484375 687.060546875 319.41796875 c 0
 687.060546875 286.657226562 687.987304688 283.357421875 683.0234375 263.999023438 c 0
 678.555664062 244.639648438 666.467773438 230.484375 651.577148438 221.052734375 c 0
 637.181640625 211.125 615.092773438 204.17578125 585.309570312 200.205078125 c 0
 557.015625 196.73046875 527.977539062 194 498.1953125 192.014648438 c 0
 468.412109375 190.029296875 401.622070312 189.036132812 373.825195312 189.036132812 c 0
 330.639648438 189.036132812 294.404296875 190.526367188 265.1171875 193.50390625 c 0
 235.831054688 196.482421875 212.004882812 202.686523438 193.638671875 212.118164062 c 0
 175.768554688 221.052734375 166.86328125 234.20703125 158.920898438 251.580078125 c 0
 150.978515625 269.450195312 147.0078125 292.780273438 147.0078125 321.5703125 c 2
 148.190429688 440.126953125 l 1
 82.40234375 429.296875 l 2
 76.619140625 428.333984375 71.3173828125 427.372070312 66.498046875 426.409179688 c 0
 62.16015625 425.927734375 58.0634765625 425.686523438 54.2080078125 425.686523438 c 0
 46.978515625 425.686523438 40.4716796875 428.09375 34.6884765625 432.907226562 c 0
 28.904296875 437.719726562 24.326171875 442.534179688 20.9521484375 447.346679688 c 0
 18.060546875 452.161132812 16.3740234375 455.048828125 15.8916015625 456.01171875 c 0
 13.9638671875 459.86328125 13 462.750976562 13 464.67578125 c 0
 13 470.452148438 16.3740234375 473.33984375 23.12109375 473.33984375 c 2
 35.4111328125 473.33984375 l 2
 45.5322265625 473.33984375 54.9306640625 474.061523438 63.6064453125 475.505859375 c 2
 148.913085938 489.224609375 l 1
 151.08203125 643.026367188 l 1
 138.791992188 638.694335938 l 2
 130.598632812 636.287109375 120.959960938 633.399414062 109.874023438 630.030273438 c 0
 99.271484375 627.141601562 88.9091796875 624.494140625 78.7880859375 622.087890625 c 0
 69.1484375 620.162109375 61.1962890625 619.200195312 54.9306640625 619.200195312 c 0
 43.845703125 619.200195312 38.302734375 622.569335938 38.302734375 629.307617188 c 0
 38.302734375 636.046875 45.05078125 642.064453125 58.5458984375 647.359375 c 0
 88.4267578125 658.911132812 118.549804688 672.62890625 148.913085938 688.513671875 c 0
 179.758789062 704.879882812 206.026367188 721.245117188 227.713867188 737.611328125 c 0
 236.872070312 744.350585938 242.896484375 752.291992188 245.788085938 761.4375 c 0
 248.198242188 767.6953125 252.53515625 770.82421875 258.80078125 770.82421875 c 0
 264.583984375 770.82421875 270.609375 767.6953125 276.874023438 761.4375 c 0
 283.622070312 755.662109375 289.1640625 749.1640625 293.501953125 741.943359375 c 0
 297.83984375 735.204101562 300.008789062 729.428710938 300.008789062 724.615234375 c 0
 300.008789062 720.282226562 294.224609375 714.265625 282.658203125 706.564453125 c 0
 271.573242188 699.34375 258.559570312 691.8828125 243.619140625 684.181640625 c 0
 229.16015625 676.48046875 215.90625 669.982421875 203.857421875 664.686523438 c 1
 203.133789062 497.888671875 l 1
 244.5078125 505.037109375 l 1
 244.5078125 505.037109375 258.17578125 508.533203125 262.99609375 510.940429688 c 0
 265.88671875 512.865234375 269.01953125 513.828125 272.393554688 513.828125 c 0
 276.25 513.828125 281.55078125 512.142578125 288.298828125 508.7734375 c 0
 295.045898438 505.884765625 301.552734375 501.793945312 307.818359375 496.499023438 c 0
 314.083984375 491.685546875 317.215820312 486.150390625 317.215820312 479.892578125 c 0
 317.215820312 471.227539062 310.951171875 465.693359375 298.419921875 463.286132812 c 2
 203.133789062 448.791992188 l 1
 203.318359375 334.971679688 l 2
 203.318359375 318.591796875 204.55859375 304.94140625 207.041015625 294.021484375 c 0
EndSplineSet
EndChar

StartChar: c_xTuo_n2
Encoding: 262 -1 6
Width: 1013
VWidth: -29
Flags: HW
LayerCount: 2
Fore
SplineSet
69.9892578125 557.07421875 m 1
 58.8212890625 557.07421875 l 2
 44.9228515625 557.07421875 33.009765625 559.555664062 23.08203125 564.51953125 c 0
 13.650390625 569.484375 6.205078125 582.389648438 0.744140625 603.23828125 c 0
 0.744140625 604.231445312 0.49609375 604.974609375 0 605.471679688 c 0
 0 605.967773438 0 606.712890625 0 607.705078125 c 0
 0 613.165039062 2.73046875 615.896484375 8.1904296875 615.896484375 c 0
 10.17578125 615.896484375 11.9130859375 615.647460938 13.40234375 615.151367188 c 0
 18.8623046875 613.165039062 24.07421875 611.67578125 29.0380859375 610.68359375 c 0
 34.001953125 609.69140625 38.9658203125 609.194335938 43.9296875 609.194335938 c 2
 49.1416015625 609.194335938 l 1
 325.892578125 618.874023438 l 2
 330.857421875 619.370117188 336.069335938 619.8671875 341.530273438 620.36328125 c 0
 347.486328125 621.356445312 352.946289062 622.844726562 357.91015625 624.830078125 c 0
 361.384765625 625.823242188 364.36328125 626.3203125 366.844726562 626.3203125 c 0
 372.80078125 626.3203125 378.7578125 623.837890625 384.71484375 618.874023438 c 0
 391.16796875 613.91015625 396.875976562 608.202148438 401.83984375 601.749023438 c 0
 406.803710938 595.295898438 409.28515625 589.586914062 409.28515625 584.624023438 c 0
 409.28515625 579.163085938 407.051757812 575.192382812 402.583984375 572.709960938 c 0
 398.61328125 570.724609375 393.8984375 569.484375 388.438476562 568.98828125 c 2
 69.9892578125 557.07421875 l 1
133.4296875 733.733398438 m 2
 130.948242188 733.236328125 128.217773438 732.98828125 125.240234375 732.98828125 c 0
 122.7578125 732.98828125 120.276367188 732.98828125 117.793945312 732.98828125 c 0
 104.391601562 732.98828125 93.2236328125 735.71875 84.2890625 741.178710938 c 0
 75.353515625 747.135742188 68.404296875 759.544921875 63.4404296875 778.407226562 c 0
 63.4404296875 779.400390625 63.1923828125 780.14453125 62.6962890625 780.641601562 c 0
 62.6962890625 781.137695312 62.6962890625 781.881835938 62.6962890625 782.875 c 0
 62.6962890625 788.334960938 65.42578125 791.065429688 70.88671875 791.065429688 c 0
 72.8720703125 791.065429688 74.609375 790.817382812 76.0986328125 790.3203125 c 0
 85.529296875 786.845703125 95.208984375 785.108398438 105.13671875 785.108398438 c 2
 111.837890625 785.108398438 l 1
 252.137695312 793.298828125 l 2
 257.100585938 793.794921875 262.313476562 794.291992188 267.774414062 794.788085938 c 0
 273.73046875 795.780273438 279.190429688 797.26953125 284.154296875 799.255859375 c 0
 286.139648438 799.751953125 288.622070312 800 291.599609375 800 c 0
 296.564453125 800 302.51953125 797.766601562 309.469726562 793.298828125 c 0
 316.418945312 788.831054688 322.624023438 783.37109375 328.083984375 776.91796875 c 0
 333.543945312 770.465820312 336.274414062 764.756835938 336.274414062 759.79296875 c 0
 336.274414062 754.333007812 334.040039062 750.610351562 329.573242188 748.625 c 0
 325.106445312 746.638671875 320.389648438 745.3984375 315.42578125 744.901367188 c 2
 133.4296875 733.733398438 l 2
207.041015625 294.021484375 m 0
 210.018554688 283.596679688 216.471679688 274.91015625 226.400390625 267.9609375 c 0
 236.82421875 261.5078125 253.701171875 256.543945312 277.03125 253.0703125 c 0
 300.360351562 250.090820312 332.873046875 248.6015625 374.569335938 248.6015625 c 0
 400.380859375 248.6015625 464.44140625 249.346679688 490.749023438 250.8359375 c 0
 517.553710938 252.821289062 542.869140625 255.55078125 566.696289062 259.026367188 c 0
 583.573242188 262.00390625 596.23046875 264.983398438 604.668945312 267.9609375 c 0
 613.107421875 271.435546875 619.064453125 276.151367188 622.538085938 282.108398438 c 0
 626.508789062 288.560546875 628.5234375 291.999023438 633.0234375 302.999023438 c 0
 636.994140625 320.372070312 637.918945312 321.155273438 640.897460938 338.032226562 c 0
 643.875976562 354.909179688 646.109375 371.786132812 647.59765625 388.663085938 c 0
 650.577148438 414.474609375 656.533203125 427.380859375 665.467773438 427.380859375 c 0
 672.416992188 427.380859375 677.1328125 421.920898438 679.615234375 411 c 0
 682.096679688 400.576171875 683.833984375 388.911132812 684.827148438 376.004882812 c 0
 685.8203125 363.099609375 686.31640625 351.185546875 686.31640625 340.265625 c 0
 686.811523438 329.345703125 687.060546875 322.396484375 687.060546875 319.41796875 c 0
 687.060546875 286.657226562 687.987304688 283.357421875 683.0234375 263.999023438 c 0
 678.555664062 244.639648438 666.467773438 230.484375 651.577148438 221.052734375 c 0
 637.181640625 211.125 615.092773438 204.17578125 585.309570312 200.205078125 c 0
 557.015625 196.73046875 527.977539062 194 498.1953125 192.014648438 c 0
 468.412109375 190.029296875 401.622070312 189.036132812 373.825195312 189.036132812 c 0
 330.639648438 189.036132812 294.404296875 190.526367188 265.1171875 193.50390625 c 0
 235.831054688 196.482421875 212.004882812 202.686523438 193.638671875 212.118164062 c 0
 175.768554688 221.052734375 166.86328125 234.20703125 158.920898438 251.580078125 c 0
 150.978515625 269.450195312 147.0078125 292.780273438 147.0078125 321.5703125 c 2
 148.190429688 440.126953125 l 1
 82.40234375 429.296875 l 2
 76.619140625 428.333984375 71.3173828125 427.372070312 66.498046875 426.409179688 c 0
 62.16015625 425.927734375 58.0634765625 425.686523438 54.2080078125 425.686523438 c 0
 46.978515625 425.686523438 40.4716796875 428.09375 34.6884765625 432.907226562 c 0
 28.904296875 437.719726562 24.326171875 442.534179688 20.9521484375 447.346679688 c 0
 18.060546875 452.161132812 16.3740234375 455.048828125 15.8916015625 456.01171875 c 0
 13.9638671875 459.86328125 13 462.750976562 13 464.67578125 c 0
 13 470.452148438 16.3740234375 473.33984375 23.12109375 473.33984375 c 2
 35.4111328125 473.33984375 l 2
 45.5322265625 473.33984375 54.9306640625 474.061523438 63.6064453125 475.505859375 c 2
 148.913085938 489.224609375 l 1
 151.08203125 643.026367188 l 1
 138.791992188 638.694335938 l 2
 130.598632812 636.287109375 120.959960938 633.399414062 109.874023438 630.030273438 c 0
 99.271484375 627.141601562 88.9091796875 624.494140625 78.7880859375 622.087890625 c 0
 69.1484375 620.162109375 61.1962890625 619.200195312 54.9306640625 619.200195312 c 0
 43.845703125 619.200195312 38.302734375 622.569335938 38.302734375 629.307617188 c 0
 38.302734375 636.046875 45.05078125 642.064453125 58.5458984375 647.359375 c 0
 88.4267578125 658.911132812 118.549804688 672.62890625 148.913085938 688.513671875 c 0
 179.758789062 704.879882812 206.026367188 721.245117188 227.713867188 737.611328125 c 0
 236.872070312 744.350585938 242.896484375 752.291992188 245.788085938 761.4375 c 0
 248.198242188 767.6953125 252.53515625 770.82421875 258.80078125 770.82421875 c 0
 264.583984375 770.82421875 270.609375 767.6953125 276.874023438 761.4375 c 0
 283.622070312 755.662109375 289.1640625 749.1640625 293.501953125 741.943359375 c 0
 297.83984375 735.204101562 300.008789062 729.428710938 300.008789062 724.615234375 c 0
 300.008789062 720.282226562 294.224609375 714.265625 282.658203125 706.564453125 c 0
 271.573242188 699.34375 258.559570312 691.8828125 243.619140625 684.181640625 c 0
 229.16015625 676.48046875 215.90625 669.982421875 203.857421875 664.686523438 c 1
 203.133789062 497.888671875 l 1
 244.5078125 505.037109375 l 1
 244.5078125 505.037109375 258.17578125 508.533203125 262.99609375 510.940429688 c 0
 265.88671875 512.865234375 269.01953125 513.828125 272.393554688 513.828125 c 0
 276.25 513.828125 281.55078125 512.142578125 288.298828125 508.7734375 c 0
 295.045898438 505.884765625 301.552734375 501.793945312 307.818359375 496.499023438 c 0
 314.083984375 491.685546875 317.215820312 486.150390625 317.215820312 479.892578125 c 0
 317.215820312 471.227539062 310.951171875 465.693359375 298.419921875 463.286132812 c 2
 203.133789062 448.791992188 l 1
 203.318359375 334.971679688 l 2
 203.318359375 318.591796875 204.55859375 304.94140625 207.041015625 294.021484375 c 0
EndSplineSet
EndChar

StartChar: c_xTuo_n3
Encoding: 263 -1 7
Width: 1013
VWidth: -29
Flags: HW
LayerCount: 2
Fore
SplineSet
67.755859375 513.33984375 m 2
 64.28125 513.33984375 60.806640625 513.091796875 57.33203125 512.595703125 c 0
 53.857421875 512.595703125 50.630859375 512.595703125 47.65234375 512.595703125 c 0
 34.25 512.595703125 24.07421875 516.567382812 17.125 524.508789062 c 0
 10.671875 532.451171875 5.9560546875 540.14453125 2.978515625 547.590820312 c 2
 0 559.50390625 l 2
 0 565.95703125 2.978515625 569.182617188 8.9345703125 569.182617188 c 0
 10.423828125 569.182617188 11.6650390625 568.934570312 12.6572265625 568.438476562 c 0
 14.146484375 568.438476562 15.6357421875 568.190429688 17.125 567.694335938 c 0
 27.548828125 565.211914062 37.724609375 563.970703125 47.65234375 563.970703125 c 2
 54.353515625 563.970703125 l 1
 300.061523438 575.139648438 l 2
 306.018554688 575.635742188 311.478515625 576.131835938 316.443359375 576.62890625 c 0
 321.40625 577.622070312 326.618164062 579.111328125 332.078125 581.095703125 c 0
 334.064453125 581.592773438 336.545898438 581.840820312 339.524414062 581.840820312 c 0
 344.48828125 581.840820312 350.4453125 579.607421875 357.393554688 575.139648438 c 0
 364.83984375 570.671875 371.29296875 565.211914062 376.752929688 558.758789062 c 0
 382.708984375 552.305664062 385.688476562 546.59765625 385.688476562 541.633789062 c 0
 385.688476562 536.173828125 383.206054688 532.451171875 378.2421875 530.46484375 c 0
 373.278320312 528.48046875 368.06640625 527.239257812 362.606445312 526.743164062 c 2
 67.755859375 513.33984375 l 2
134.766601562 629.493164062 m 2
 131.29296875 629.493164062 127.818359375 629.245117188 124.342773438 628.749023438 c 0
 120.869140625 628.749023438 117.641601562 628.749023438 114.6640625 628.749023438 c 0
 101.260742188 628.749023438 91.0859375 632.471679688 84.13671875 639.916992188 c 0
 77.68359375 647.36328125 73.2158203125 654.80859375 70.734375 662.25390625 c 0
 68.251953125 670.196289062 67.01171875 674.6640625 67.01171875 675.657226562 c 0
 67.01171875 681.61328125 69.9892578125 684.591796875 75.9462890625 684.591796875 c 0
 77.435546875 684.591796875 78.67578125 684.342773438 79.6689453125 683.846679688 c 0
 81.158203125 683.846679688 82.6474609375 683.598632812 84.13671875 683.1015625 c 0
 88.603515625 682.110351562 93.3193359375 681.1171875 98.283203125 680.124023438 c 0
 103.247070312 679.627929688 108.458984375 679.379882812 113.918945312 679.379882812 c 2
 120.620117188 679.379882812 l 1
 222.626953125 685.3359375 l 2
 229.080078125 685.83203125 234.788085938 686.329101562 239.751953125 686.825195312 c 0
 244.715820312 687.818359375 249.678710938 689.306640625 254.642578125 691.29296875 c 0
 256.62890625 691.7890625 259.111328125 692.037109375 262.088867188 692.037109375 c 0
 266.555664062 692.037109375 272.264648438 689.5546875 279.213867188 684.591796875 c 0
 286.163085938 680.124023438 292.616210938 674.912109375 298.573242188 668.956054688 c 0
 305.026367188 662.999023438 308.251953125 657.291015625 308.251953125 651.830078125 c 0
 308.251953125 645.874023438 305.76953125 642.151367188 300.805664062 640.662109375 c 0
 295.842773438 639.668945312 290.3828125 638.924804688 284.42578125 638.427734375 c 2
 134.766601562 629.493164062 l 2
108.70703125 733.733398438 m 2
 104.736328125 733.236328125 101.012695312 732.98828125 97.5390625 732.98828125 c 0
 94.560546875 732.98828125 91.58203125 732.98828125 88.603515625 732.98828125 c 0
 77.68359375 732.98828125 70.23828125 734.725585938 66.2666015625 738.200195312 c 0
 62.2958984375 741.67578125 56.8359375 747.135742188 49.8857421875 754.581054688 c 0
 43.43359375 762.02734375 40.20703125 770.465820312 40.20703125 779.896484375 c 0
 40.20703125 785.853515625 43.185546875 788.831054688 49.1416015625 788.831054688 c 0
 50.630859375 788.831054688 51.8720703125 788.583007812 52.8642578125 788.086914062 c 0
 54.353515625 788.086914062 55.8427734375 787.838867188 57.33203125 787.342773438 c 0
 61.798828125 786.349609375 66.5146484375 785.356445312 71.478515625 784.364257812 c 0
 76.4423828125 783.8671875 81.654296875 783.619140625 87.1142578125 783.619140625 c 2
 93.8154296875 783.619140625 l 1
 250.919921875 793.298828125 l 2
 257.373046875 793.794921875 263.08203125 794.291992188 268.044921875 794.788085938 c 0
 273.008789062 795.78125 277.97265625 797.26953125 282.936523438 799.255859375 c 0
 284.921875 799.751953125 287.404296875 800 290.3828125 800 c 0
 294.849609375 800 300.557617188 797.518554688 307.5078125 792.5546875 c 0
 314.45703125 788.086914062 320.91015625 782.875 326.8671875 776.91796875 c 0
 333.319335938 770.961914062 336.545898438 765.252929688 336.545898438 759.79296875 c 0
 336.545898438 753.836914062 334.064453125 750.114257812 329.099609375 748.625 c 0
 324.135742188 747.631835938 318.67578125 746.887695312 312.719726562 746.390625 c 2
 108.70703125 733.733398438 l 2
207.041015625 294.021484375 m 0
 210.018554688 283.596679688 216.471679688 274.91015625 226.400390625 267.9609375 c 0
 236.82421875 261.5078125 253.701171875 256.543945312 277.03125 253.0703125 c 0
 300.360351562 250.090820312 332.873046875 248.6015625 374.569335938 248.6015625 c 0
 400.380859375 248.6015625 464.44140625 249.346679688 490.749023438 250.8359375 c 0
 517.553710938 252.821289062 542.869140625 255.55078125 566.696289062 259.026367188 c 0
 583.573242188 262.00390625 596.23046875 264.983398438 604.668945312 267.9609375 c 0
 613.107421875 271.435546875 619.064453125 276.151367188 622.538085938 282.108398438 c 0
 626.508789062 288.560546875 628.5234375 291.999023438 633.0234375 302.999023438 c 0
 636.994140625 320.372070312 637.918945312 321.155273438 640.897460938 338.032226562 c 0
 643.875976562 354.909179688 646.109375 371.786132812 647.59765625 388.663085938 c 0
 650.577148438 414.474609375 656.533203125 427.380859375 665.467773438 427.380859375 c 0
 672.416992188 427.380859375 677.1328125 421.920898438 679.615234375 411 c 0
 682.096679688 400.576171875 683.833984375 388.911132812 684.827148438 376.004882812 c 0
 685.8203125 363.099609375 686.31640625 351.185546875 686.31640625 340.265625 c 0
 686.811523438 329.345703125 687.060546875 322.396484375 687.060546875 319.41796875 c 0
 687.060546875 286.657226562 687.987304688 283.357421875 683.0234375 263.999023438 c 0
 678.555664062 244.639648438 666.467773438 230.484375 651.577148438 221.052734375 c 0
 637.181640625 211.125 615.092773438 204.17578125 585.309570312 200.205078125 c 0
 557.015625 196.73046875 527.977539062 194 498.1953125 192.014648438 c 0
 468.412109375 190.029296875 401.622070312 189.036132812 373.825195312 189.036132812 c 0
 330.639648438 189.036132812 294.404296875 190.526367188 265.1171875 193.50390625 c 0
 235.831054688 196.482421875 212.004882812 202.686523438 193.638671875 212.118164062 c 0
 175.768554688 221.052734375 166.86328125 234.20703125 158.920898438 251.580078125 c 0
 150.978515625 269.450195312 147.0078125 292.780273438 147.0078125 321.5703125 c 2
 148.190429688 440.126953125 l 1
 82.40234375 429.296875 l 2
 76.619140625 428.333984375 71.3173828125 427.372070312 66.498046875 426.409179688 c 0
 62.16015625 425.927734375 58.0634765625 425.686523438 54.2080078125 425.686523438 c 0
 46.978515625 425.686523438 40.4716796875 428.09375 34.6884765625 432.907226562 c 0
 28.904296875 437.719726562 24.326171875 442.534179688 20.9521484375 447.346679688 c 0
 18.060546875 452.161132812 16.3740234375 455.048828125 15.8916015625 456.01171875 c 0
 13.9638671875 459.86328125 13 462.750976562 13 464.67578125 c 0
 13 470.452148438 16.3740234375 473.33984375 23.12109375 473.33984375 c 2
 35.4111328125 473.33984375 l 2
 45.5322265625 473.33984375 54.9306640625 474.061523438 63.6064453125 475.505859375 c 2
 148.913085938 489.224609375 l 1
 151.08203125 643.026367188 l 1
 138.791992188 638.694335938 l 2
 130.598632812 636.287109375 120.959960938 633.399414062 109.874023438 630.030273438 c 0
 99.271484375 627.141601562 88.9091796875 624.494140625 78.7880859375 622.087890625 c 0
 69.1484375 620.162109375 61.1962890625 619.200195312 54.9306640625 619.200195312 c 0
 43.845703125 619.200195312 38.302734375 622.569335938 38.302734375 629.307617188 c 0
 38.302734375 636.046875 45.05078125 642.064453125 58.5458984375 647.359375 c 0
 88.4267578125 658.911132812 118.549804688 672.62890625 148.913085938 688.513671875 c 0
 179.758789062 704.879882812 206.026367188 721.245117188 227.713867188 737.611328125 c 0
 236.872070312 744.350585938 242.896484375 752.291992188 245.788085938 761.4375 c 0
 248.198242188 767.6953125 252.53515625 770.82421875 258.80078125 770.82421875 c 0
 264.583984375 770.82421875 270.609375 767.6953125 276.874023438 761.4375 c 0
 283.622070312 755.662109375 289.1640625 749.1640625 293.501953125 741.943359375 c 0
 297.83984375 735.204101562 300.008789062 729.428710938 300.008789062 724.615234375 c 0
 300.008789062 720.282226562 294.224609375 714.265625 282.658203125 706.564453125 c 0
 271.573242188 699.34375 258.559570312 691.8828125 243.619140625 684.181640625 c 0
 229.16015625 676.48046875 215.90625 669.982421875 203.857421875 664.686523438 c 1
 203.133789062 497.888671875 l 1
 244.5078125 505.037109375 l 1
 244.5078125 505.037109375 258.17578125 508.533203125 262.99609375 510.940429688 c 0
 265.88671875 512.865234375 269.01953125 513.828125 272.393554688 513.828125 c 0
 276.25 513.828125 281.55078125 512.142578125 288.298828125 508.7734375 c 0
 295.045898438 505.884765625 301.552734375 501.793945312 307.818359375 496.499023438 c 0
 314.083984375 491.685546875 317.215820312 486.150390625 317.215820312 479.892578125 c 0
 317.215820312 471.227539062 310.951171875 465.693359375 298.419921875 463.286132812 c 2
 203.133789062 448.791992188 l 1
 203.318359375 334.971679688 l 2
 203.318359375 318.591796875 204.55859375 304.94140625 207.041015625 294.021484375 c 0
EndSplineSet
EndChar

StartChar: c_xTuo_n4
Encoding: 264 -1 8
Width: 1013
VWidth: -29
Flags: HW
LayerCount: 2
Fore
SplineSet
330.4921875 761.572265625 m 1
 245.517578125 757.1171875 l 1
 244.497070312 669.448242188 l 2
 244.497070312 660.908203125 245.11328125 655.709960938 246.344726562 653.853515625 c 0
 247.577148438 651.998046875 250.657226562 650.698242188 255.584960938 649.956054688 c 2
 261.127929688 649.956054688 l 2
 268.51953125 649.956054688 268.286132812 650.698242188 274.03515625 652.182617188 c 0
 279.784179688 654.040039062 283.889648438 655.338867188 286.353515625 656.08203125 c 0
 287.17578125 656.453125 287.997070312 656.638671875 288.818359375 656.638671875 c 0
 290.049804688 657.009765625 291.282226562 657.196289062 292.513671875 657.196289062 c 0
 295.798828125 657.196289062 299.700195312 655.896484375 304.216796875 653.296875 c 0
 308.734375 651.069335938 312.83984375 647.9140625 316.536132812 643.830078125 c 0
 318.588867188 641.231445312 320.232421875 638.817382812 321.463867188 636.588867188 c 1
 330.4921875 761.572265625 l 1
67.7548828125 501.768554688 m 1
 68.37109375 478.934570312 l 1
 68.37109375 476.151367188 l 2
 68.37109375 465.383789062 63.853515625 460 54.8203125 460 c 0
 50.7138671875 460 45.7861328125 461.298828125 40.037109375 463.8984375 c 0
 32.2353515625 466.869140625 26.69140625 470.396484375 23.40625 474.48046875 c 0
 20.12109375 478.193359375 18.478515625 482.27734375 18.478515625 486.732421875 c 0
 18.478515625 487.845703125 18.478515625 488.774414062 18.478515625 489.516601562 c 0
 18.8896484375 490.258789062 19.0947265625 490.81640625 19.0947265625 491.188476562 c 0
 20.326171875 498.985351562 20.9423828125 507.524414062 20.9423828125 516.805664062 c 2
 20.9423828125 527.9453125 l 1
 12.935546875 747.092773438 l 2
 12.5244140625 752.661132812 11.498046875 758.416015625 9.85546875 764.356445312 c 0
 8.212890625 770.668945312 6.1591796875 776.052734375 3.6953125 780.5078125 c 0
 1.2314453125 785.706054688 0 789.232421875 0 791.088867188 c 0
 0 796.287109375 3.490234375 798.885742188 10.4716796875 798.885742188 c 0
 17.8623046875 798.885742188 32.8505859375 794.430664062 55.435546875 785.51953125 c 1
 343.426757812 799.443359375 l 2
 344.248046875 799.443359375 345.069335938 799.443359375 345.890625 799.443359375 c 0
 347.123046875 799.814453125 348.353515625 800 349.5859375 800 c 0
 354.924804688 800 361.495117188 797.401367188 369.296875 792.203125 c 0
 377.098632812 787.375976562 381 781.807617188 381 775.495117188 c 0
 381 772.525390625 380.383789062 769.92578125 379.15234375 767.698242188 c 0
 378.331054688 765.841796875 377.71484375 764.170898438 377.303710938 762.686523438 c 2
 357.59375 546.323242188 l 1
 369.091796875 533.328125 374.83984375 524.232421875 374.83984375 519.034179688 c 0
 374.83984375 514.20703125 372.376953125 511.422851562 367.44921875 510.6796875 c 0
 362.931640625 510.30859375 357.59375 509.936523438 351.43359375 509.56640625 c 2
 67.7548828125 501.768554688 l 1
320.84765625 626.0078125 m 1
 318.794921875 623.409179688 315.508789062 621.180664062 310.9921875 619.325195312 c 0
 303.600585938 616.35546875 294.977539062 614.313476562 285.122070312 613.19921875 c 0
 275.266601562 612.084960938 266.028320312 611.528320312 257.404296875 611.528320312 c 0
 249.013671875 611.528320312 236.6953125 612.641601562 227.250976562 614.869140625 c 0
 218.216796875 617.467773438 211.646484375 622.294921875 207.540039062 629.348632812 c 0
 203.43359375 636.775390625 201.379882812 647.357421875 201.379882812 661.09375 c 2
 201.379882812 664.435546875 l 1
 202.401367188 755.446289062 l 1
 171.659179688 753.21875 l 1
 167.659179688 711.989257812 162.51171875 710.66796875 153.584960938 675.607421875 c 0
 144.333007812 639.263671875 120.940429688 616.74609375 88.91015625 592.984375 c 0
 80.287109375 587.04296875 73.716796875 584.073242188 69.19921875 584.073242188 c 0
 63.861328125 584.073242188 61.1923828125 586.486328125 61.1923828125 591.313476562 c 0
 61.1923828125 595.397460938 64.06640625 600.78125 69.8154296875 607.463867188 c 0
 87.0625 626.399414062 100.595703125 639.727539062 106.7734375 660.5703125 c 0
 115.174804688 680.02734375 116.147460938 686.51171875 122.3828125 710.197265625 c 1
 124.435546875 733.958984375 125.462890625 726.30078125 125.462890625 751.547851562 c 1
 57.8994140625 748.206054688 l 1
 66.5234375 540.197265625 l 1
 313.861328125 547.436523438 l 1
 320.84765625 626.0078125 l 1
207.041015625 294.021484375 m 0
 210.018554688 283.596679688 216.471679688 274.91015625 226.400390625 267.9609375 c 0
 236.82421875 261.5078125 253.701171875 256.543945312 277.03125 253.0703125 c 0
 300.360351562 250.090820312 332.873046875 248.6015625 374.569335938 248.6015625 c 0
 400.380859375 248.6015625 464.44140625 249.346679688 490.749023438 250.8359375 c 0
 517.553710938 252.821289062 542.869140625 255.55078125 566.696289062 259.026367188 c 0
 583.573242188 262.00390625 596.23046875 264.983398438 604.668945312 267.9609375 c 0
 613.107421875 271.435546875 619.064453125 276.151367188 622.538085938 282.108398438 c 0
 626.508789062 288.560546875 628.5234375 291.999023438 633.0234375 302.999023438 c 0
 636.994140625 320.372070312 637.918945312 321.155273438 640.897460938 338.032226562 c 0
 643.875976562 354.909179688 646.109375 371.786132812 647.59765625 388.663085938 c 0
 650.577148438 414.474609375 656.533203125 427.380859375 665.467773438 427.380859375 c 0
 672.416992188 427.380859375 677.1328125 421.920898438 679.615234375 411 c 0
 682.096679688 400.576171875 683.833984375 388.911132812 684.827148438 376.004882812 c 0
 685.8203125 363.099609375 686.31640625 351.185546875 686.31640625 340.265625 c 0
 686.811523438 329.345703125 687.060546875 322.396484375 687.060546875 319.41796875 c 0
 687.060546875 286.657226562 687.987304688 283.357421875 683.0234375 263.999023438 c 0
 678.555664062 244.639648438 666.467773438 230.484375 651.577148438 221.052734375 c 0
 637.181640625 211.125 615.092773438 204.17578125 585.309570312 200.205078125 c 0
 557.015625 196.73046875 527.977539062 194 498.1953125 192.014648438 c 0
 468.412109375 190.029296875 401.622070312 189.036132812 373.825195312 189.036132812 c 0
 330.639648438 189.036132812 294.404296875 190.526367188 265.1171875 193.50390625 c 0
 235.831054688 196.482421875 212.004882812 202.686523438 193.638671875 212.118164062 c 0
 175.768554688 221.052734375 166.86328125 234.20703125 158.920898438 251.580078125 c 0
 150.978515625 269.450195312 147.0078125 292.780273438 147.0078125 321.5703125 c 2
 148.190429688 440.126953125 l 1
 82.40234375 429.296875 l 2
 76.619140625 428.333984375 71.3173828125 427.372070312 66.498046875 426.409179688 c 0
 62.16015625 425.927734375 58.0634765625 425.686523438 54.2080078125 425.686523438 c 0
 46.978515625 425.686523438 40.4716796875 428.09375 34.6884765625 432.907226562 c 0
 28.904296875 437.719726562 24.326171875 442.534179688 20.9521484375 447.346679688 c 0
 18.060546875 452.161132812 16.3740234375 455.048828125 15.8916015625 456.01171875 c 0
 13.9638671875 459.86328125 13 462.750976562 13 464.67578125 c 0
 13 470.452148438 16.3740234375 473.33984375 23.12109375 473.33984375 c 2
 35.4111328125 473.33984375 l 2
 45.5322265625 473.33984375 54.9306640625 474.061523438 63.6064453125 475.505859375 c 2
 148.913085938 489.224609375 l 1
 151.08203125 643.026367188 l 1
 138.791992188 638.694335938 l 2
 130.598632812 636.287109375 120.959960938 633.399414062 109.874023438 630.030273438 c 0
 99.271484375 627.141601562 88.9091796875 624.494140625 78.7880859375 622.087890625 c 0
 69.1484375 620.162109375 61.1962890625 619.200195312 54.9306640625 619.200195312 c 0
 43.845703125 619.200195312 38.302734375 622.569335938 38.302734375 629.307617188 c 0
 38.302734375 636.046875 45.05078125 642.064453125 58.5458984375 647.359375 c 0
 88.4267578125 658.911132812 118.549804688 672.62890625 148.913085938 688.513671875 c 0
 179.758789062 704.879882812 206.026367188 721.245117188 227.713867188 737.611328125 c 0
 236.872070312 744.350585938 242.896484375 752.291992188 245.788085938 761.4375 c 0
 248.198242188 767.6953125 252.53515625 770.82421875 258.80078125 770.82421875 c 0
 264.583984375 770.82421875 270.609375 767.6953125 276.874023438 761.4375 c 0
 283.622070312 755.662109375 289.1640625 749.1640625 293.501953125 741.943359375 c 0
 297.83984375 735.204101562 300.008789062 729.428710938 300.008789062 724.615234375 c 0
 300.008789062 720.282226562 294.224609375 714.265625 282.658203125 706.564453125 c 0
 271.573242188 699.34375 258.559570312 691.8828125 243.619140625 684.181640625 c 0
 229.16015625 676.48046875 215.90625 669.982421875 203.857421875 664.686523438 c 1
 203.133789062 497.888671875 l 1
 244.5078125 505.037109375 l 1
 244.5078125 505.037109375 258.17578125 508.533203125 262.99609375 510.940429688 c 0
 265.88671875 512.865234375 269.01953125 513.828125 272.393554688 513.828125 c 0
 276.25 513.828125 281.55078125 512.142578125 288.298828125 508.7734375 c 0
 295.045898438 505.884765625 301.552734375 501.793945312 307.818359375 496.499023438 c 0
 314.083984375 491.685546875 317.215820312 486.150390625 317.215820312 479.892578125 c 0
 317.215820312 471.227539062 310.951171875 465.693359375 298.419921875 463.286132812 c 2
 203.133789062 448.791992188 l 1
 203.318359375 334.971679688 l 2
 203.318359375 318.591796875 204.55859375 304.94140625 207.041015625 294.021484375 c 0
EndSplineSet
EndChar

StartChar: c_xTuo_n5
Encoding: 265 -1 9
Width: 1013
VWidth: -29
Flags: HW
LayerCount: 2
Fore
SplineSet
279.080078125 630.124023438 m 1
 184.743164062 622.956054688 l 1
 159.194335938 524.041015625 l 1
 267.288085938 529.776367188 l 1
 279.080078125 630.124023438 l 1
47.1689453125 471 m 1
 41.2724609375 471 l 2
 28.6064453125 471 19.6533203125 474.106445312 14.4130859375 480.318359375 c 0
 9.171875 487.0078125 5.458984375 493.458984375 3.275390625 499.670898438 c 0
 1.091796875 505.8828125 0 510.901367188 0 514.72265625 c 0
 0 519.024414062 2.40234375 521.173828125 7.2060546875 521.173828125 c 0
 8.953125 521.173828125 10.7001953125 520.934570312 12.447265625 520.458007812 c 0
 17.6884765625 518.545898438 24.021484375 517.58984375 31.4453125 517.58984375 c 0
 33.6298828125 517.58984375 35.8134765625 517.58984375 37.9970703125 517.58984375 c 0
 40.1806640625 518.068359375 42.3642578125 518.306640625 44.5478515625 518.306640625 c 2
 108.094726562 521.890625 l 1
 133.643554688 620.088867188 l 1
 94.3369140625 617.939453125 l 1
 83.85546875 617.939453125 l 2
 74.2470703125 617.939453125 67.4775390625 619.373046875 63.546875 622.240234375 c 0
 60.052734375 625.584960938 56.33984375 629.884765625 52.4091796875 635.141601562 c 0
 49.3525390625 641.353515625 46.513671875 648.043945312 43.892578125 655.2109375 c 0
 43.4560546875 656.64453125 43.23828125 658.555664062 43.23828125 660.946289062 c 0
 43.23828125 665.24609375 45.421875 667.397460938 49.7890625 667.397460938 c 0
 51.099609375 667.397460938 51.97265625 667.158203125 52.4091796875 666.6796875 c 0
 53.283203125 666.6796875 54.15625 666.6796875 55.0302734375 666.6796875 c 0
 62.455078125 665.24609375 69.4423828125 664.529296875 75.994140625 664.529296875 c 0
 78.177734375 664.529296875 80.580078125 664.529296875 83.2001953125 664.529296875 c 0
 85.8203125 665.006835938 88.4404296875 665.24609375 91.0615234375 665.24609375 c 2
 146.090820312 668.11328125 l 1
 161.159179688 736.923828125 l 1
 79.26953125 731.189453125 l 2
 77.5224609375 731.189453125 75.775390625 730.950195312 74.0283203125 730.47265625 c 0
 72.28125 730.47265625 70.7529296875 730.47265625 69.4423828125 730.47265625 c 0
 57.2138671875 730.47265625 48.0419921875 734.295898438 41.927734375 741.94140625 c 0
 36.25 750.064453125 31.8828125 758.905273438 28.8251953125 768.461914062 c 0
 28.388671875 769.895507812 28.169921875 772.28515625 28.169921875 775.629882812 c 0
 28.169921875 779.452148438 30.572265625 781.364257812 35.376953125 781.364257812 c 0
 37.560546875 781.364257812 39.306640625 781.125 40.6171875 780.647460938 c 0
 48.0419921875 779.213867188 55.248046875 778.497070312 62.236328125 778.497070312 c 2
 71.408203125 778.497070312 l 1
 305.28515625 794.265625 l 2
 309.653320312 794.744140625 313.583007812 795.221679688 317.077148438 795.69921875 c 0
 320.571289062 796.655273438 323.627929688 797.610351562 326.249023438 798.56640625 c 0
 328.432617188 799.043945312 330.3984375 799.283203125 332.14453125 799.283203125 c 0
 333.891601562 799.760742188 335.202148438 800 336.076171875 800 c 0
 340.005859375 800 344.810546875 798.088867188 350.48828125 794.265625 c 0
 356.166015625 790.443359375 361.188476562 785.6640625 365.555664062 779.930664062 c 0
 370.360351562 774.196289062 372.76171875 768.701171875 372.76171875 763.444335938 c 0
 372.76171875 754.842773438 365.119140625 750.064453125 349.833007812 749.109375 c 2
 211.602539062 739.791015625 l 1
 196.536132812 671.697265625 l 1
 294.802734375 678.1484375 l 2
 295.676757812 678.1484375 296.549804688 678.1484375 297.423828125 678.1484375 c 0
 298.734375 678.625976562 300.043945312 678.865234375 301.353515625 678.865234375 c 0
 307.032226562 678.865234375 313.801757812 675.758789062 321.663085938 669.546875 c 0
 329.9609375 663.813476562 334.110351562 656.883789062 334.110351562 648.759765625 c 0
 334.110351562 644.938476562 333.455078125 641.83203125 332.14453125 639.442382812 c 0
 331.271484375 637.53125 330.616210938 635.619140625 330.1796875 633.708007812 c 2
 315.766601562 531.92578125 l 1
 345.247070312 534.076171875 l 2
 349.615234375 534.553710938 353.982421875 535.032226562 358.349609375 535.509765625 c 0
 362.716796875 536.465820312 367.302734375 537.420898438 372.107421875 538.376953125 c 0
 373.853515625 538.85546875 375.600585938 539.09375 377.34765625 539.09375 c 0
 379.094726562 539.572265625 380.624023438 539.809570312 381.93359375 539.809570312 c 0
 387.612304688 539.809570312 392.8515625 537.420898438 397.657226562 532.642578125 c 0
 402.8984375 528.341796875 407.264648438 523.325195312 410.758789062 517.58984375 c 0
 414.252929688 512.333984375 416 507.793945312 416 503.971679688 c 0
 416 494.892578125 409.01171875 489.875 395.036132812 488.918945312 c 2
 47.1689453125 471 l 1
207.041015625 294.021484375 m 0
 210.018554688 283.596679688 216.471679688 274.91015625 226.400390625 267.9609375 c 0
 236.82421875 261.5078125 253.701171875 256.543945312 277.03125 253.0703125 c 0
 300.360351562 250.090820312 332.873046875 248.6015625 374.569335938 248.6015625 c 0
 400.380859375 248.6015625 464.44140625 249.346679688 490.749023438 250.8359375 c 0
 517.553710938 252.821289062 542.869140625 255.55078125 566.696289062 259.026367188 c 0
 583.573242188 262.00390625 596.23046875 264.983398438 604.668945312 267.9609375 c 0
 613.107421875 271.435546875 619.064453125 276.151367188 622.538085938 282.108398438 c 0
 626.508789062 288.560546875 628.5234375 291.999023438 633.0234375 302.999023438 c 0
 636.994140625 320.372070312 637.918945312 321.155273438 640.897460938 338.032226562 c 0
 643.875976562 354.909179688 646.109375 371.786132812 647.59765625 388.663085938 c 0
 650.577148438 414.474609375 656.533203125 427.380859375 665.467773438 427.380859375 c 0
 672.416992188 427.380859375 677.1328125 421.920898438 679.615234375 411 c 0
 682.096679688 400.576171875 683.833984375 388.911132812 684.827148438 376.004882812 c 0
 685.8203125 363.099609375 686.31640625 351.185546875 686.31640625 340.265625 c 0
 686.811523438 329.345703125 687.060546875 322.396484375 687.060546875 319.41796875 c 0
 687.060546875 286.657226562 687.987304688 283.357421875 683.0234375 263.999023438 c 0
 678.555664062 244.639648438 666.467773438 230.484375 651.577148438 221.052734375 c 0
 637.181640625 211.125 615.092773438 204.17578125 585.309570312 200.205078125 c 0
 557.015625 196.73046875 527.977539062 194 498.1953125 192.014648438 c 0
 468.412109375 190.029296875 401.622070312 189.036132812 373.825195312 189.036132812 c 0
 330.639648438 189.036132812 294.404296875 190.526367188 265.1171875 193.50390625 c 0
 235.831054688 196.482421875 212.004882812 202.686523438 193.638671875 212.118164062 c 0
 175.768554688 221.052734375 166.86328125 234.20703125 158.920898438 251.580078125 c 0
 150.978515625 269.450195312 147.0078125 292.780273438 147.0078125 321.5703125 c 2
 148.190429688 440.126953125 l 1
 82.40234375 429.296875 l 2
 76.619140625 428.333984375 71.3173828125 427.372070312 66.498046875 426.409179688 c 0
 62.16015625 425.927734375 58.0634765625 425.686523438 54.2080078125 425.686523438 c 0
 46.978515625 425.686523438 40.4716796875 428.09375 34.6884765625 432.907226562 c 0
 28.904296875 437.719726562 24.326171875 442.534179688 20.9521484375 447.346679688 c 0
 18.060546875 452.161132812 16.3740234375 455.048828125 15.8916015625 456.01171875 c 0
 13.9638671875 459.86328125 13 462.750976562 13 464.67578125 c 0
 13 470.452148438 16.3740234375 473.33984375 23.12109375 473.33984375 c 2
 35.4111328125 473.33984375 l 2
 45.5322265625 473.33984375 54.9306640625 474.061523438 63.6064453125 475.505859375 c 2
 148.913085938 489.224609375 l 1
 151.08203125 643.026367188 l 1
 138.791992188 638.694335938 l 2
 130.598632812 636.287109375 120.959960938 633.399414062 109.874023438 630.030273438 c 0
 99.271484375 627.141601562 88.9091796875 624.494140625 78.7880859375 622.087890625 c 0
 69.1484375 620.162109375 61.1962890625 619.200195312 54.9306640625 619.200195312 c 0
 43.845703125 619.200195312 38.302734375 622.569335938 38.302734375 629.307617188 c 0
 38.302734375 636.046875 45.05078125 642.064453125 58.5458984375 647.359375 c 0
 88.4267578125 658.911132812 118.549804688 672.62890625 148.913085938 688.513671875 c 0
 179.758789062 704.879882812 206.026367188 721.245117188 227.713867188 737.611328125 c 0
 236.872070312 744.350585938 242.896484375 752.291992188 245.788085938 761.4375 c 0
 248.198242188 767.6953125 252.53515625 770.82421875 258.80078125 770.82421875 c 0
 264.583984375 770.82421875 270.609375 767.6953125 276.874023438 761.4375 c 0
 283.622070312 755.662109375 289.1640625 749.1640625 293.501953125 741.943359375 c 0
 297.83984375 735.204101562 300.008789062 729.428710938 300.008789062 724.615234375 c 0
 300.008789062 720.282226562 294.224609375 714.265625 282.658203125 706.564453125 c 0
 271.573242188 699.34375 258.559570312 691.8828125 243.619140625 684.181640625 c 0
 229.16015625 676.48046875 215.90625 669.982421875 203.857421875 664.686523438 c 1
 203.133789062 497.888671875 l 1
 244.5078125 505.037109375 l 1
 244.5078125 505.037109375 258.17578125 508.533203125 262.99609375 510.940429688 c 0
 265.88671875 512.865234375 269.01953125 513.828125 272.393554688 513.828125 c 0
 276.25 513.828125 281.55078125 512.142578125 288.298828125 508.7734375 c 0
 295.045898438 505.884765625 301.552734375 501.793945312 307.818359375 496.499023438 c 0
 314.083984375 491.685546875 317.215820312 486.150390625 317.215820312 479.892578125 c 0
 317.215820312 471.227539062 310.951171875 465.693359375 298.419921875 463.286132812 c 2
 203.133789062 448.791992188 l 1
 203.318359375 334.971679688 l 2
 203.318359375 318.591796875 204.55859375 304.94140625 207.041015625 294.021484375 c 0
EndSplineSet
EndChar

StartChar: c_xTuo_n6
Encoding: 266 -1 10
Width: 1013
VWidth: -29
Flags: HW
LayerCount: 2
Fore
SplineSet
75.2890625 644.243164062 m 2
 70.3193359375 643.829101562 65.8466796875 643.4140625 61.87109375 643 c 0
 57.8955078125 643 53.919921875 643 49.9443359375 643 c 0
 47.9560546875 643 45.96875 643 43.98046875 643 c 0
 41.9931640625 643.4140625 40.0048828125 643.622070312 38.0166015625 643.622070312 c 0
 36.029296875 644.036132812 34.2900390625 644.450195312 32.798828125 644.865234375 c 0
 31.8046875 645.693359375 30.8115234375 646.315429688 29.8173828125 646.728515625 c 0
 21.369140625 651.702148438 14.1630859375 658.5390625 8.19921875 667.241210938 c 0
 2.7333984375 676.358398438 0 683.1953125 0 687.752929688 c 0
 0 693.139648438 3.478515625 695.833984375 10.4365234375 695.833984375 c 0
 13.41796875 695.833984375 15.90234375 695.626953125 17.890625 695.211914062 c 0
 22.36328125 693.96875 27.083984375 693.139648438 32.0537109375 692.725585938 c 0
 37.5205078125 692.310546875 42.986328125 692.103515625 48.453125 692.103515625 c 2
 57.3984375 692.103515625 l 1
 170.090820312 702.049804688 l 1
 168.599609375 755.868164062 l 2
 168.599609375 761.669921875 167.357421875 766.642578125 164.873046875 770.786132812 c 0
 162.884765625 774.9296875 159.903320312 779.48828125 155.926757812 784.4609375 c 0
 153.940429688 786.947265625 152.946289062 789.2265625 152.946289062 791.297851562 c 0
 152.946289062 797.099609375 158.412109375 800 169.344726562 800 c 0
 172.82421875 800 179.284179688 799.170898438 188.725585938 797.513671875 c 0
 198.665039062 796.270507812 208.356445312 793.784179688 217.797851562 790.0546875 c 0
 227.737304688 786.325195312 232.70703125 780.524414062 232.70703125 772.650390625 c 2
 231.961914062 704.536132812 l 1
 325.0390625 714.481445312 l 2
 329.510742188 714.895507812 334.481445312 715.309570312 339.947265625 715.723632812 c 0
 345.911132812 716.552734375 351.376953125 717.795898438 356.346679688 719.453125 c 0
 359.825195312 720.282226562 362.55859375 720.696289062 364.546875 720.696289062 c 0
 369.018554688 720.696289062 374.983398438 718.83203125 382.436523438 715.102539062 c 0
 389.891601562 711.787109375 396.848632812 707.229492188 403.30859375 701.427734375 c 0
 409.76953125 695.626953125 413 689.825195312 413 684.024414062 c 0
 413 679.05078125 410.763671875 675.115234375 406.291015625 672.213867188 c 0
 401.819335938 669.727539062 396.3515625 668.27734375 389.890625 667.86328125 c 2
 75.2890625 644.243164062 l 2
412 464.9765625 m 0
 412 459.358398438 409.268554688 454.603515625 403.806640625 450.71484375 c 0
 398.840820312 446.825195312 393.627929688 443.799804688 388.166015625 441.638671875 c 0
 382.704101562 439.477539062 379.227539062 438.397460938 377.73828125 438.397460938 c 0
 371.283203125 438.397460938 365.572265625 441.85546875 360.607421875 448.76953125 c 0
 346.704101562 467.786132812 315.0546875 503.841796875 299.662109375 522.42578125 c 0
 284.268554688 541.009765625 268.627929688 558.512695312 252.73828125 574.935546875 c 0
 248.268554688 580.122070312 246.03515625 584.66015625 246.03515625 588.549804688 c 0
 246.03515625 592.0078125 249.013671875 596.76171875 254.97265625 602.811523438 c 0
 260.930664062 608.86328125 267.137695312 611.887695312 273.592773438 611.887695312 c 0
 278.55859375 611.887695312 283.7734375 609.510742188 289.235351562 604.756835938 c 0
 294.200195312 600.434570312 300.903320312 593.736328125 309.344726562 584.66015625 c 0
 318.283203125 576.016601562 327.46875 566.508789062 336.904296875 556.135742188 c 0
 346.834960938 545.763671875 373.021484375 518.134765625 381.461914062 507.762695312 c 0
 390.400390625 497.823242188 397.599609375 488.962890625 403.061523438 481.18359375 c 0
 409.021484375 473.836914062 412 468.43359375 412 464.9765625 c 0
33.9384765625 428 m 0
 27.9794921875 428 25 430.80859375 25 436.427734375 c 0
 25 441.181640625 28.2275390625 447.6640625 34.6826171875 455.875976562 c 0
 44.1171875 467.544921875 53.7998046875 480.725585938 63.7314453125 495.420898438 c 0
 73.662109375 510.546875 82.599609375 525.241210938 90.544921875 539.502929688 c 0
 98.986328125 553.765625 105.193359375 565.8671875 109.165039062 575.806640625 c 0
 112.640625 583.154296875 114.37890625 591.797851562 114.37890625 601.73828125 c 0
 114.37890625 611.24609375 118.84765625 616 127.786132812 616 c 0
 132.751953125 616 139.20703125 614.0546875 147.15234375 610.166015625 c 0
 155.095703125 606.708007812 162.295898438 602.169921875 168.751953125 596.551757812 c 0
 175.20703125 591.366210938 178.43359375 585.962890625 178.43359375 580.344726562 c 0
 178.43359375 577.3203125 177.44140625 574.509765625 175.455078125 571.916992188 c 0
 167.509765625 558.51953125 157.083007812 543.609375 144.171875 527.185546875 c 0
 131.26171875 510.762695312 117.607421875 494.989257812 103.20703125 479.862304688 c 0
 88.806640625 465.16796875 75.3994140625 452.850585938 62.986328125 442.91015625 c 0
 50.572265625 432.969726562 40.8896484375 428 33.9384765625 428 c 0
207.041015625 294.021484375 m 0
 210.018554688 283.596679688 216.471679688 274.91015625 226.400390625 267.9609375 c 0
 236.82421875 261.5078125 253.701171875 256.543945312 277.03125 253.0703125 c 0
 300.360351562 250.090820312 332.873046875 248.6015625 374.569335938 248.6015625 c 0
 400.380859375 248.6015625 464.44140625 249.346679688 490.749023438 250.8359375 c 0
 517.553710938 252.821289062 542.869140625 255.55078125 566.696289062 259.026367188 c 0
 583.573242188 262.00390625 596.23046875 264.983398438 604.668945312 267.9609375 c 0
 613.107421875 271.435546875 619.064453125 276.151367188 622.538085938 282.108398438 c 0
 626.508789062 288.560546875 628.5234375 291.999023438 633.0234375 302.999023438 c 0
 636.994140625 320.372070312 637.918945312 321.155273438 640.897460938 338.032226562 c 0
 643.875976562 354.909179688 646.109375 371.786132812 647.59765625 388.663085938 c 0
 650.577148438 414.474609375 656.533203125 427.380859375 665.467773438 427.380859375 c 0
 672.416992188 427.380859375 677.1328125 421.920898438 679.615234375 411 c 0
 682.096679688 400.576171875 683.833984375 388.911132812 684.827148438 376.004882812 c 0
 685.8203125 363.099609375 686.31640625 351.185546875 686.31640625 340.265625 c 0
 686.811523438 329.345703125 687.060546875 322.396484375 687.060546875 319.41796875 c 0
 687.060546875 286.657226562 687.987304688 283.357421875 683.0234375 263.999023438 c 0
 678.555664062 244.639648438 666.467773438 230.484375 651.577148438 221.052734375 c 0
 637.181640625 211.125 615.092773438 204.17578125 585.309570312 200.205078125 c 0
 557.015625 196.73046875 527.977539062 194 498.1953125 192.014648438 c 0
 468.412109375 190.029296875 401.622070312 189.036132812 373.825195312 189.036132812 c 0
 330.639648438 189.036132812 294.404296875 190.526367188 265.1171875 193.50390625 c 0
 235.831054688 196.482421875 212.004882812 202.686523438 193.638671875 212.118164062 c 0
 175.768554688 221.052734375 166.86328125 234.20703125 158.920898438 251.580078125 c 0
 150.978515625 269.450195312 147.0078125 292.780273438 147.0078125 321.5703125 c 2
 148.190429688 440.126953125 l 1
 82.40234375 429.296875 l 2
 76.619140625 428.333984375 71.3173828125 427.372070312 66.498046875 426.409179688 c 0
 62.16015625 425.927734375 58.0634765625 425.686523438 54.2080078125 425.686523438 c 0
 46.978515625 425.686523438 40.4716796875 428.09375 34.6884765625 432.907226562 c 0
 28.904296875 437.719726562 24.326171875 442.534179688 20.9521484375 447.346679688 c 0
 18.060546875 452.161132812 16.3740234375 455.048828125 15.8916015625 456.01171875 c 0
 13.9638671875 459.86328125 13 462.750976562 13 464.67578125 c 0
 13 470.452148438 16.3740234375 473.33984375 23.12109375 473.33984375 c 2
 35.4111328125 473.33984375 l 2
 45.5322265625 473.33984375 54.9306640625 474.061523438 63.6064453125 475.505859375 c 2
 148.913085938 489.224609375 l 1
 151.08203125 643.026367188 l 1
 138.791992188 638.694335938 l 2
 130.598632812 636.287109375 120.959960938 633.399414062 109.874023438 630.030273438 c 0
 99.271484375 627.141601562 88.9091796875 624.494140625 78.7880859375 622.087890625 c 0
 69.1484375 620.162109375 61.1962890625 619.200195312 54.9306640625 619.200195312 c 0
 43.845703125 619.200195312 38.302734375 622.569335938 38.302734375 629.307617188 c 0
 38.302734375 636.046875 45.05078125 642.064453125 58.5458984375 647.359375 c 0
 88.4267578125 658.911132812 118.549804688 672.62890625 148.913085938 688.513671875 c 0
 179.758789062 704.879882812 206.026367188 721.245117188 227.713867188 737.611328125 c 0
 236.872070312 744.350585938 242.896484375 752.291992188 245.788085938 761.4375 c 0
 248.198242188 767.6953125 252.53515625 770.82421875 258.80078125 770.82421875 c 0
 264.583984375 770.82421875 270.609375 767.6953125 276.874023438 761.4375 c 0
 283.622070312 755.662109375 289.1640625 749.1640625 293.501953125 741.943359375 c 0
 297.83984375 735.204101562 300.008789062 729.428710938 300.008789062 724.615234375 c 0
 300.008789062 720.282226562 294.224609375 714.265625 282.658203125 706.564453125 c 0
 271.573242188 699.34375 258.559570312 691.8828125 243.619140625 684.181640625 c 0
 229.16015625 676.48046875 215.90625 669.982421875 203.857421875 664.686523438 c 1
 203.133789062 497.888671875 l 1
 244.5078125 505.037109375 l 1
 244.5078125 505.037109375 258.17578125 508.533203125 262.99609375 510.940429688 c 0
 265.88671875 512.865234375 269.01953125 513.828125 272.393554688 513.828125 c 0
 276.25 513.828125 281.55078125 512.142578125 288.298828125 508.7734375 c 0
 295.045898438 505.884765625 301.552734375 501.793945312 307.818359375 496.499023438 c 0
 314.083984375 491.685546875 317.215820312 486.150390625 317.215820312 479.892578125 c 0
 317.215820312 471.227539062 310.951171875 465.693359375 298.419921875 463.286132812 c 2
 203.133789062 448.791992188 l 1
 203.318359375 334.971679688 l 2
 203.318359375 318.591796875 204.55859375 304.94140625 207.041015625 294.021484375 c 0
EndSplineSet
EndChar

StartChar: c_xTuo_n7
Encoding: 267 -1 11
Width: 1013
VWidth: -29
Flags: HW
LayerCount: 2
Fore
SplineSet
243.243164062 441 m 0
 218.946289062 441 210.27734375 441 188.606445312 446.6171875 c 0
 168.276367188 449.6640625 152.161132812 457.533203125 140.259765625 470.224609375 c 0
 128.359375 483.424804688 122.409179688 503.987304688 122.409179688 531.91015625 c 2
 123.153320312 618.208984375 l 1
 58.0146484375 606.001953125 l 2
 53.056640625 604.986328125 47.8505859375 604.478515625 42.3955078125 604.478515625 c 0
 26.0322265625 604.478515625 12.64453125 616.15625 2.2314453125 639.508789062 c 0
 0.744140625 642.555664062 0 645.09375 0 647.125 c 0
 0 652.202148438 2.4794921875 655.248046875 7.4375 656.262695312 c 2
 26.0322265625 655.501953125 l 2
 34.4619140625 655.501953125 83.484375 663.138671875 123.153320312 672.278320312 c 1
 123.897460938 751.26171875 l 2
 123.897460938 763.446289062 121.169921875 774.107421875 115.71484375 783.24609375 c 0
 114.227539062 785.27734375 113.484375 788.069335938 113.484375 791.623046875 c 0
 113.484375 797.208007812 117.203125 800 124.640625 800 c 0
 129.598632812 800 136.7890625 798.4765625 146.209960938 795.430664062 c 0
 155.631835938 792.384765625 162.822265625 789.084960938 167.780273438 785.530273438 c 0
 173.234375 781.9765625 175.961914062 776.899414062 175.961914062 770.299804688 c 2
 175.217773438 682.940429688 l 1
 264.967773438 703.754882812 299.087890625 712.36328125 303.55078125 714.90234375 c 0
 308.508789062 717.948242188 312.723632812 719.471679688 316.1953125 719.471679688 c 0
 319.169921875 719.471679688 323.6328125 717.694335938 329.583007812 714.140625 c 0
 345.946289062 701.448242188 354.127929688 690.279296875 354.127929688 680.6328125 c 0
 354.127929688 673.016601562 347.681640625 667.685546875 334.7890625 664.639648438 c 2
 174.473632812 629.631835938 l 1
 173.73046875 542.572265625 l 2
 173.73046875 531.40234375 174.969726562 522.517578125 177.44921875 515.91796875 c 0
 183.89453125 502.209960938 184.706054688 492.288085938 229.829101562 492.288085938 c 0
 275.944335938 492.288085938 306.439453125 495.587890625 321.314453125 502.188476562 c 0
 329.744140625 506.249023438 335.439453125 502.583984375 340.3984375 521.876953125 c 0
 345.356445312 541.676757812 349.323242188 559.954101562 352.297851562 576.708007812 c 0
 355.768554688 593.96875 361.71875 602.599609375 370.149414062 602.599609375 c 0
 382.049804688 602.599609375 388 581.0234375 388 537.869140625 c 0
 388 520.099609375 387.758789062 518.688476562 385.280273438 502.94921875 c 0
 383.296875 487.2109375 377.345703125 474.772460938 367.428710938 465.633789062 c 0
 348.586914062 447.864257812 316.1953125 441 243.243164062 441 c 0
207.041015625 294.021484375 m 0
 210.018554688 283.596679688 216.471679688 274.91015625 226.400390625 267.9609375 c 0
 236.82421875 261.5078125 253.701171875 256.543945312 277.03125 253.0703125 c 0
 300.360351562 250.090820312 332.873046875 248.6015625 374.569335938 248.6015625 c 0
 400.380859375 248.6015625 464.44140625 249.346679688 490.749023438 250.8359375 c 0
 517.553710938 252.821289062 542.869140625 255.55078125 566.696289062 259.026367188 c 0
 583.573242188 262.00390625 596.23046875 264.983398438 604.668945312 267.9609375 c 0
 613.107421875 271.435546875 619.064453125 276.151367188 622.538085938 282.108398438 c 0
 626.508789062 288.560546875 628.5234375 291.999023438 633.0234375 302.999023438 c 0
 636.994140625 320.372070312 637.918945312 321.155273438 640.897460938 338.032226562 c 0
 643.875976562 354.909179688 646.109375 371.786132812 647.59765625 388.663085938 c 0
 650.577148438 414.474609375 656.533203125 427.380859375 665.467773438 427.380859375 c 0
 672.416992188 427.380859375 677.1328125 421.920898438 679.615234375 411 c 0
 682.096679688 400.576171875 683.833984375 388.911132812 684.827148438 376.004882812 c 0
 685.8203125 363.099609375 686.31640625 351.185546875 686.31640625 340.265625 c 0
 686.811523438 329.345703125 687.060546875 322.396484375 687.060546875 319.41796875 c 0
 687.060546875 286.657226562 687.987304688 283.357421875 683.0234375 263.999023438 c 0
 678.555664062 244.639648438 666.467773438 230.484375 651.577148438 221.052734375 c 0
 637.181640625 211.125 615.092773438 204.17578125 585.309570312 200.205078125 c 0
 557.015625 196.73046875 527.977539062 194 498.1953125 192.014648438 c 0
 468.412109375 190.029296875 401.622070312 189.036132812 373.825195312 189.036132812 c 0
 330.639648438 189.036132812 294.404296875 190.526367188 265.1171875 193.50390625 c 0
 235.831054688 196.482421875 212.004882812 202.686523438 193.638671875 212.118164062 c 0
 175.768554688 221.052734375 166.86328125 234.20703125 158.920898438 251.580078125 c 0
 150.978515625 269.450195312 147.0078125 292.780273438 147.0078125 321.5703125 c 2
 148.190429688 440.126953125 l 1
 82.40234375 429.296875 l 2
 76.619140625 428.333984375 71.3173828125 427.372070312 66.498046875 426.409179688 c 0
 62.16015625 425.927734375 58.0634765625 425.686523438 54.2080078125 425.686523438 c 0
 46.978515625 425.686523438 40.4716796875 428.09375 34.6884765625 432.907226562 c 0
 28.904296875 437.719726562 24.326171875 442.534179688 20.9521484375 447.346679688 c 0
 18.060546875 452.161132812 16.3740234375 455.048828125 15.8916015625 456.01171875 c 0
 13.9638671875 459.86328125 13 462.750976562 13 464.67578125 c 0
 13 470.452148438 16.3740234375 473.33984375 23.12109375 473.33984375 c 2
 35.4111328125 473.33984375 l 2
 45.5322265625 473.33984375 54.9306640625 474.061523438 63.6064453125 475.505859375 c 2
 148.913085938 489.224609375 l 1
 151.08203125 643.026367188 l 1
 138.791992188 638.694335938 l 2
 130.598632812 636.287109375 120.959960938 633.399414062 109.874023438 630.030273438 c 0
 99.271484375 627.141601562 88.9091796875 624.494140625 78.7880859375 622.087890625 c 0
 69.1484375 620.162109375 61.1962890625 619.200195312 54.9306640625 619.200195312 c 0
 43.845703125 619.200195312 38.302734375 622.569335938 38.302734375 629.307617188 c 0
 38.302734375 636.046875 45.05078125 642.064453125 58.5458984375 647.359375 c 0
 88.4267578125 658.911132812 118.549804688 672.62890625 148.913085938 688.513671875 c 0
 179.758789062 704.879882812 206.026367188 721.245117188 227.713867188 737.611328125 c 0
 236.872070312 744.350585938 242.896484375 752.291992188 245.788085938 761.4375 c 0
 248.198242188 767.6953125 252.53515625 770.82421875 258.80078125 770.82421875 c 0
 264.583984375 770.82421875 270.609375 767.6953125 276.874023438 761.4375 c 0
 283.622070312 755.662109375 289.1640625 749.1640625 293.501953125 741.943359375 c 0
 297.83984375 735.204101562 300.008789062 729.428710938 300.008789062 724.615234375 c 0
 300.008789062 720.282226562 294.224609375 714.265625 282.658203125 706.564453125 c 0
 271.573242188 699.34375 258.559570312 691.8828125 243.619140625 684.181640625 c 0
 229.16015625 676.48046875 215.90625 669.982421875 203.857421875 664.686523438 c 1
 203.133789062 497.888671875 l 1
 244.5078125 505.037109375 l 1
 244.5078125 505.037109375 258.17578125 508.533203125 262.99609375 510.940429688 c 0
 265.88671875 512.865234375 269.01953125 513.828125 272.393554688 513.828125 c 0
 276.25 513.828125 281.55078125 512.142578125 288.298828125 508.7734375 c 0
 295.045898438 505.884765625 301.552734375 501.793945312 307.818359375 496.499023438 c 0
 314.083984375 491.685546875 317.215820312 486.150390625 317.215820312 479.892578125 c 0
 317.215820312 471.227539062 310.951171875 465.693359375 298.419921875 463.286132812 c 2
 203.133789062 448.791992188 l 1
 203.318359375 334.971679688 l 2
 203.318359375 318.591796875 204.55859375 304.94140625 207.041015625 294.021484375 c 0
EndSplineSet
EndChar

StartChar: c_xTuo_n8
Encoding: 268 -1 12
Width: 1013
VWidth: -29
Flags: HW
LayerCount: 2
Fore
SplineSet
410.873046875 617.36328125 m 0
 410.873046875 610.91015625 408.142578125 605.450195312 402.682617188 600.982421875 c 0
 397.71875 596.514648438 392.506835938 593.040039062 387.046875 590.557617188 c 0
 381.5859375 588.077148438 378.112304688 586.8359375 376.623046875 586.8359375 c 0
 370.169921875 586.8359375 364.4609375 590.806640625 359.497070312 598.749023438 c 0
 345.598632812 620.588867188 307.956054688 667.181640625 292.568359375 688.526367188 c 0
 277.1796875 709.87109375 261.543945312 729.974609375 245.66015625 748.836914062 c 0
 241.192382812 754.79296875 238.958984375 760.004882812 238.958984375 764.47265625 c 0
 238.958984375 768.443359375 241.936523438 773.903320312 247.892578125 780.853515625 c 0
 253.849609375 787.802734375 260.0546875 791.27734375 266.5078125 791.27734375 c 0
 271.471679688 791.27734375 276.68359375 788.546875 282.143554688 783.086914062 c 0
 287.108398438 778.123046875 293.80859375 770.4296875 302.247070312 760.004882812 c 0
 311.181640625 750.077148438 320.365234375 739.157226562 329.795898438 727.244140625 c 0
 339.723632812 715.331054688 371.907226562 678.41796875 380.344726562 666.504882812 c 0
 389.280273438 655.087890625 396.477539062 644.912109375 401.938476562 635.9765625 c 0
 407.89453125 627.5390625 410.873046875 621.333984375 410.873046875 617.36328125 c 0
8.9345703125 575.07421875 m 0
 2.978515625 575.07421875 0 578.30078125 0 584.75390625 c 0
 0 590.213867188 3.2265625 597.66015625 9.6796875 607.090820312 c 0
 19.1103515625 620.493164062 28.7900390625 635.6328125 38.7177734375 652.509765625 c 0
 48.6455078125 669.8828125 62.580078125 695.759765625 70.5224609375 712.140625 c 0
 78.9609375 728.521484375 85.1650390625 742.419921875 89.13671875 753.836914062 c 0
 92.611328125 762.275390625 94.3486328125 772.203125 94.3486328125 783.619140625 c 0
 94.3486328125 794.540039062 98.8154296875 800 107.750976562 800 c 0
 112.71484375 800 119.16796875 797.766601562 127.110351562 793.298828125 c 0
 135.051757812 789.328125 142.249023438 784.116210938 148.702148438 777.663085938 c 0
 155.155273438 771.706054688 158.381835938 765.501953125 158.381835938 759.048828125 c 0
 158.381835938 755.57421875 157.388671875 752.34765625 155.403320312 749.369140625 c 0
 147.4609375 733.981445312 137.037109375 716.856445312 124.130859375 697.994140625 c 0
 111.224609375 679.130859375 92.5751953125 652.012695312 78.1796875 634.639648438 c 0
 63.78515625 617.762695312 50.3828125 603.616210938 37.97265625 592.200195312 c 0
 25.5634765625 580.783203125 15.8837890625 575.07421875 8.9345703125 575.07421875 c 0
207.041015625 294.021484375 m 0
 210.018554688 283.596679688 216.471679688 274.91015625 226.400390625 267.9609375 c 0
 236.82421875 261.5078125 253.701171875 256.543945312 277.03125 253.0703125 c 0
 300.360351562 250.090820312 332.873046875 248.6015625 374.569335938 248.6015625 c 0
 400.380859375 248.6015625 464.44140625 249.346679688 490.749023438 250.8359375 c 0
 517.553710938 252.821289062 542.869140625 255.55078125 566.696289062 259.026367188 c 0
 583.573242188 262.00390625 596.23046875 264.983398438 604.668945312 267.9609375 c 0
 613.107421875 271.435546875 619.064453125 276.151367188 622.538085938 282.108398438 c 0
 626.508789062 288.560546875 628.5234375 291.999023438 633.0234375 302.999023438 c 0
 636.994140625 320.372070312 637.918945312 321.155273438 640.897460938 338.032226562 c 0
 643.875976562 354.909179688 646.109375 371.786132812 647.59765625 388.663085938 c 0
 650.577148438 414.474609375 656.533203125 427.380859375 665.467773438 427.380859375 c 0
 672.416992188 427.380859375 677.1328125 421.920898438 679.615234375 411 c 0
 682.096679688 400.576171875 683.833984375 388.911132812 684.827148438 376.004882812 c 0
 685.8203125 363.099609375 686.31640625 351.185546875 686.31640625 340.265625 c 0
 686.811523438 329.345703125 687.060546875 322.396484375 687.060546875 319.41796875 c 0
 687.060546875 286.657226562 687.987304688 283.357421875 683.0234375 263.999023438 c 0
 678.555664062 244.639648438 666.467773438 230.484375 651.577148438 221.052734375 c 0
 637.181640625 211.125 615.092773438 204.17578125 585.309570312 200.205078125 c 0
 557.015625 196.73046875 527.977539062 194 498.1953125 192.014648438 c 0
 468.412109375 190.029296875 401.622070312 189.036132812 373.825195312 189.036132812 c 0
 330.639648438 189.036132812 294.404296875 190.526367188 265.1171875 193.50390625 c 0
 235.831054688 196.482421875 212.004882812 202.686523438 193.638671875 212.118164062 c 0
 175.768554688 221.052734375 166.86328125 234.20703125 158.920898438 251.580078125 c 0
 150.978515625 269.450195312 147.0078125 292.780273438 147.0078125 321.5703125 c 2
 148.190429688 440.126953125 l 1
 82.40234375 429.296875 l 2
 76.619140625 428.333984375 71.3173828125 427.372070312 66.498046875 426.409179688 c 0
 62.16015625 425.927734375 58.0634765625 425.686523438 54.2080078125 425.686523438 c 0
 46.978515625 425.686523438 40.4716796875 428.09375 34.6884765625 432.907226562 c 0
 28.904296875 437.719726562 24.326171875 442.534179688 20.9521484375 447.346679688 c 0
 18.060546875 452.161132812 16.3740234375 455.048828125 15.8916015625 456.01171875 c 0
 13.9638671875 459.86328125 13 462.750976562 13 464.67578125 c 0
 13 470.452148438 16.3740234375 473.33984375 23.12109375 473.33984375 c 2
 35.4111328125 473.33984375 l 2
 45.5322265625 473.33984375 54.9306640625 474.061523438 63.6064453125 475.505859375 c 2
 148.913085938 489.224609375 l 1
 151.08203125 643.026367188 l 1
 138.791992188 638.694335938 l 2
 130.598632812 636.287109375 120.959960938 633.399414062 109.874023438 630.030273438 c 0
 99.271484375 627.141601562 88.9091796875 624.494140625 78.7880859375 622.087890625 c 0
 69.1484375 620.162109375 61.1962890625 619.200195312 54.9306640625 619.200195312 c 0
 43.845703125 619.200195312 38.302734375 622.569335938 38.302734375 629.307617188 c 0
 38.302734375 636.046875 45.05078125 642.064453125 58.5458984375 647.359375 c 0
 88.4267578125 658.911132812 118.549804688 672.62890625 148.913085938 688.513671875 c 0
 179.758789062 704.879882812 206.026367188 721.245117188 227.713867188 737.611328125 c 0
 236.872070312 744.350585938 242.896484375 752.291992188 245.788085938 761.4375 c 0
 248.198242188 767.6953125 252.53515625 770.82421875 258.80078125 770.82421875 c 0
 264.583984375 770.82421875 270.609375 767.6953125 276.874023438 761.4375 c 0
 283.622070312 755.662109375 289.1640625 749.1640625 293.501953125 741.943359375 c 0
 297.83984375 735.204101562 300.008789062 729.428710938 300.008789062 724.615234375 c 0
 300.008789062 720.282226562 294.224609375 714.265625 282.658203125 706.564453125 c 0
 271.573242188 699.34375 258.559570312 691.8828125 243.619140625 684.181640625 c 0
 229.16015625 676.48046875 215.90625 669.982421875 203.857421875 664.686523438 c 1
 203.133789062 497.888671875 l 1
 244.5078125 505.037109375 l 1
 244.5078125 505.037109375 258.17578125 508.533203125 262.99609375 510.940429688 c 0
 265.88671875 512.865234375 269.01953125 513.828125 272.393554688 513.828125 c 0
 276.25 513.828125 281.55078125 512.142578125 288.298828125 508.7734375 c 0
 295.045898438 505.884765625 301.552734375 501.793945312 307.818359375 496.499023438 c 0
 314.083984375 491.685546875 317.215820312 486.150390625 317.215820312 479.892578125 c 0
 317.215820312 471.227539062 310.951171875 465.693359375 298.419921875 463.286132812 c 2
 203.133789062 448.791992188 l 1
 203.318359375 334.971679688 l 2
 203.318359375 318.591796875 204.55859375 304.94140625 207.041015625 294.021484375 c 0
EndSplineSet
EndChar

StartChar: c_xTuo_n9
Encoding: 269 -1 13
Width: 1013
VWidth: -29
Flags: HW
LayerCount: 2
Fore
SplineSet
307.889648438 462.91796875 m 2
 307.889648438 460.030273438 308.8828125 457.140625 310.868164062 454.252929688 c 0
 313.349609375 451.942382812 321.291992188 450.787109375 334.6953125 450.787109375 c 0
 349.5859375 450.787109375 360.505859375 452.231445312 367.456054688 455.120117188 c 0
 374.901367188 458.5859375 380.610351562 466.383789062 384.581054688 478.515625 c 0
 389.047851562 491.224609375 393.267578125 512.022460938 397.239257812 540.90625 c 0
 400.713867188 566.325195312 406.421875 579.034179688 414.364257812 579.034179688 c 0
 423.794921875 579.034179688 428.758789062 565.168945312 429.254882812 537.440429688 c 0
 429.254882812 533.973632812 429.254882812 529.9296875 429.254882812 525.30859375 c 0
 429.751953125 520.686523438 430 515.48828125 430 509.7109375 c 0
 430 486.603515625 429.255859375 467.250976562 427.765625 451.653320312 c 0
 426.774414062 436.055664062 423.05078125 423.634765625 416.59765625 414.391601562 c 0
 410.14453125 405.149414062 399.96875 398.794921875 386.0703125 395.329101562 c 0
 372.170898438 391.86328125 352.813476562 390.12890625 327.993164062 390.12890625 c 0
 305.16015625 390.12890625 288.283203125 393.595703125 277.362304688 400.528320312 c 0
 266.442382812 408.038085938 259.4921875 416.703125 256.513671875 426.524414062 c 0
 254.032226562 436.921875 252.791015625 445.587890625 252.791015625 452.51953125 c 0
 252.791015625 454.252929688 252.791015625 455.986328125 252.791015625 457.71875 c 0
 253.288085938 459.452148438 253.536132812 461.184570312 253.536132812 462.91796875 c 2
 265.44921875 618.028320312 l 1
 210.181640625 610.228515625 l 1
 206.70703125 593.475585938 201.744140625 575.857421875 195.291015625 557.370117188 c 0
 189.333984375 538.883789062 187.135742188 530.553710938 178.698242188 514.377929688 c 0
 168.274414062 493.58203125 154.87109375 474.517578125 138.491210938 457.186523438 c 0
 122.606445312 440.43359375 105.977539062 425.703125 88.6044921875 412.994140625 c 0
 71.7275390625 400.86328125 56.0908203125 391.331054688 41.6962890625 384.3984375 c 0
 27.796875 377.465820312 17.62109375 374 11.1689453125 374 c 0
 3.72265625 374 0 377.465820312 0 384.3984375 c 0
 0 387.864257812 1.4892578125 391.908203125 4.4677734375 396.530273438 c 0
 7.9423828125 401.728515625 13.154296875 406.350585938 20.103515625 410.393554688 c 0
 54.353515625 435.235351562 80.662109375 460.076171875 99.0283203125 484.916015625 c 0
 117.890625 510.334960938 131.541015625 534.59765625 139.98046875 557.705078125 c 0
 148.915039062 581.389648438 150.120117188 590.875976562 153.59375 604.163085938 c 1
 117.110351562 600.697265625 l 2
 111.650390625 600.120117188 106.685546875 599.541992188 102.21875 598.963867188 c 0
 97.7509765625 598.385742188 93.5322265625 598.09765625 89.560546875 598.09765625 c 0
 80.1298828125 598.09765625 72.1875 601.275390625 65.734375 607.62890625 c 0
 59.28125 613.984375 54.56640625 620.916015625 51.587890625 628.42578125 c 0
 48.609375 635.935546875 46.6240234375 641.134765625 45.630859375 644.024414062 c 0
 44.6376953125 645.756835938 44.1416015625 648.068359375 44.1416015625 650.956054688 c 0
 44.1416015625 657.887695312 47.1201171875 661.35546875 53.0771484375 661.35546875 c 0
 54.5654296875 661.35546875 57.0478515625 660.77734375 60.5224609375 659.622070312 c 0
 65.486328125 657.310546875 70.4501953125 655.8671875 75.4140625 655.2890625 c 0
 80.3779296875 654.7109375 84.845703125 654.421875 88.81640625 654.421875 c 2
 95.517578125 654.421875 l 1
 164.017578125 662.220703125 l 1
 165.5078125 674.9296875 166.748046875 687.927734375 167.741210938 701.21484375 c 0
 168.734375 715.080078125 169.23046875 726.921875 169.23046875 736.743164062 c 0
 169.23046875 746.563476562 168.734375 754.073242188 167.741210938 759.272460938 c 0
 167.245117188 765.049804688 165.755859375 771.693359375 163.274414062 779.203125 c 0
 162.77734375 780.936523438 162.529296875 783.536132812 162.529296875 787.001953125 c 0
 162.529296875 795.666992188 166.748046875 800 175.186523438 800 c 0
 176.67578125 800 181.391601562 798.555664062 189.333984375 795.666992188 c 0
 197.772460938 793.356445312 206.2109375 789.0234375 214.649414062 782.668945312 c 0
 223.583984375 776.314453125 228.051757812 768.227539062 228.051757812 758.40625 c 2
 228.051757812 755.806640625 l 2
 227.5546875 742.51953125 226.563476562 727.5 225.073242188 710.747070312 c 0
 223.583984375 694.572265625 221.846679688 680.12890625 219.861328125 667.419921875 c 1
 284.807617188 675.21875 l 1
 290.764648438 675.21875 l 2
 301.189453125 675.21875 308.8828125 672.331054688 313.845703125 666.553710938 c 0
 319.306640625 661.35546875 322.78125 656.155273438 324.26953125 650.956054688 c 2
 326.50390625 642.291015625 l 2
 326.50390625 636.513671875 325.510742188 631.603515625 323.526367188 627.559570312 c 0
 322.037109375 624.09375 321.043945312 620.626953125 320.547851562 617.161132812 c 2
 307.889648438 468.1171875 l 1
 307.889648438 462.91796875 l 2
207.041015625 294.021484375 m 0
 210.018554688 283.596679688 216.471679688 274.91015625 226.400390625 267.9609375 c 0
 236.82421875 261.5078125 253.701171875 256.543945312 277.03125 253.0703125 c 0
 300.360351562 250.090820312 332.873046875 248.6015625 374.569335938 248.6015625 c 0
 400.380859375 248.6015625 464.44140625 249.346679688 490.749023438 250.8359375 c 0
 517.553710938 252.821289062 542.869140625 255.55078125 566.696289062 259.026367188 c 0
 583.573242188 262.00390625 596.23046875 264.983398438 604.668945312 267.9609375 c 0
 613.107421875 271.435546875 619.064453125 276.151367188 622.538085938 282.108398438 c 0
 626.508789062 288.560546875 628.5234375 291.999023438 633.0234375 302.999023438 c 0
 636.994140625 320.372070312 637.918945312 321.155273438 640.897460938 338.032226562 c 0
 643.875976562 354.909179688 646.109375 371.786132812 647.59765625 388.663085938 c 0
 650.577148438 414.474609375 656.533203125 427.380859375 665.467773438 427.380859375 c 0
 672.416992188 427.380859375 677.1328125 421.920898438 679.615234375 411 c 0
 682.096679688 400.576171875 683.833984375 388.911132812 684.827148438 376.004882812 c 0
 685.8203125 363.099609375 686.31640625 351.185546875 686.31640625 340.265625 c 0
 686.811523438 329.345703125 687.060546875 322.396484375 687.060546875 319.41796875 c 0
 687.060546875 286.657226562 687.987304688 283.357421875 683.0234375 263.999023438 c 0
 678.555664062 244.639648438 666.467773438 230.484375 651.577148438 221.052734375 c 0
 637.181640625 211.125 615.092773438 204.17578125 585.309570312 200.205078125 c 0
 557.015625 196.73046875 527.977539062 194 498.1953125 192.014648438 c 0
 468.412109375 190.029296875 401.622070312 189.036132812 373.825195312 189.036132812 c 0
 330.639648438 189.036132812 294.404296875 190.526367188 265.1171875 193.50390625 c 0
 235.831054688 196.482421875 212.004882812 202.686523438 193.638671875 212.118164062 c 0
 175.768554688 221.052734375 166.86328125 234.20703125 158.920898438 251.580078125 c 0
 150.978515625 269.450195312 147.0078125 292.780273438 147.0078125 321.5703125 c 2
 148.190429688 440.126953125 l 1
 82.40234375 429.296875 l 2
 76.619140625 428.333984375 71.3173828125 427.372070312 66.498046875 426.409179688 c 0
 62.16015625 425.927734375 58.0634765625 425.686523438 54.2080078125 425.686523438 c 0
 46.978515625 425.686523438 40.4716796875 428.09375 34.6884765625 432.907226562 c 0
 28.904296875 437.719726562 24.326171875 442.534179688 20.9521484375 447.346679688 c 0
 18.060546875 452.161132812 16.3740234375 455.048828125 15.8916015625 456.01171875 c 0
 13.9638671875 459.86328125 13 462.750976562 13 464.67578125 c 0
 13 470.452148438 16.3740234375 473.33984375 23.12109375 473.33984375 c 2
 35.4111328125 473.33984375 l 2
 45.5322265625 473.33984375 54.9306640625 474.061523438 63.6064453125 475.505859375 c 2
 148.913085938 489.224609375 l 1
 151.08203125 643.026367188 l 1
 138.791992188 638.694335938 l 2
 130.598632812 636.287109375 120.959960938 633.399414062 109.874023438 630.030273438 c 0
 99.271484375 627.141601562 88.9091796875 624.494140625 78.7880859375 622.087890625 c 0
 69.1484375 620.162109375 61.1962890625 619.200195312 54.9306640625 619.200195312 c 0
 43.845703125 619.200195312 38.302734375 622.569335938 38.302734375 629.307617188 c 0
 38.302734375 636.046875 45.05078125 642.064453125 58.5458984375 647.359375 c 0
 88.4267578125 658.911132812 118.549804688 672.62890625 148.913085938 688.513671875 c 0
 179.758789062 704.879882812 206.026367188 721.245117188 227.713867188 737.611328125 c 0
 236.872070312 744.350585938 242.896484375 752.291992188 245.788085938 761.4375 c 0
 248.198242188 767.6953125 252.53515625 770.82421875 258.80078125 770.82421875 c 0
 264.583984375 770.82421875 270.609375 767.6953125 276.874023438 761.4375 c 0
 283.622070312 755.662109375 289.1640625 749.1640625 293.501953125 741.943359375 c 0
 297.83984375 735.204101562 300.008789062 729.428710938 300.008789062 724.615234375 c 0
 300.008789062 720.282226562 294.224609375 714.265625 282.658203125 706.564453125 c 0
 271.573242188 699.34375 258.559570312 691.8828125 243.619140625 684.181640625 c 0
 229.16015625 676.48046875 215.90625 669.982421875 203.857421875 664.686523438 c 1
 203.133789062 497.888671875 l 1
 244.5078125 505.037109375 l 1
 244.5078125 505.037109375 258.17578125 508.533203125 262.99609375 510.940429688 c 0
 265.88671875 512.865234375 269.01953125 513.828125 272.393554688 513.828125 c 0
 276.25 513.828125 281.55078125 512.142578125 288.298828125 508.7734375 c 0
 295.045898438 505.884765625 301.552734375 501.793945312 307.818359375 496.499023438 c 0
 314.083984375 491.685546875 317.215820312 486.150390625 317.215820312 479.892578125 c 0
 317.215820312 471.227539062 310.951171875 465.693359375 298.419921875 463.286132812 c 2
 203.133789062 448.791992188 l 1
 203.318359375 334.971679688 l 2
 203.318359375 318.591796875 204.55859375 304.94140625 207.041015625 294.021484375 c 0
EndSplineSet
EndChar

StartChar: c_xTuo_nBan
Encoding: 270 -1 14
Width: 1013
VWidth: -29
Flags: HW
LayerCount: 2
Fore
SplineSet
19.3330078125 527.669921875 m 0
 27.1552734375 525.53515625 36.7548828125 524.466796875 48.1328125 524.466796875 c 2
 58.798828125 524.466796875 l 1
 164.997070312 531.940429688 l 1
 164.997070312 619.7265625 l 1
 127.198242188 617.590820312 l 2
 122.930664062 617.590820312 118.6640625 617.235351562 114.3984375 616.524414062 c 2
 103.731445312 616.524414062 l 2
 88.0869140625 616.524414062 77.7763671875 618.302734375 72.798828125 621.862304688 c 0
 62.1318359375 629.69140625 54.3095703125 634.232421875 49.33203125 643.485351562 c 0
 45.0654296875 652.73828125 42.9326171875 649.85546875 42.9326171875 654.837890625 c 0
 42.9326171875 662.666992188 46.84375 666.58203125 54.666015625 666.58203125 c 0
 58.2216796875 666.58203125 61.4208984375 666.225585938 64.265625 665.513671875 c 0
 72.087890625 663.37890625 81.6875 662.310546875 93.0654296875 662.310546875 c 2
 103.731445312 662.310546875 l 1
 115.463867188 663.37890625 l 2
 123.286132812 663.37890625 140.819335938 663.735351562 150.064453125 664.447265625 c 0
 159.307617188 665.158203125 165.708007812 665.513671875 169.262695312 665.513671875 c 1
 164.997070312 665.513671875 l 1
 164.997070312 694.647460938 l 1
 166.063476562 731.670898438 l 2
 166.063476562 745.90625 162.5078125 759.07421875 155.397460938 771.173828125 c 0
 151.841796875 775.444335938 150.064453125 780.0703125 150.064453125 785.052734375 c 0
 150.064453125 795.017578125 156.463867188 800 169.262695312 800 c 0
 179.21875 800 191 795 191 795 c 2
 202.5 790.5 214.639648438 781.494140625 218.1953125 776.51171875 c 0
 222.461914062 771.529296875 224.594726562 764.412109375 224.594726562 755.159179688 c 2
 223.528320312 697.849609375 l 1
 223.528320312 669.78515625 l 1
 266.793945312 672.98828125 l 1
 283.860351562 675.123046875 l 2
 289.548828125 675.834960938 294.52734375 676.90234375 298.793945312 678.326171875 c 0
 300.926757812 679.038085938 303.771484375 679.392578125 307.327148438 679.392578125 c 0
 319.415039062 679.392578125 329.194335938 678.326171875 343.66796875 669.78515625 c 0
 358.141601562 661.244140625 360.659179688 653.450195312 360.659179688 645.620117188 c 0
 360.659179688 634.944335938 350.703125 632.538085938 330.79296875 630.403320312 c 2
 314.79296875 629.334960938 l 2
 304.126953125 628.624023438 291.681640625 627.912109375 277.4609375 627.200195312 c 0
 263.950195312 626.48828125 244.861328125 625.420898438 234.1953125 623.997070312 c 2
 223.528320312 622.928710938 l 1
 223.528320312 536.2109375 l 1
 303.134765625 543.68359375 l 1
 320.201171875 545.8203125 l 2
 325.889648438 546.53125 330.868164062 547.598632812 335.134765625 549.0234375 c 0
 337.267578125 549.734375 340.112304688 550.08984375 343.66796875 550.08984375 c 0
 349.357421875 550.08984375 356.112304688 547.598632812 363.93359375 542.6171875 c 0
 372.466796875 538.345703125 379.93359375 533.0078125 386.333007812 526.6015625 c 0
 393.444335938 520.196289062 397 518.079101562 397 510.25 c 0
 397 506.573242188 387.043945312 500.166992188 367.133789062 498.032226562 c 2
 223.528320312 486.288085938 l 1
 223.528320312 386.825195312 l 2
 223.528320312 378.99609375 232.615234375 361.954101562 186.329101562 365.471679688 c 1
 176.374023438 370.455078125 168.908203125 375.79296875 163.9296875 381.487304688 c 0
 159.6640625 387.180664062 157.530273438 394.297851562 157.530273438 402.83984375 c 2
 157.530273438 408.177734375 l 2
 157.530273438 411.025390625 157.885742188 413.872070312 158.596679688 416.71875 c 0
 160.018554688 420.278320312 161.0859375 424.192382812 161.796875 428.462890625 c 2
 161.796875 482.017578125 l 1
 83.33203125 476.678710938 l 2
 78.3544921875 475.967773438 74.0869140625 475.612304688 70.5322265625 475.612304688 c 2
 59.865234375 475.612304688 l 2
 43.509765625 475.612304688 32.84375 477.390625 27.8662109375 480.950195312 c 2
 22.533203125 485.220703125 l 2
 16.8447265625 490.203125 11.1552734375 496.609375 5.466796875 504.438476562 c 0
 0.5 511.2734375 1.2109375 508.670898438 0.5 516.5 c 0
 1.5 522.5 2.1357421875 524.466796875 10.7998046875 527.669921875 c 0
 14.3125 528.967773438 18.6220703125 527.669921875 19.3330078125 527.669921875 c 0
207.041015625 294.021484375 m 0
 210.018554688 283.596679688 216.471679688 274.91015625 226.400390625 267.9609375 c 0
 236.82421875 261.5078125 253.701171875 256.543945312 277.03125 253.0703125 c 0
 300.360351562 250.090820312 332.873046875 248.6015625 374.569335938 248.6015625 c 0
 400.380859375 248.6015625 464.44140625 249.346679688 490.749023438 250.8359375 c 0
 517.553710938 252.821289062 542.869140625 255.55078125 566.696289062 259.026367188 c 0
 583.573242188 262.00390625 596.23046875 264.983398438 604.668945312 267.9609375 c 0
 613.107421875 271.435546875 619.064453125 276.151367188 622.538085938 282.108398438 c 0
 626.508789062 288.560546875 628.5234375 291.999023438 633.0234375 302.999023438 c 0
 636.994140625 320.372070312 637.918945312 321.155273438 640.897460938 338.032226562 c 0
 643.875976562 354.909179688 646.109375 371.786132812 647.59765625 388.663085938 c 0
 650.577148438 414.474609375 656.533203125 427.380859375 665.467773438 427.380859375 c 0
 672.416992188 427.380859375 677.1328125 421.920898438 679.615234375 411 c 0
 682.096679688 400.576171875 683.833984375 388.911132812 684.827148438 376.004882812 c 0
 685.8203125 363.099609375 686.31640625 351.185546875 686.31640625 340.265625 c 0
 686.811523438 329.345703125 687.060546875 322.396484375 687.060546875 319.41796875 c 0
 687.060546875 286.657226562 687.987304688 283.357421875 683.0234375 263.999023438 c 0
 678.555664062 244.639648438 666.467773438 230.484375 651.577148438 221.052734375 c 0
 637.181640625 211.125 615.092773438 204.17578125 585.309570312 200.205078125 c 0
 557.015625 196.73046875 527.977539062 194 498.1953125 192.014648438 c 0
 468.412109375 190.029296875 401.622070312 189.036132812 373.825195312 189.036132812 c 0
 330.639648438 189.036132812 294.404296875 190.526367188 265.1171875 193.50390625 c 0
 235.831054688 196.482421875 212.004882812 202.686523438 193.638671875 212.118164062 c 0
 175.768554688 221.052734375 166.86328125 234.20703125 158.920898438 251.580078125 c 0
 150.978515625 269.450195312 147.0078125 292.780273438 147.0078125 321.5703125 c 2
 148.190429688 440.126953125 l 1
 82.40234375 429.296875 l 2
 76.619140625 428.333984375 71.3173828125 427.372070312 66.498046875 426.409179688 c 0
 62.16015625 425.927734375 58.0634765625 425.686523438 54.2080078125 425.686523438 c 0
 46.978515625 425.686523438 40.4716796875 428.09375 34.6884765625 432.907226562 c 0
 28.904296875 437.719726562 24.326171875 442.534179688 20.9521484375 447.346679688 c 0
 18.060546875 452.161132812 16.3740234375 455.048828125 15.8916015625 456.01171875 c 0
 13.9638671875 459.86328125 13 462.750976562 13 464.67578125 c 0
 13 470.452148438 16.3740234375 473.33984375 23.12109375 473.33984375 c 2
 35.4111328125 473.33984375 l 2
 45.5322265625 473.33984375 54.9306640625 474.061523438 63.6064453125 475.505859375 c 2
 148.913085938 489.224609375 l 1
 151.08203125 643.026367188 l 1
 138.791992188 638.694335938 l 2
 130.598632812 636.287109375 120.959960938 633.399414062 109.874023438 630.030273438 c 0
 99.271484375 627.141601562 88.9091796875 624.494140625 78.7880859375 622.087890625 c 0
 69.1484375 620.162109375 61.1962890625 619.200195312 54.9306640625 619.200195312 c 0
 43.845703125 619.200195312 38.302734375 622.569335938 38.302734375 629.307617188 c 0
 38.302734375 636.046875 45.05078125 642.064453125 58.5458984375 647.359375 c 0
 88.4267578125 658.911132812 118.549804688 672.62890625 148.913085938 688.513671875 c 0
 179.758789062 704.879882812 206.026367188 721.245117188 227.713867188 737.611328125 c 0
 236.872070312 744.350585938 242.896484375 752.291992188 245.788085938 761.4375 c 0
 248.198242188 767.6953125 252.53515625 770.82421875 258.80078125 770.82421875 c 0
 264.583984375 770.82421875 270.609375 767.6953125 276.874023438 761.4375 c 0
 283.622070312 755.662109375 289.1640625 749.1640625 293.501953125 741.943359375 c 0
 297.83984375 735.204101562 300.008789062 729.428710938 300.008789062 724.615234375 c 0
 300.008789062 720.282226562 294.224609375 714.265625 282.658203125 706.564453125 c 0
 271.573242188 699.34375 258.559570312 691.8828125 243.619140625 684.181640625 c 0
 229.16015625 676.48046875 215.90625 669.982421875 203.857421875 664.686523438 c 1
 203.133789062 497.888671875 l 1
 244.5078125 505.037109375 l 1
 244.5078125 505.037109375 258.17578125 508.533203125 262.99609375 510.940429688 c 0
 265.88671875 512.865234375 269.01953125 513.828125 272.393554688 513.828125 c 0
 276.25 513.828125 281.55078125 512.142578125 288.298828125 508.7734375 c 0
 295.045898438 505.884765625 301.552734375 501.793945312 307.818359375 496.499023438 c 0
 314.083984375 491.685546875 317.215820312 486.150390625 317.215820312 479.892578125 c 0
 317.215820312 471.227539062 310.951171875 465.693359375 298.419921875 463.286132812 c 2
 203.133789062 448.791992188 l 1
 203.318359375 334.971679688 l 2
 203.318359375 318.591796875 204.55859375 304.94140625 207.041015625 294.021484375 c 0
EndSplineSet
EndChar

StartChar: c_xPi_n1
Encoding: 271 -1 15
Width: 1000
VWidth: -17
Flags: HW
LayerCount: 2
Fore
SplineSet
71.478515625 713.162109375 m 2
 67.01171875 712.666015625 63.0400390625 712.41796875 59.5654296875 712.41796875 c 0
 56.0908203125 712.41796875 53.1123046875 712.41796875 50.630859375 712.41796875 c 0
 39.7099609375 712.41796875 31.2724609375 714.403320312 25.3154296875 718.374023438 c 0
 20.84765625 722.345703125 16.62890625 727.309570312 12.6572265625 733.265625 c 0
 9.1826171875 739.71875 6.205078125 745.923828125 3.72265625 751.879882812 c 0
 1.2412109375 758.333007812 0 762.80078125 0 765.282226562 c 0
 0 771.239257812 2.73046875 774.216796875 8.1904296875 774.216796875 c 0
 9.6796875 774.216796875 12.1611328125 773.720703125 15.6357421875 772.728515625 c 0
 24.07421875 770.24609375 33.009765625 769.004882812 42.4404296875 769.004882812 c 0
 44.9228515625 769.004882812 47.15625 769.004882812 49.1416015625 769.004882812 c 0
 51.6240234375 769.501953125 53.857421875 769.75 55.8427734375 769.75 c 2
 332.744140625 792.5546875 l 2
 337.2109375 793.05078125 341.926757812 793.794921875 346.889648438 794.788085938 c 0
 351.853515625 795.78125 357.06640625 797.26953125 362.526367188 799.255859375 c 0
 364.015625 799.751953125 366.000976562 800 368.483398438 800 c 0
 373.447265625 800 379.65234375 797.766601562 387.096679688 793.298828125 c 0
 394.54296875 788.831054688 401.244140625 783.123046875 407.201171875 776.173828125 c 0
 413.654296875 769.224609375 416.879882812 762.5234375 416.879882812 756.0703125 c 0
 416.879882812 750.610351562 414.646484375 746.390625 410.178710938 743.413085938 c 0
 406.208007812 740.930664062 401.244140625 739.44140625 395.288085938 738.9453125 c 2
 71.478515625 713.162109375 l 2
233.823242188 625.6015625 m 1
 573.12890625 645.823242188 l 1
 585.435546875 726.705078125 l 1
 239.096679688 705.60546875 l 1
 237.924804688 679.817382812 236.166992188 653.149414062 233.823242188 625.6015625 c 1
12.306640625 200.970703125 m 0
 4.1025390625 200.970703125 0 205.073242188 0 213.279296875 c 0
 0 220.311523438 4.3955078125 227.344726562 13.185546875 234.37890625 c 0
 124.530273438 342.220703125 180.202148438 497.83203125 180.202148438 701.208984375 c 0
 180.202148438 722.895507812 176.391601562 743.115234375 168.774414062 761.87109375 c 1
 167.89453125 768.904296875 l 2
 167.89453125 776.5234375 173.461914062 780.333007812 184.596679688 780.333007812 c 0
 192.80078125 780.333007812 210.967773438 773.006835938 239.096679688 758.354492188 c 1
 604.774414062 782.970703125 l 2
 617.081054688 782.970703125 628.21484375 778.868164062 638.176757812 770.663085938 c 0
 648.725585938 763.04296875 654 756.302734375 654 750.442382812 c 0
 654 744.581054688 652.828125 740.185546875 650.484375 737.254882812 c 0
 648.725585938 734.32421875 641.987304688 703.260742188 630.265625 644.064453125 c 1
 644.916992188 631.169921875 652.2421875 621.206054688 652.2421875 614.172851562 c 0
 652.2421875 605.967773438 649.311523438 600.693359375 643.452148438 598.34765625 c 0
 638.176757812 596.00390625 502.219726562 587.504882812 235.581054688 572.852539062 c 1
 227.375976562 465.009765625 192.5078125 374.1640625 130.975585938 300.315429688 c 0
 97.572265625 258.702148438 66.220703125 229.103515625 36.9189453125 211.521484375 c 0
 25.78515625 204.487304688 17.5810546875 200.970703125 12.306640625 200.970703125 c 0
EndSplineSet
EndChar

StartChar: c_xPi_n10
Encoding: 272 -1 16
Width: 1000
VWidth: -17
Flags: HW
LayerCount: 2
Fore
SplineSet
163.174804688 572.934570312 m 1
 66.3857421875 565.219726562 l 2
 63.1923828125 564.752929688 60.2265625 564.518554688 57.4892578125 564.518554688 c 0
 54.7509765625 564.518554688 52.013671875 564.518554688 49.2763671875 564.518554688 c 0
 42.888671875 564.518554688 36.95703125 564.987304688 31.4814453125 565.921875 c 0
 26.0068359375 566.857421875 21.671875 569.1953125 18.478515625 572.934570312 c 0
 9.8095703125 583.689453125 3.8779296875 594.91015625 0.6845703125 606.598632812 c 0
 0.6845703125 607.534179688 0.4560546875 608.236328125 0 608.703125 c 0
 0 609.637695312 0 610.57421875 0 611.508789062 c 0
 0 616.65234375 2.28125 619.22265625 6.84375 619.22265625 c 0
 8.212890625 619.22265625 10.0380859375 618.522460938 12.3193359375 617.119140625 c 0
 16.8818359375 615.716796875 20.98828125 614.547851562 24.6376953125 613.61328125 c 0
 28.744140625 613.14453125 33.306640625 612.911132812 38.326171875 612.911132812 c 2
 46.5390625 612.911132812 l 1
 163.174804688 622.029296875 l 1
 163.174804688 753.010742188 l 2
 163.174804688 757.685546875 162.71875 762.361328125 161.805664062 767.037109375 c 0
 160.893554688 771.712890625 158.83984375 776.154296875 155.647460938 780.362304688 c 0
 153.365234375 783.635742188 152.223632812 786.908203125 152.223632812 790.181640625 c 0
 152.223632812 796.727539062 156.787109375 800 165.912109375 800 c 0
 172.299804688 800 180.055664062 798.59765625 189.181640625 795.791992188 c 0
 200.131835938 792.051757812 207.431640625 788.544921875 211.08203125 785.271484375 c 0
 214.732421875 782.466796875 216.556640625 777.323242188 216.556640625 769.842773438 c 2
 216.556640625 624.833984375 l 1
 305.34765625 631.846679688 l 2
 309.911132812 632.315429688 314.702148438 632.783203125 319.720703125 633.25 c 0
 325.196289062 634.184570312 330.213867188 635.587890625 334.77734375 637.458007812 c 0
 336.146484375 637.92578125 337.514648438 638.159179688 338.883789062 638.159179688 c 0
 340.251953125 638.626953125 341.62109375 638.861328125 342.990234375 638.861328125 c 0
 346.18359375 638.861328125 350.74609375 636.5234375 356.677734375 631.846679688 c 0
 362.609375 627.171875 368.311523438 621.794921875 373.788085938 615.716796875 c 0
 379.262695312 609.637695312 382 604.028320312 382 598.884765625 c 0
 382 593.741210938 379.947265625 590.467773438 375.83984375 589.06640625 c 0
 371.734375 587.663085938 367.627929688 586.727539062 363.521484375 586.259765625 c 2
 216.556640625 575.740234375 l 1
 217.2421875 387.443359375 l 2
 217.2421875 372.481445312 211.309570312 365 199.447265625 365 c 0
 191.235351562 365 182.110351562 368.973632812 172.072265625 376.922851562 c 0
 162.490234375 384.404296875 157.69921875 393.287109375 157.69921875 403.57421875 c 0
 157.69921875 406.846679688 157.927734375 409.41796875 158.383789062 411.288085938 c 0
 159.752929688 418.301757812 160.893554688 425.315429688 161.805664062 432.329101562 c 0
 162.71875 439.341796875 163.174804688 446.12109375 163.174804688 476.215820312 c 2
 163.174804688 572.934570312 l 1
233.823242188 625.6015625 m 1
 573.12890625 645.823242188 l 1
 585.435546875 726.705078125 l 1
 239.096679688 705.60546875 l 1
 237.924804688 679.817382812 236.166992188 653.149414062 233.823242188 625.6015625 c 1
12.306640625 200.970703125 m 0
 4.1025390625 200.970703125 0 205.073242188 0 213.279296875 c 0
 0 220.311523438 4.3955078125 227.344726562 13.185546875 234.37890625 c 0
 124.530273438 342.220703125 180.202148438 497.83203125 180.202148438 701.208984375 c 0
 180.202148438 722.895507812 176.391601562 743.115234375 168.774414062 761.87109375 c 1
 167.89453125 768.904296875 l 2
 167.89453125 776.5234375 173.461914062 780.333007812 184.596679688 780.333007812 c 0
 192.80078125 780.333007812 210.967773438 773.006835938 239.096679688 758.354492188 c 1
 604.774414062 782.970703125 l 2
 617.081054688 782.970703125 628.21484375 778.868164062 638.176757812 770.663085938 c 0
 648.725585938 763.04296875 654 756.302734375 654 750.442382812 c 0
 654 744.581054688 652.828125 740.185546875 650.484375 737.254882812 c 0
 648.725585938 734.32421875 641.987304688 703.260742188 630.265625 644.064453125 c 1
 644.916992188 631.169921875 652.2421875 621.206054688 652.2421875 614.172851562 c 0
 652.2421875 605.967773438 649.311523438 600.693359375 643.452148438 598.34765625 c 0
 638.176757812 596.00390625 502.219726562 587.504882812 235.581054688 572.852539062 c 1
 227.375976562 465.009765625 192.5078125 374.1640625 130.975585938 300.315429688 c 0
 97.572265625 258.702148438 66.220703125 229.103515625 36.9189453125 211.521484375 c 0
 25.78515625 204.487304688 17.5810546875 200.970703125 12.306640625 200.970703125 c 0
EndSplineSet
EndChar

StartChar: c_xPi_n11
Encoding: 273 -1 17
Width: 1000
VWidth: -17
Flags: HW
LayerCount: 2
Fore
SplineSet
164.068359375 629.953125 m 1
 164.6953125 387.673828125 l 2
 164.6953125 373.890625 159.678710938 367 149.649414062 367 c 0
 143.796875 367 137.528320312 369.087890625 130.840820312 373.264648438 c 0
 123.318359375 377.44140625 117.466796875 381.618164062 113.287109375 385.793945312 c 0
 109.525390625 389.970703125 107.643554688 395.19140625 107.643554688 401.456054688 c 0
 107.643554688 402.291015625 107.643554688 403.543945312 107.643554688 405.21484375 c 0
 107.643554688 406.467773438 107.852539062 407.9296875 108.271484375 409.599609375 c 0
 109.525390625 415.865234375 110.5703125 421.920898438 111.40625 427.767578125 c 0
 112.2421875 433.615234375 112.66015625 439.670898438 112.66015625 445.935546875 c 2
 112.66015625 627.448242188 l 1
 60.1845703125 620.163085938 l 2
 56.8408203125 619.745117188 53.7060546875 619.536132812 50.7802734375 619.536132812 c 0
 47.85546875 619.536132812 45.34765625 619.536132812 43.2578125 619.536132812 c 0
 33.2265625 619.536132812 25.7041015625 621.20703125 20.6884765625 624.547851562 c 0
 13.1650390625 631.6484375 7.732421875 639.583007812 4.388671875 648.353515625 c 0
 1.462890625 657.541992188 0 662.762695312 0 664.015625 c 0
 0 669.028320312 2.5078125 671.534179688 7.5234375 671.534179688 c 0
 8.77734375 671.534179688 10.8662109375 671.116210938 13.7919921875 670.28125 c 0
 17.1357421875 669.028320312 20.8974609375 668.193359375 25.0771484375 667.775390625 c 0
 29.6748046875 667.357421875 34.0634765625 667.1484375 38.2421875 667.1484375 c 2
 45.765625 667.1484375 l 1
 112.66015625 675.059570312 l 1
 112.66015625 758.026367188 l 2
 112.66015625 762.620117188 112.2421875 766.796875 111.40625 770.555664062 c 0
 110.5703125 774.732421875 108.690429688 778.700195312 105.763671875 782.458984375 c 0
 103.255859375 786.217773438 102.001953125 789.349609375 102.001953125 791.85546875 c 0
 102.001953125 797.28515625 106.181640625 800 114.541015625 800 c 0
 120.391601562 800 128.541992188 798.538085938 138.991210938 795.614257812 c 0
 149.439453125 793.108398438 156.126953125 790.185546875 159.052734375 786.84375 c 0
 162.396484375 783.502929688 164.068359375 778.909179688 164.068359375 773.061523438 c 2
 164.068359375 677.56640625 l 1
 306.635742188 693.9765625 l 2
 315.831054688 694.39453125 323.981445312 695.857421875 331.0859375 698.362304688 c 0
 332.33984375 699.198242188 334.220703125 699.615234375 336.728515625 699.615234375 c 0
 342.162109375 699.615234375 348.012695312 697.52734375 354.283203125 693.350585938 c 0
 360.551757812 689.173828125 365.985351562 684.162109375 370.583007812 678.315429688 c 0
 375.59765625 672.885742188 378.106445312 667.874023438 378.106445312 663.280273438 c 0
 378.106445312 659.102539062 376.015625 655.76171875 371.836914062 653.255859375 c 0
 368.075195312 650.75 363.477539062 649.2890625 358.043945312 648.87109375 c 2
 164.068359375 629.953125 l 1
248.380859375 488.478515625 m 1
 235.841796875 488.478515625 l 2
 229.991210938 488.478515625 224.348632812 488.688476562 218.915039062 489.106445312 c 0
 213.900390625 489.94140625 209.928710938 492.030273438 207.00390625 495.37109375 c 0
 202.40625 500.3828125 198.2265625 506.23046875 194.46484375 512.912109375 c 0
 191.12109375 519.59375 189.450195312 525.44140625 189.450195312 530.453125 c 0
 189.450195312 535.046875 191.748046875 537.344726562 196.345703125 537.344726562 c 0
 198.017578125 537.344726562 199.48046875 537.135742188 200.734375 536.717773438 c 0
 208.674804688 533.793945312 216.825195312 532.333007812 225.18359375 532.333007812 c 2
 230.827148438 532.333007812 l 1
 324.784179688 541.318359375 l 2
 328.963867188 541.736328125 333.3515625 542.154296875 337.950195312 542.571289062 c 0
 342.96484375 543.407226562 347.561523438 544.659179688 351.7421875 546.330078125 c 0
 354.66796875 547.165039062 356.756835938 547.583007812 358.010742188 547.583007812 c 0
 363.86328125 547.583007812 369.713867188 545.077148438 375.565429688 540.065429688 c 0
 381.416992188 535.470703125 386.013671875 530.458984375 389.358398438 525.030273438 c 0
 393.119140625 519.599609375 395 515.423828125 395 512.5 c 0
 395 507.90625 393.119140625 504.565429688 389.358398438 502.4765625 c 0
 386.013671875 500.805664062 382.04296875 499.76171875 377.446289062 499.34375 c 2
 248.380859375 488.478515625 l 1
233.823242188 625.6015625 m 1
 573.12890625 645.823242188 l 1
 585.435546875 726.705078125 l 1
 239.096679688 705.60546875 l 1
 237.924804688 679.817382812 236.166992188 653.149414062 233.823242188 625.6015625 c 1
12.306640625 200.970703125 m 0
 4.1025390625 200.970703125 0 205.073242188 0 213.279296875 c 0
 0 220.311523438 4.3955078125 227.344726562 13.185546875 234.37890625 c 0
 124.530273438 342.220703125 180.202148438 497.83203125 180.202148438 701.208984375 c 0
 180.202148438 722.895507812 176.391601562 743.115234375 168.774414062 761.87109375 c 1
 167.89453125 768.904296875 l 2
 167.89453125 776.5234375 173.461914062 780.333007812 184.596679688 780.333007812 c 0
 192.80078125 780.333007812 210.967773438 773.006835938 239.096679688 758.354492188 c 1
 604.774414062 782.970703125 l 2
 617.081054688 782.970703125 628.21484375 778.868164062 638.176757812 770.663085938 c 0
 648.725585938 763.04296875 654 756.302734375 654 750.442382812 c 0
 654 744.581054688 652.828125 740.185546875 650.484375 737.254882812 c 0
 648.725585938 734.32421875 641.987304688 703.260742188 630.265625 644.064453125 c 1
 644.916992188 631.169921875 652.2421875 621.206054688 652.2421875 614.172851562 c 0
 652.2421875 605.967773438 649.311523438 600.693359375 643.452148438 598.34765625 c 0
 638.176757812 596.00390625 502.219726562 587.504882812 235.581054688 572.852539062 c 1
 227.375976562 465.009765625 192.5078125 374.1640625 130.975585938 300.315429688 c 0
 97.572265625 258.702148438 66.220703125 229.103515625 36.9189453125 211.521484375 c 0
 25.78515625 204.487304688 17.5810546875 200.970703125 12.306640625 200.970703125 c 0
EndSplineSet
EndChar

StartChar: c_xPi_n12
Encoding: 274 -1 18
Width: 1000
VWidth: -17
Flags: HW
LayerCount: 2
Fore
SplineSet
163.951171875 629.953125 m 1
 164.578125 387.673828125 l 2
 164.578125 373.890625 159.56640625 367 149.541992188 367 c 0
 143.6953125 367 137.430664062 369.087890625 130.748046875 373.264648438 c 0
 123.23046875 377.44140625 117.3828125 381.618164062 113.20703125 385.793945312 c 0
 109.448242188 389.970703125 107.568359375 395.19140625 107.568359375 401.456054688 c 0
 107.568359375 402.291015625 107.568359375 403.543945312 107.568359375 405.21484375 c 0
 107.568359375 406.467773438 107.77734375 407.9296875 108.1953125 409.599609375 c 0
 109.448242188 415.865234375 110.4921875 421.920898438 111.327148438 427.767578125 c 0
 112.162109375 433.615234375 112.580078125 439.670898438 112.580078125 445.935546875 c 2
 112.580078125 627.448242188 l 1
 60.142578125 620.163085938 l 2
 56.80078125 619.745117188 53.66796875 619.536132812 50.7451171875 619.536132812 c 0
 47.8212890625 619.536132812 45.3154296875 619.536132812 43.2265625 619.536132812 c 0
 33.203125 619.536132812 25.685546875 621.20703125 20.673828125 624.547851562 c 0
 13.15625 631.6484375 7.7265625 639.583007812 4.3857421875 648.353515625 c 0
 1.4619140625 657.541992188 0 662.762695312 0 664.015625 c 0
 0 669.028320312 2.505859375 671.534179688 7.517578125 671.534179688 c 0
 8.7705078125 671.534179688 10.8583984375 671.116210938 13.7822265625 670.28125 c 0
 17.123046875 669.028320312 20.8828125 668.193359375 25.0595703125 667.775390625 c 0
 29.6533203125 667.357421875 34.0390625 667.1484375 38.2158203125 667.1484375 c 2
 45.7333984375 667.1484375 l 1
 112.580078125 675.059570312 l 1
 112.580078125 758.026367188 l 2
 112.580078125 762.620117188 112.162109375 766.796875 111.327148438 770.555664062 c 0
 110.4921875 774.732421875 108.612304688 778.700195312 105.689453125 782.458984375 c 0
 103.182617188 786.217773438 101.9296875 789.349609375 101.9296875 791.85546875 c 0
 101.9296875 797.28515625 106.106445312 800 114.459960938 800 c 0
 120.306640625 800 128.451171875 798.538085938 138.891601562 795.614257812 c 0
 149.333007812 793.108398438 156.015625 790.185546875 158.940429688 786.84375 c 0
 162.28125 783.502929688 163.951171875 778.909179688 163.951171875 773.061523438 c 2
 163.951171875 677.56640625 l 1
 306.418945312 693.9765625 l 2
 315.607421875 694.39453125 323.750976562 695.857421875 330.850585938 698.362304688 c 0
 332.103515625 699.198242188 333.984375 699.615234375 336.490234375 699.615234375 c 0
 341.918945312 699.615234375 347.765625 697.52734375 354.03125 693.350585938 c 0
 360.295898438 689.173828125 365.725585938 684.162109375 370.3203125 678.315429688 c 0
 375.33203125 672.885742188 377.837890625 667.874023438 377.837890625 663.280273438 c 0
 377.837890625 659.102539062 375.75 655.76171875 371.573242188 653.255859375 c 0
 367.814453125 650.75 363.219726562 649.2890625 357.790039062 648.87109375 c 2
 163.951171875 629.953125 l 1
227.916015625 423 m 1
 221.706054688 423 l 2
 213.977539062 423 207.353515625 424.850585938 201.833984375 428.551757812 c 0
 196.58984375 432.252929688 192.450195312 441.875976562 189.4140625 457.420898438 c 0
 189.4140625 458.161132812 189.276367188 458.715820312 189 459.0859375 c 0
 189 459.456054688 189 460.01171875 189 460.751953125 c 0
 189 464.823242188 190.517578125 466.859375 193.553710938 466.859375 c 0
 194.658203125 466.859375 195.624023438 466.673828125 196.452148438 466.302734375 c 0
 199.48828125 464.823242188 202.385742188 463.712890625 205.146484375 462.971679688 c 0
 207.90625 462.232421875 210.666015625 461.862304688 213.42578125 461.862304688 c 2
 216.32421875 461.862304688 l 1
 349.631835938 469.079101562 l 2
 352.391601562 469.44921875 355.290039062 469.8203125 358.326171875 470.190429688 c 0
 361.637695312 470.9296875 364.673828125 472.040039062 367.43359375 473.521484375 c 0
 369.366210938 474.260742188 371.022460938 474.630859375 372.40234375 474.630859375 c 0
 375.713867188 474.630859375 379.026367188 472.780273438 382.337890625 469.079101562 c 0
 385.92578125 465.377929688 389.099609375 461.122070312 391.860351562 456.309570312 c 0
 394.620117188 451.499023438 396 447.243164062 396 443.541015625 c 0
 396 439.469726562 394.7578125 436.508789062 392.274414062 434.659179688 c 0
 390.06640625 433.177734375 387.444335938 432.252929688 384.408203125 431.8828125 c 2
 227.916015625 423 l 1
251.513671875 534.58984375 m 2
 250.133789062 534.219726562 248.616210938 534.034179688 246.959960938 534.034179688 c 0
 245.580078125 534.034179688 244.200195312 534.034179688 242.8203125 534.034179688 c 0
 235.368164062 534.034179688 229.158203125 536.0703125 224.190429688 540.140625 c 0
 219.221679688 544.583007812 215.358398438 553.8359375 212.59765625 567.900390625 c 0
 212.59765625 568.639648438 212.459960938 569.1953125 212.18359375 569.56640625 c 0
 212.18359375 569.935546875 212.18359375 570.491210938 212.18359375 571.231445312 c 0
 212.18359375 575.301757812 213.702148438 577.337890625 216.73828125 577.337890625 c 0
 217.841796875 577.337890625 218.807617188 577.153320312 219.635742188 576.783203125 c 0
 224.879882812 574.192382812 230.26171875 572.897460938 235.782226562 572.897460938 c 2
 239.5078125 572.897460938 l 1
 311.958007812 579.002929688 l 2
 314.717773438 579.374023438 317.616210938 579.744140625 320.65234375 580.114257812 c 0
 323.963867188 580.853515625 327 581.963867188 329.759765625 583.4453125 c 0
 330.864257812 583.815429688 332.244140625 584 333.900390625 584 c 0
 336.66015625 584 339.971679688 582.333984375 343.8359375 579.002929688 c 0
 347.700195312 575.671875 351.150390625 571.600585938 354.185546875 566.790039062 c 0
 357.221679688 561.977539062 358.740234375 557.721679688 358.740234375 554.021484375 c 0
 358.740234375 549.94921875 357.498046875 547.173828125 355.013671875 545.693359375 c 0
 352.530273438 544.212890625 349.908203125 543.287109375 347.1484375 542.916992188 c 2
 251.513671875 534.58984375 l 2
233.823242188 625.6015625 m 1
 573.12890625 645.823242188 l 1
 585.435546875 726.705078125 l 1
 239.096679688 705.60546875 l 1
 237.924804688 679.817382812 236.166992188 653.149414062 233.823242188 625.6015625 c 1
12.306640625 200.970703125 m 0
 4.1025390625 200.970703125 0 205.073242188 0 213.279296875 c 0
 0 220.311523438 4.3955078125 227.344726562 13.185546875 234.37890625 c 0
 124.530273438 342.220703125 180.202148438 497.83203125 180.202148438 701.208984375 c 0
 180.202148438 722.895507812 176.391601562 743.115234375 168.774414062 761.87109375 c 1
 167.89453125 768.904296875 l 2
 167.89453125 776.5234375 173.461914062 780.333007812 184.596679688 780.333007812 c 0
 192.80078125 780.333007812 210.967773438 773.006835938 239.096679688 758.354492188 c 1
 604.774414062 782.970703125 l 2
 617.081054688 782.970703125 628.21484375 778.868164062 638.176757812 770.663085938 c 0
 648.725585938 763.04296875 654 756.302734375 654 750.442382812 c 0
 654 744.581054688 652.828125 740.185546875 650.484375 737.254882812 c 0
 648.725585938 734.32421875 641.987304688 703.260742188 630.265625 644.064453125 c 1
 644.916992188 631.169921875 652.2421875 621.206054688 652.2421875 614.172851562 c 0
 652.2421875 605.967773438 649.311523438 600.693359375 643.452148438 598.34765625 c 0
 638.176757812 596.00390625 502.219726562 587.504882812 235.581054688 572.852539062 c 1
 227.375976562 465.009765625 192.5078125 374.1640625 130.975585938 300.315429688 c 0
 97.572265625 258.702148438 66.220703125 229.103515625 36.9189453125 211.521484375 c 0
 25.78515625 204.487304688 17.5810546875 200.970703125 12.306640625 200.970703125 c 0
EndSplineSet
EndChar

StartChar: c_xPi_n13
Encoding: 275 -1 19
Width: 1000
VWidth: -17
Flags: HW
LayerCount: 2
Fore
SplineSet
164.068359375 629.953125 m 1
 164.6953125 387.673828125 l 2
 164.6953125 373.890625 159.678710938 367 149.649414062 367 c 0
 143.796875 367 137.528320312 369.087890625 130.840820312 373.264648438 c 0
 123.318359375 377.44140625 117.466796875 381.618164062 113.287109375 385.793945312 c 0
 109.525390625 389.970703125 107.643554688 395.19140625 107.643554688 401.456054688 c 0
 107.643554688 402.291015625 107.643554688 403.543945312 107.643554688 405.21484375 c 0
 107.643554688 406.467773438 107.852539062 407.9296875 108.271484375 409.599609375 c 0
 109.525390625 415.865234375 110.5703125 421.920898438 111.40625 427.767578125 c 0
 112.2421875 433.615234375 112.66015625 439.670898438 112.66015625 445.935546875 c 2
 112.66015625 627.448242188 l 1
 60.1845703125 620.163085938 l 2
 56.8408203125 619.745117188 53.7060546875 619.536132812 50.7802734375 619.536132812 c 0
 47.85546875 619.536132812 45.34765625 619.536132812 43.2578125 619.536132812 c 0
 33.2265625 619.536132812 25.7041015625 621.20703125 20.6884765625 624.547851562 c 0
 13.1650390625 631.6484375 7.732421875 639.583007812 4.388671875 648.353515625 c 0
 1.462890625 657.541992188 0 662.762695312 0 664.015625 c 0
 0 669.028320312 2.5078125 671.534179688 7.5234375 671.534179688 c 0
 8.77734375 671.534179688 10.8662109375 671.116210938 13.7919921875 670.28125 c 0
 17.1357421875 669.028320312 20.8974609375 668.193359375 25.0771484375 667.775390625 c 0
 29.6748046875 667.357421875 34.0634765625 667.1484375 38.2421875 667.1484375 c 2
 45.765625 667.1484375 l 1
 112.66015625 675.059570312 l 1
 112.66015625 758.026367188 l 2
 112.66015625 762.620117188 112.2421875 766.796875 111.40625 770.555664062 c 0
 110.5703125 774.732421875 108.690429688 778.700195312 105.763671875 782.458984375 c 0
 103.255859375 786.217773438 102.001953125 789.349609375 102.001953125 791.85546875 c 0
 102.001953125 797.28515625 106.181640625 800 114.541015625 800 c 0
 120.391601562 800 128.541992188 798.538085938 138.991210938 795.614257812 c 0
 149.439453125 793.108398438 156.126953125 790.185546875 159.052734375 786.84375 c 0
 162.396484375 783.502929688 164.068359375 778.909179688 164.068359375 773.061523438 c 2
 164.068359375 677.56640625 l 1
 306.635742188 693.9765625 l 2
 315.831054688 694.39453125 323.981445312 695.857421875 331.0859375 698.362304688 c 0
 332.33984375 699.198242188 334.220703125 699.615234375 336.728515625 699.615234375 c 0
 342.162109375 699.615234375 348.012695312 697.52734375 354.283203125 693.350585938 c 0
 360.551757812 689.173828125 365.985351562 684.162109375 370.583007812 678.315429688 c 0
 375.59765625 672.885742188 378.106445312 667.874023438 378.106445312 663.280273438 c 0
 378.106445312 659.102539062 376.015625 655.76171875 371.836914062 653.255859375 c 0
 368.075195312 650.75 363.477539062 649.2890625 358.043945312 648.87109375 c 2
 164.068359375 629.953125 l 1
213.649414062 406.5078125 m 2
 211.666992188 406.5078125 209.684570312 406.338867188 207.703125 406 c 0
 205.720703125 406 203.879882812 406 202.180664062 406 c 0
 194.537109375 406 188.732421875 408.708007812 184.767578125 414.124023438 c 0
 181.087890625 419.541015625 178.3984375 424.788085938 176.69921875 429.865234375 c 2
 175 437.990234375 l 2
 175 442.389648438 176.69921875 444.590820312 180.095703125 444.590820312 c 0
 180.946289062 444.590820312 181.654296875 444.420898438 182.219726562 444.083007812 c 0
 183.069335938 444.083007812 183.918945312 443.9140625 184.767578125 443.575195312 c 0
 190.713867188 441.8828125 196.518554688 441.036132812 202.180664062 441.036132812 c 2
 206.00390625 441.036132812 l 1
 346.158203125 448.653320312 l 2
 349.555664062 448.991210938 352.670898438 449.330078125 355.501953125 449.66796875 c 0
 358.333007812 450.344726562 361.305664062 451.361328125 364.420898438 452.71484375 c 0
 365.552734375 453.053710938 366.96875 453.22265625 368.66796875 453.22265625 c 0
 371.499023438 453.22265625 374.897460938 451.700195312 378.861328125 448.653320312 c 0
 383.108398438 445.606445312 386.7890625 441.8828125 389.904296875 437.482421875 c 0
 393.30078125 433.081054688 395 429.188476562 395 425.802734375 c 0
 395 422.079101562 393.583984375 419.541015625 390.752929688 418.186523438 c 0
 387.920898438 416.83203125 384.94921875 415.986328125 381.833984375 415.6484375 c 2
 213.649414062 406.5078125 l 2
251.873046875 485.719726562 m 2
 249.890625 485.719726562 247.909179688 485.55078125 245.926757812 485.211914062 c 0
 243.9453125 485.211914062 242.103515625 485.211914062 240.405273438 485.211914062 c 0
 232.760742188 485.211914062 226.956054688 487.750976562 222.9921875 492.829101562 c 0
 219.310546875 497.907226562 216.762695312 502.984375 215.34765625 508.061523438 c 0
 213.931640625 513.477539062 213.223632812 516.525390625 213.223632812 517.202148438 c 0
 213.223632812 521.263671875 214.922851562 523.294921875 218.3203125 523.294921875 c 0
 219.169921875 523.294921875 219.877929688 523.125976562 220.444335938 522.788085938 c 0
 221.29296875 522.788085938 222.142578125 522.618164062 222.9921875 522.280273438 c 0
 225.541015625 521.602539062 228.23046875 520.92578125 231.061523438 520.249023438 c 0
 233.892578125 519.91015625 236.866210938 519.741210938 239.981445312 519.741210938 c 2
 243.802734375 519.741210938 l 1
 301.98828125 523.802734375 l 2
 305.668945312 524.141601562 308.924804688 524.48046875 311.756835938 524.819335938 c 0
 314.587890625 525.49609375 317.419921875 526.510742188 320.250976562 527.865234375 c 0
 321.383789062 528.204101562 322.798828125 528.373046875 324.498046875 528.373046875 c 0
 327.045898438 528.373046875 330.301757812 526.6796875 334.265625 523.294921875 c 0
 338.23046875 520.249023438 341.911132812 516.694335938 345.30859375 512.631835938 c 0
 348.990234375 508.5703125 350.830078125 504.676757812 350.830078125 500.953125 c 0
 350.830078125 496.890625 349.4140625 494.3515625 346.583007812 493.336914062 c 0
 343.751953125 492.66015625 340.63671875 492.15234375 337.239257812 491.813476562 c 2
 251.873046875 485.719726562 l 2
237.0078125 556.807617188 m 2
 234.743164062 556.469726562 232.619140625 556.30078125 230.63671875 556.30078125 c 0
 228.938476562 556.30078125 227.239257812 556.30078125 225.541015625 556.30078125 c 0
 219.310546875 556.30078125 215.064453125 557.485351562 212.798828125 559.85546875 c 0
 210.534179688 562.224609375 207.419921875 565.948242188 203.456054688 571.026367188 c 0
 199.775390625 576.103515625 197.93359375 581.858398438 197.93359375 588.290039062 c 0
 197.93359375 592.3515625 199.6328125 594.3828125 203.03125 594.3828125 c 0
 203.879882812 594.3828125 204.587890625 594.213867188 205.154296875 593.875976562 c 0
 206.00390625 593.875976562 206.852539062 593.706054688 207.703125 593.368164062 c 0
 210.250976562 592.69140625 212.94140625 592.013671875 215.772460938 591.336914062 c 0
 218.603515625 590.998046875 221.577148438 590.829101562 224.69140625 590.829101562 c 2
 228.512695312 590.829101562 l 1
 318.126953125 597.4296875 l 2
 321.807617188 597.768554688 325.064453125 598.107421875 327.896484375 598.446289062 c 0
 330.7265625 599.123046875 333.55859375 600.137695312 336.389648438 601.4921875 c 0
 337.5234375 601.831054688 338.938476562 602 340.63671875 602 c 0
 343.184570312 602 346.44140625 600.306640625 350.405273438 596.921875 c 0
 354.369140625 593.875976562 358.049804688 590.321289062 361.448242188 586.258789062 c 0
 365.12890625 582.197265625 366.96875 578.303710938 366.96875 574.580078125 c 0
 366.96875 570.517578125 365.552734375 567.978515625 362.721679688 566.963867188 c 0
 359.890625 566.287109375 356.776367188 565.779296875 353.377929688 565.440429688 c 2
 237.0078125 556.807617188 l 2
233.823242188 625.6015625 m 1
 573.12890625 645.823242188 l 1
 585.435546875 726.705078125 l 1
 239.096679688 705.60546875 l 1
 237.924804688 679.817382812 236.166992188 653.149414062 233.823242188 625.6015625 c 1
12.306640625 200.970703125 m 0
 4.1025390625 200.970703125 0 205.073242188 0 213.279296875 c 0
 0 220.311523438 4.3955078125 227.344726562 13.185546875 234.37890625 c 0
 124.530273438 342.220703125 180.202148438 497.83203125 180.202148438 701.208984375 c 0
 180.202148438 722.895507812 176.391601562 743.115234375 168.774414062 761.87109375 c 1
 167.89453125 768.904296875 l 2
 167.89453125 776.5234375 173.461914062 780.333007812 184.596679688 780.333007812 c 0
 192.80078125 780.333007812 210.967773438 773.006835938 239.096679688 758.354492188 c 1
 604.774414062 782.970703125 l 2
 617.081054688 782.970703125 628.21484375 778.868164062 638.176757812 770.663085938 c 0
 648.725585938 763.04296875 654 756.302734375 654 750.442382812 c 0
 654 744.581054688 652.828125 740.185546875 650.484375 737.254882812 c 0
 648.725585938 734.32421875 641.987304688 703.260742188 630.265625 644.064453125 c 1
 644.916992188 631.169921875 652.2421875 621.206054688 652.2421875 614.172851562 c 0
 652.2421875 605.967773438 649.311523438 600.693359375 643.452148438 598.34765625 c 0
 638.176757812 596.00390625 502.219726562 587.504882812 235.581054688 572.852539062 c 1
 227.375976562 465.009765625 192.5078125 374.1640625 130.975585938 300.315429688 c 0
 97.572265625 258.702148438 66.220703125 229.103515625 36.9189453125 211.521484375 c 0
 25.78515625 204.487304688 17.5810546875 200.970703125 12.306640625 200.970703125 c 0
EndSplineSet
EndChar

StartChar: c_xPi_n14
Encoding: 276 -1 20
Width: 1000
VWidth: -17
Flags: HW
LayerCount: 2
Fore
SplineSet
5.2119140625 389.030273438 m 0
 5.2119140625 393.994140625 5.9560546875 400.19921875 7.4453125 407.643554688 c 0
 9.4306640625 415.5859375 11.1689453125 571.665039062 12.6572265625 747.879882812 c 0
 12.6572265625 760.290039062 9.4306640625 770.713867188 2.978515625 779.15234375 c 0
 0.9921875 783.123046875 0 786.1015625 0 788.086914062 c 0
 0 796.029296875 4.71484375 800 14.146484375 800 c 0
 21.095703125 800 29.7822265625 797.766601562 40.2060546875 793.298828125 c 0
 51.126953125 788.831054688 58.076171875 784.860351562 61.0546875 781.385742188 c 0
 64.529296875 778.407226562 66.2666015625 773.69140625 66.2666015625 767.239257812 c 2
 65.5224609375 660.189453125 l 2
 65.5224609375 659.196289062 68.00390625 658.700195312 72.9677734375 658.700195312 c 0
 78.427734375 658.700195312 97.787109375 648.772460938 131.043945312 628.916992188 c 0
 207.983398438 583.747070312 246.453125 555.205078125 246.453125 543.291992188 c 0
 246.453125 536.341796875 243.225585938 528.897460938 236.7734375 520.954101562 c 0
 230.817382812 513.01171875 225.108398438 509.041015625 219.6484375 509.041015625 c 0
 214.188476562 509.041015625 207.983398438 511.5234375 201.034179688 516.487304688 c 0
 153.380859375 553.715820312 108.2109375 584.243164062 65.5224609375 608.069335938 c 1
 64.0322265625 383.073242188 l 2
 64.0322265625 368.181640625 58.572265625 360.736328125 47.65234375 360.736328125 c 0
 36.732421875 360.736328125 26.8046875 363.962890625 17.869140625 370.416015625 c 0
 9.4306640625 376.869140625 5.2119140625 383.073242188 5.2119140625 389.030273438 c 0
233.823242188 625.6015625 m 1
 573.12890625 645.823242188 l 1
 585.435546875 726.705078125 l 1
 239.096679688 705.60546875 l 1
 237.924804688 679.817382812 236.166992188 653.149414062 233.823242188 625.6015625 c 1
12.306640625 200.970703125 m 0
 4.1025390625 200.970703125 0 205.073242188 0 213.279296875 c 0
 0 220.311523438 4.3955078125 227.344726562 13.185546875 234.37890625 c 0
 124.530273438 342.220703125 180.202148438 497.83203125 180.202148438 701.208984375 c 0
 180.202148438 722.895507812 176.391601562 743.115234375 168.774414062 761.87109375 c 1
 167.89453125 768.904296875 l 2
 167.89453125 776.5234375 173.461914062 780.333007812 184.596679688 780.333007812 c 0
 192.80078125 780.333007812 210.967773438 773.006835938 239.096679688 758.354492188 c 1
 604.774414062 782.970703125 l 2
 617.081054688 782.970703125 628.21484375 778.868164062 638.176757812 770.663085938 c 0
 648.725585938 763.04296875 654 756.302734375 654 750.442382812 c 0
 654 744.581054688 652.828125 740.185546875 650.484375 737.254882812 c 0
 648.725585938 734.32421875 641.987304688 703.260742188 630.265625 644.064453125 c 1
 644.916992188 631.169921875 652.2421875 621.206054688 652.2421875 614.172851562 c 0
 652.2421875 605.967773438 649.311523438 600.693359375 643.452148438 598.34765625 c 0
 638.176757812 596.00390625 502.219726562 587.504882812 235.581054688 572.852539062 c 1
 227.375976562 465.009765625 192.5078125 374.1640625 130.975585938 300.315429688 c 0
 97.572265625 258.702148438 66.220703125 229.103515625 36.9189453125 211.521484375 c 0
 25.78515625 204.487304688 17.5810546875 200.970703125 12.306640625 200.970703125 c 0
EndSplineSet
EndChar

StartChar: c_xPi_n2
Encoding: 277 -1 21
Width: 1000
VWidth: -17
Flags: HW
LayerCount: 2
Fore
SplineSet
69.9892578125 557.07421875 m 1
 58.8212890625 557.07421875 l 2
 44.9228515625 557.07421875 33.009765625 559.555664062 23.08203125 564.51953125 c 0
 13.650390625 569.484375 6.205078125 582.389648438 0.744140625 603.23828125 c 0
 0.744140625 604.231445312 0.49609375 604.974609375 0 605.471679688 c 0
 0 605.967773438 0 606.712890625 0 607.705078125 c 0
 0 613.165039062 2.73046875 615.896484375 8.1904296875 615.896484375 c 0
 10.17578125 615.896484375 11.9130859375 615.647460938 13.40234375 615.151367188 c 0
 18.8623046875 613.165039062 24.07421875 611.67578125 29.0380859375 610.68359375 c 0
 34.001953125 609.69140625 38.9658203125 609.194335938 43.9296875 609.194335938 c 2
 49.1416015625 609.194335938 l 1
 325.892578125 618.874023438 l 2
 330.857421875 619.370117188 336.069335938 619.8671875 341.530273438 620.36328125 c 0
 347.486328125 621.356445312 352.946289062 622.844726562 357.91015625 624.830078125 c 0
 361.384765625 625.823242188 364.36328125 626.3203125 366.844726562 626.3203125 c 0
 372.80078125 626.3203125 378.7578125 623.837890625 384.71484375 618.874023438 c 0
 391.16796875 613.91015625 396.875976562 608.202148438 401.83984375 601.749023438 c 0
 406.803710938 595.295898438 409.28515625 589.586914062 409.28515625 584.624023438 c 0
 409.28515625 579.163085938 407.051757812 575.192382812 402.583984375 572.709960938 c 0
 398.61328125 570.724609375 393.8984375 569.484375 388.438476562 568.98828125 c 2
 69.9892578125 557.07421875 l 1
133.4296875 733.733398438 m 2
 130.948242188 733.236328125 128.217773438 732.98828125 125.240234375 732.98828125 c 0
 122.7578125 732.98828125 120.276367188 732.98828125 117.793945312 732.98828125 c 0
 104.391601562 732.98828125 93.2236328125 735.71875 84.2890625 741.178710938 c 0
 75.353515625 747.135742188 68.404296875 759.544921875 63.4404296875 778.407226562 c 0
 63.4404296875 779.400390625 63.1923828125 780.14453125 62.6962890625 780.641601562 c 0
 62.6962890625 781.137695312 62.6962890625 781.881835938 62.6962890625 782.875 c 0
 62.6962890625 788.334960938 65.42578125 791.065429688 70.88671875 791.065429688 c 0
 72.8720703125 791.065429688 74.609375 790.817382812 76.0986328125 790.3203125 c 0
 85.529296875 786.845703125 95.208984375 785.108398438 105.13671875 785.108398438 c 2
 111.837890625 785.108398438 l 1
 252.137695312 793.298828125 l 2
 257.100585938 793.794921875 262.313476562 794.291992188 267.774414062 794.788085938 c 0
 273.73046875 795.780273438 279.190429688 797.26953125 284.154296875 799.255859375 c 0
 286.139648438 799.751953125 288.622070312 800 291.599609375 800 c 0
 296.564453125 800 302.51953125 797.766601562 309.469726562 793.298828125 c 0
 316.418945312 788.831054688 322.624023438 783.37109375 328.083984375 776.91796875 c 0
 333.543945312 770.465820312 336.274414062 764.756835938 336.274414062 759.79296875 c 0
 336.274414062 754.333007812 334.040039062 750.610351562 329.573242188 748.625 c 0
 325.106445312 746.638671875 320.389648438 745.3984375 315.42578125 744.901367188 c 2
 133.4296875 733.733398438 l 2
233.823242188 625.6015625 m 1
 573.12890625 645.823242188 l 1
 585.435546875 726.705078125 l 1
 239.096679688 705.60546875 l 1
 237.924804688 679.817382812 236.166992188 653.149414062 233.823242188 625.6015625 c 1
12.306640625 200.970703125 m 0
 4.1025390625 200.970703125 0 205.073242188 0 213.279296875 c 0
 0 220.311523438 4.3955078125 227.344726562 13.185546875 234.37890625 c 0
 124.530273438 342.220703125 180.202148438 497.83203125 180.202148438 701.208984375 c 0
 180.202148438 722.895507812 176.391601562 743.115234375 168.774414062 761.87109375 c 1
 167.89453125 768.904296875 l 2
 167.89453125 776.5234375 173.461914062 780.333007812 184.596679688 780.333007812 c 0
 192.80078125 780.333007812 210.967773438 773.006835938 239.096679688 758.354492188 c 1
 604.774414062 782.970703125 l 2
 617.081054688 782.970703125 628.21484375 778.868164062 638.176757812 770.663085938 c 0
 648.725585938 763.04296875 654 756.302734375 654 750.442382812 c 0
 654 744.581054688 652.828125 740.185546875 650.484375 737.254882812 c 0
 648.725585938 734.32421875 641.987304688 703.260742188 630.265625 644.064453125 c 1
 644.916992188 631.169921875 652.2421875 621.206054688 652.2421875 614.172851562 c 0
 652.2421875 605.967773438 649.311523438 600.693359375 643.452148438 598.34765625 c 0
 638.176757812 596.00390625 502.219726562 587.504882812 235.581054688 572.852539062 c 1
 227.375976562 465.009765625 192.5078125 374.1640625 130.975585938 300.315429688 c 0
 97.572265625 258.702148438 66.220703125 229.103515625 36.9189453125 211.521484375 c 0
 25.78515625 204.487304688 17.5810546875 200.970703125 12.306640625 200.970703125 c 0
EndSplineSet
EndChar

StartChar: c_xPi_n3
Encoding: 278 -1 22
Width: 1000
VWidth: -17
Flags: HW
LayerCount: 2
Fore
SplineSet
67.755859375 513.33984375 m 2
 64.28125 513.33984375 60.806640625 513.091796875 57.33203125 512.595703125 c 0
 53.857421875 512.595703125 50.630859375 512.595703125 47.65234375 512.595703125 c 0
 34.25 512.595703125 24.07421875 516.567382812 17.125 524.508789062 c 0
 10.671875 532.451171875 5.9560546875 540.14453125 2.978515625 547.590820312 c 2
 0 559.50390625 l 2
 0 565.95703125 2.978515625 569.182617188 8.9345703125 569.182617188 c 0
 10.423828125 569.182617188 11.6650390625 568.934570312 12.6572265625 568.438476562 c 0
 14.146484375 568.438476562 15.6357421875 568.190429688 17.125 567.694335938 c 0
 27.548828125 565.211914062 37.724609375 563.970703125 47.65234375 563.970703125 c 2
 54.353515625 563.970703125 l 1
 300.061523438 575.139648438 l 2
 306.018554688 575.635742188 311.478515625 576.131835938 316.443359375 576.62890625 c 0
 321.40625 577.622070312 326.618164062 579.111328125 332.078125 581.095703125 c 0
 334.064453125 581.592773438 336.545898438 581.840820312 339.524414062 581.840820312 c 0
 344.48828125 581.840820312 350.4453125 579.607421875 357.393554688 575.139648438 c 0
 364.83984375 570.671875 371.29296875 565.211914062 376.752929688 558.758789062 c 0
 382.708984375 552.305664062 385.688476562 546.59765625 385.688476562 541.633789062 c 0
 385.688476562 536.173828125 383.206054688 532.451171875 378.2421875 530.46484375 c 0
 373.278320312 528.48046875 368.06640625 527.239257812 362.606445312 526.743164062 c 2
 67.755859375 513.33984375 l 2
134.766601562 629.493164062 m 2
 131.29296875 629.493164062 127.818359375 629.245117188 124.342773438 628.749023438 c 0
 120.869140625 628.749023438 117.641601562 628.749023438 114.6640625 628.749023438 c 0
 101.260742188 628.749023438 91.0859375 632.471679688 84.13671875 639.916992188 c 0
 77.68359375 647.36328125 73.2158203125 654.80859375 70.734375 662.25390625 c 0
 68.251953125 670.196289062 67.01171875 674.6640625 67.01171875 675.657226562 c 0
 67.01171875 681.61328125 69.9892578125 684.591796875 75.9462890625 684.591796875 c 0
 77.435546875 684.591796875 78.67578125 684.342773438 79.6689453125 683.846679688 c 0
 81.158203125 683.846679688 82.6474609375 683.598632812 84.13671875 683.1015625 c 0
 88.603515625 682.110351562 93.3193359375 681.1171875 98.283203125 680.124023438 c 0
 103.247070312 679.627929688 108.458984375 679.379882812 113.918945312 679.379882812 c 2
 120.620117188 679.379882812 l 1
 222.626953125 685.3359375 l 2
 229.080078125 685.83203125 234.788085938 686.329101562 239.751953125 686.825195312 c 0
 244.715820312 687.818359375 249.678710938 689.306640625 254.642578125 691.29296875 c 0
 256.62890625 691.7890625 259.111328125 692.037109375 262.088867188 692.037109375 c 0
 266.555664062 692.037109375 272.264648438 689.5546875 279.213867188 684.591796875 c 0
 286.163085938 680.124023438 292.616210938 674.912109375 298.573242188 668.956054688 c 0
 305.026367188 662.999023438 308.251953125 657.291015625 308.251953125 651.830078125 c 0
 308.251953125 645.874023438 305.76953125 642.151367188 300.805664062 640.662109375 c 0
 295.842773438 639.668945312 290.3828125 638.924804688 284.42578125 638.427734375 c 2
 134.766601562 629.493164062 l 2
108.70703125 733.733398438 m 2
 104.736328125 733.236328125 101.012695312 732.98828125 97.5390625 732.98828125 c 0
 94.560546875 732.98828125 91.58203125 732.98828125 88.603515625 732.98828125 c 0
 77.68359375 732.98828125 70.23828125 734.725585938 66.2666015625 738.200195312 c 0
 62.2958984375 741.67578125 56.8359375 747.135742188 49.8857421875 754.581054688 c 0
 43.43359375 762.02734375 40.20703125 770.465820312 40.20703125 779.896484375 c 0
 40.20703125 785.853515625 43.185546875 788.831054688 49.1416015625 788.831054688 c 0
 50.630859375 788.831054688 51.8720703125 788.583007812 52.8642578125 788.086914062 c 0
 54.353515625 788.086914062 55.8427734375 787.838867188 57.33203125 787.342773438 c 0
 61.798828125 786.349609375 66.5146484375 785.356445312 71.478515625 784.364257812 c 0
 76.4423828125 783.8671875 81.654296875 783.619140625 87.1142578125 783.619140625 c 2
 93.8154296875 783.619140625 l 1
 250.919921875 793.298828125 l 2
 257.373046875 793.794921875 263.08203125 794.291992188 268.044921875 794.788085938 c 0
 273.008789062 795.78125 277.97265625 797.26953125 282.936523438 799.255859375 c 0
 284.921875 799.751953125 287.404296875 800 290.3828125 800 c 0
 294.849609375 800 300.557617188 797.518554688 307.5078125 792.5546875 c 0
 314.45703125 788.086914062 320.91015625 782.875 326.8671875 776.91796875 c 0
 333.319335938 770.961914062 336.545898438 765.252929688 336.545898438 759.79296875 c 0
 336.545898438 753.836914062 334.064453125 750.114257812 329.099609375 748.625 c 0
 324.135742188 747.631835938 318.67578125 746.887695312 312.719726562 746.390625 c 2
 108.70703125 733.733398438 l 2
233.823242188 625.6015625 m 1
 573.12890625 645.823242188 l 1
 585.435546875 726.705078125 l 1
 239.096679688 705.60546875 l 1
 237.924804688 679.817382812 236.166992188 653.149414062 233.823242188 625.6015625 c 1
12.306640625 200.970703125 m 0
 4.1025390625 200.970703125 0 205.073242188 0 213.279296875 c 0
 0 220.311523438 4.3955078125 227.344726562 13.185546875 234.37890625 c 0
 124.530273438 342.220703125 180.202148438 497.83203125 180.202148438 701.208984375 c 0
 180.202148438 722.895507812 176.391601562 743.115234375 168.774414062 761.87109375 c 1
 167.89453125 768.904296875 l 2
 167.89453125 776.5234375 173.461914062 780.333007812 184.596679688 780.333007812 c 0
 192.80078125 780.333007812 210.967773438 773.006835938 239.096679688 758.354492188 c 1
 604.774414062 782.970703125 l 2
 617.081054688 782.970703125 628.21484375 778.868164062 638.176757812 770.663085938 c 0
 648.725585938 763.04296875 654 756.302734375 654 750.442382812 c 0
 654 744.581054688 652.828125 740.185546875 650.484375 737.254882812 c 0
 648.725585938 734.32421875 641.987304688 703.260742188 630.265625 644.064453125 c 1
 644.916992188 631.169921875 652.2421875 621.206054688 652.2421875 614.172851562 c 0
 652.2421875 605.967773438 649.311523438 600.693359375 643.452148438 598.34765625 c 0
 638.176757812 596.00390625 502.219726562 587.504882812 235.581054688 572.852539062 c 1
 227.375976562 465.009765625 192.5078125 374.1640625 130.975585938 300.315429688 c 0
 97.572265625 258.702148438 66.220703125 229.103515625 36.9189453125 211.521484375 c 0
 25.78515625 204.487304688 17.5810546875 200.970703125 12.306640625 200.970703125 c 0
EndSplineSet
EndChar

StartChar: c_xPi_n4
Encoding: 279 -1 23
Width: 1000
VWidth: -17
Flags: HW
LayerCount: 2
Fore
SplineSet
330.4921875 761.572265625 m 1
 245.517578125 757.1171875 l 1
 244.497070312 669.448242188 l 2
 244.497070312 660.908203125 245.11328125 655.709960938 246.344726562 653.853515625 c 0
 247.577148438 651.998046875 250.657226562 650.698242188 255.584960938 649.956054688 c 2
 261.127929688 649.956054688 l 2
 268.51953125 649.956054688 268.286132812 650.698242188 274.03515625 652.182617188 c 0
 279.784179688 654.040039062 283.889648438 655.338867188 286.353515625 656.08203125 c 0
 287.17578125 656.453125 287.997070312 656.638671875 288.818359375 656.638671875 c 0
 290.049804688 657.009765625 291.282226562 657.196289062 292.513671875 657.196289062 c 0
 295.798828125 657.196289062 299.700195312 655.896484375 304.216796875 653.296875 c 0
 308.734375 651.069335938 312.83984375 647.9140625 316.536132812 643.830078125 c 0
 318.588867188 641.231445312 320.232421875 638.817382812 321.463867188 636.588867188 c 1
 330.4921875 761.572265625 l 1
67.7548828125 501.768554688 m 1
 68.37109375 478.934570312 l 1
 68.37109375 476.151367188 l 2
 68.37109375 465.383789062 63.853515625 460 54.8203125 460 c 0
 50.7138671875 460 45.7861328125 461.298828125 40.037109375 463.8984375 c 0
 32.2353515625 466.869140625 26.69140625 470.396484375 23.40625 474.48046875 c 0
 20.12109375 478.193359375 18.478515625 482.27734375 18.478515625 486.732421875 c 0
 18.478515625 487.845703125 18.478515625 488.774414062 18.478515625 489.516601562 c 0
 18.8896484375 490.258789062 19.0947265625 490.81640625 19.0947265625 491.188476562 c 0
 20.326171875 498.985351562 20.9423828125 507.524414062 20.9423828125 516.805664062 c 2
 20.9423828125 527.9453125 l 1
 12.935546875 747.092773438 l 2
 12.5244140625 752.661132812 11.498046875 758.416015625 9.85546875 764.356445312 c 0
 8.212890625 770.668945312 6.1591796875 776.052734375 3.6953125 780.5078125 c 0
 1.2314453125 785.706054688 0 789.232421875 0 791.088867188 c 0
 0 796.287109375 3.490234375 798.885742188 10.4716796875 798.885742188 c 0
 17.8623046875 798.885742188 32.8505859375 794.430664062 55.435546875 785.51953125 c 1
 343.426757812 799.443359375 l 2
 344.248046875 799.443359375 345.069335938 799.443359375 345.890625 799.443359375 c 0
 347.123046875 799.814453125 348.353515625 800 349.5859375 800 c 0
 354.924804688 800 361.495117188 797.401367188 369.296875 792.203125 c 0
 377.098632812 787.375976562 381 781.807617188 381 775.495117188 c 0
 381 772.525390625 380.383789062 769.92578125 379.15234375 767.698242188 c 0
 378.331054688 765.841796875 377.71484375 764.170898438 377.303710938 762.686523438 c 2
 357.59375 546.323242188 l 1
 369.091796875 533.328125 374.83984375 524.232421875 374.83984375 519.034179688 c 0
 374.83984375 514.20703125 372.376953125 511.422851562 367.44921875 510.6796875 c 0
 362.931640625 510.30859375 357.59375 509.936523438 351.43359375 509.56640625 c 2
 67.7548828125 501.768554688 l 1
320.84765625 626.0078125 m 1
 318.794921875 623.409179688 315.508789062 621.180664062 310.9921875 619.325195312 c 0
 303.600585938 616.35546875 294.977539062 614.313476562 285.122070312 613.19921875 c 0
 275.266601562 612.084960938 266.028320312 611.528320312 257.404296875 611.528320312 c 0
 249.013671875 611.528320312 236.6953125 612.641601562 227.250976562 614.869140625 c 0
 218.216796875 617.467773438 211.646484375 622.294921875 207.540039062 629.348632812 c 0
 203.43359375 636.775390625 201.379882812 647.357421875 201.379882812 661.09375 c 2
 201.379882812 664.435546875 l 1
 202.401367188 755.446289062 l 1
 171.659179688 753.21875 l 1
 167.659179688 711.989257812 162.51171875 710.66796875 153.584960938 675.607421875 c 0
 144.333007812 639.263671875 120.940429688 616.74609375 88.91015625 592.984375 c 0
 80.287109375 587.04296875 73.716796875 584.073242188 69.19921875 584.073242188 c 0
 63.861328125 584.073242188 61.1923828125 586.486328125 61.1923828125 591.313476562 c 0
 61.1923828125 595.397460938 64.06640625 600.78125 69.8154296875 607.463867188 c 0
 87.0625 626.399414062 100.595703125 639.727539062 106.7734375 660.5703125 c 0
 115.174804688 680.02734375 116.147460938 686.51171875 122.3828125 710.197265625 c 1
 124.435546875 733.958984375 125.462890625 726.30078125 125.462890625 751.547851562 c 1
 57.8994140625 748.206054688 l 1
 66.5234375 540.197265625 l 1
 313.861328125 547.436523438 l 1
 320.84765625 626.0078125 l 1
233.823242188 625.6015625 m 1
 573.12890625 645.823242188 l 1
 585.435546875 726.705078125 l 1
 239.096679688 705.60546875 l 1
 237.924804688 679.817382812 236.166992188 653.149414062 233.823242188 625.6015625 c 1
12.306640625 200.970703125 m 0
 4.1025390625 200.970703125 0 205.073242188 0 213.279296875 c 0
 0 220.311523438 4.3955078125 227.344726562 13.185546875 234.37890625 c 0
 124.530273438 342.220703125 180.202148438 497.83203125 180.202148438 701.208984375 c 0
 180.202148438 722.895507812 176.391601562 743.115234375 168.774414062 761.87109375 c 1
 167.89453125 768.904296875 l 2
 167.89453125 776.5234375 173.461914062 780.333007812 184.596679688 780.333007812 c 0
 192.80078125 780.333007812 210.967773438 773.006835938 239.096679688 758.354492188 c 1
 604.774414062 782.970703125 l 2
 617.081054688 782.970703125 628.21484375 778.868164062 638.176757812 770.663085938 c 0
 648.725585938 763.04296875 654 756.302734375 654 750.442382812 c 0
 654 744.581054688 652.828125 740.185546875 650.484375 737.254882812 c 0
 648.725585938 734.32421875 641.987304688 703.260742188 630.265625 644.064453125 c 1
 644.916992188 631.169921875 652.2421875 621.206054688 652.2421875 614.172851562 c 0
 652.2421875 605.967773438 649.311523438 600.693359375 643.452148438 598.34765625 c 0
 638.176757812 596.00390625 502.219726562 587.504882812 235.581054688 572.852539062 c 1
 227.375976562 465.009765625 192.5078125 374.1640625 130.975585938 300.315429688 c 0
 97.572265625 258.702148438 66.220703125 229.103515625 36.9189453125 211.521484375 c 0
 25.78515625 204.487304688 17.5810546875 200.970703125 12.306640625 200.970703125 c 0
EndSplineSet
EndChar

StartChar: c_xPi_n5
Encoding: 280 -1 24
Width: 1000
VWidth: -17
Flags: HW
LayerCount: 2
Fore
SplineSet
279.080078125 630.124023438 m 1
 184.743164062 622.956054688 l 1
 159.194335938 524.041015625 l 1
 267.288085938 529.776367188 l 1
 279.080078125 630.124023438 l 1
47.1689453125 471 m 1
 41.2724609375 471 l 2
 28.6064453125 471 19.6533203125 474.106445312 14.4130859375 480.318359375 c 0
 9.171875 487.0078125 5.458984375 493.458984375 3.275390625 499.670898438 c 0
 1.091796875 505.8828125 0 510.901367188 0 514.72265625 c 0
 0 519.024414062 2.40234375 521.173828125 7.2060546875 521.173828125 c 0
 8.953125 521.173828125 10.7001953125 520.934570312 12.447265625 520.458007812 c 0
 17.6884765625 518.545898438 24.021484375 517.58984375 31.4453125 517.58984375 c 0
 33.6298828125 517.58984375 35.8134765625 517.58984375 37.9970703125 517.58984375 c 0
 40.1806640625 518.068359375 42.3642578125 518.306640625 44.5478515625 518.306640625 c 2
 108.094726562 521.890625 l 1
 133.643554688 620.088867188 l 1
 94.3369140625 617.939453125 l 1
 83.85546875 617.939453125 l 2
 74.2470703125 617.939453125 67.4775390625 619.373046875 63.546875 622.240234375 c 0
 60.052734375 625.584960938 56.33984375 629.884765625 52.4091796875 635.141601562 c 0
 49.3525390625 641.353515625 46.513671875 648.043945312 43.892578125 655.2109375 c 0
 43.4560546875 656.64453125 43.23828125 658.555664062 43.23828125 660.946289062 c 0
 43.23828125 665.24609375 45.421875 667.397460938 49.7890625 667.397460938 c 0
 51.099609375 667.397460938 51.97265625 667.158203125 52.4091796875 666.6796875 c 0
 53.283203125 666.6796875 54.15625 666.6796875 55.0302734375 666.6796875 c 0
 62.455078125 665.24609375 69.4423828125 664.529296875 75.994140625 664.529296875 c 0
 78.177734375 664.529296875 80.580078125 664.529296875 83.2001953125 664.529296875 c 0
 85.8203125 665.006835938 88.4404296875 665.24609375 91.0615234375 665.24609375 c 2
 146.090820312 668.11328125 l 1
 161.159179688 736.923828125 l 1
 79.26953125 731.189453125 l 2
 77.5224609375 731.189453125 75.775390625 730.950195312 74.0283203125 730.47265625 c 0
 72.28125 730.47265625 70.7529296875 730.47265625 69.4423828125 730.47265625 c 0
 57.2138671875 730.47265625 48.0419921875 734.295898438 41.927734375 741.94140625 c 0
 36.25 750.064453125 31.8828125 758.905273438 28.8251953125 768.461914062 c 0
 28.388671875 769.895507812 28.169921875 772.28515625 28.169921875 775.629882812 c 0
 28.169921875 779.452148438 30.572265625 781.364257812 35.376953125 781.364257812 c 0
 37.560546875 781.364257812 39.306640625 781.125 40.6171875 780.647460938 c 0
 48.0419921875 779.213867188 55.248046875 778.497070312 62.236328125 778.497070312 c 2
 71.408203125 778.497070312 l 1
 305.28515625 794.265625 l 2
 309.653320312 794.744140625 313.583007812 795.221679688 317.077148438 795.69921875 c 0
 320.571289062 796.655273438 323.627929688 797.610351562 326.249023438 798.56640625 c 0
 328.432617188 799.043945312 330.3984375 799.283203125 332.14453125 799.283203125 c 0
 333.891601562 799.760742188 335.202148438 800 336.076171875 800 c 0
 340.005859375 800 344.810546875 798.088867188 350.48828125 794.265625 c 0
 356.166015625 790.443359375 361.188476562 785.6640625 365.555664062 779.930664062 c 0
 370.360351562 774.196289062 372.76171875 768.701171875 372.76171875 763.444335938 c 0
 372.76171875 754.842773438 365.119140625 750.064453125 349.833007812 749.109375 c 2
 211.602539062 739.791015625 l 1
 196.536132812 671.697265625 l 1
 294.802734375 678.1484375 l 2
 295.676757812 678.1484375 296.549804688 678.1484375 297.423828125 678.1484375 c 0
 298.734375 678.625976562 300.043945312 678.865234375 301.353515625 678.865234375 c 0
 307.032226562 678.865234375 313.801757812 675.758789062 321.663085938 669.546875 c 0
 329.9609375 663.813476562 334.110351562 656.883789062 334.110351562 648.759765625 c 0
 334.110351562 644.938476562 333.455078125 641.83203125 332.14453125 639.442382812 c 0
 331.271484375 637.53125 330.616210938 635.619140625 330.1796875 633.708007812 c 2
 315.766601562 531.92578125 l 1
 345.247070312 534.076171875 l 2
 349.615234375 534.553710938 353.982421875 535.032226562 358.349609375 535.509765625 c 0
 362.716796875 536.465820312 367.302734375 537.420898438 372.107421875 538.376953125 c 0
 373.853515625 538.85546875 375.600585938 539.09375 377.34765625 539.09375 c 0
 379.094726562 539.572265625 380.624023438 539.809570312 381.93359375 539.809570312 c 0
 387.612304688 539.809570312 392.8515625 537.420898438 397.657226562 532.642578125 c 0
 402.8984375 528.341796875 407.264648438 523.325195312 410.758789062 517.58984375 c 0
 414.252929688 512.333984375 416 507.793945312 416 503.971679688 c 0
 416 494.892578125 409.01171875 489.875 395.036132812 488.918945312 c 2
 47.1689453125 471 l 1
233.823242188 625.6015625 m 1
 573.12890625 645.823242188 l 1
 585.435546875 726.705078125 l 1
 239.096679688 705.60546875 l 1
 237.924804688 679.817382812 236.166992188 653.149414062 233.823242188 625.6015625 c 1
12.306640625 200.970703125 m 0
 4.1025390625 200.970703125 0 205.073242188 0 213.279296875 c 0
 0 220.311523438 4.3955078125 227.344726562 13.185546875 234.37890625 c 0
 124.530273438 342.220703125 180.202148438 497.83203125 180.202148438 701.208984375 c 0
 180.202148438 722.895507812 176.391601562 743.115234375 168.774414062 761.87109375 c 1
 167.89453125 768.904296875 l 2
 167.89453125 776.5234375 173.461914062 780.333007812 184.596679688 780.333007812 c 0
 192.80078125 780.333007812 210.967773438 773.006835938 239.096679688 758.354492188 c 1
 604.774414062 782.970703125 l 2
 617.081054688 782.970703125 628.21484375 778.868164062 638.176757812 770.663085938 c 0
 648.725585938 763.04296875 654 756.302734375 654 750.442382812 c 0
 654 744.581054688 652.828125 740.185546875 650.484375 737.254882812 c 0
 648.725585938 734.32421875 641.987304688 703.260742188 630.265625 644.064453125 c 1
 644.916992188 631.169921875 652.2421875 621.206054688 652.2421875 614.172851562 c 0
 652.2421875 605.967773438 649.311523438 600.693359375 643.452148438 598.34765625 c 0
 638.176757812 596.00390625 502.219726562 587.504882812 235.581054688 572.852539062 c 1
 227.375976562 465.009765625 192.5078125 374.1640625 130.975585938 300.315429688 c 0
 97.572265625 258.702148438 66.220703125 229.103515625 36.9189453125 211.521484375 c 0
 25.78515625 204.487304688 17.5810546875 200.970703125 12.306640625 200.970703125 c 0
EndSplineSet
EndChar

